<mxfile host="app.diagrams.net" modified="2024-07-04T09:55:31.566Z" agent="Mozilla/5.0 (Windows NT 10.0; Win64; x64) AppleWebKit/537.36 (KHTML, like Gecko) Chrome/126.0.0.0 Safari/537.36" etag="vCTzeD7R3uOfU6snq2my" version="24.6.4" type="device">
  <diagram name="PÃ¡gina-1" id="2_XzW6V30r1EqhB_5Rup">
    <mxGraphModel dx="1173" dy="635" grid="1" gridSize="10" guides="1" tooltips="1" connect="1" arrows="1" fold="1" page="1" pageScale="1" pageWidth="827" pageHeight="1169" math="0" shadow="0">
      <root>
        <mxCell id="0" />
        <mxCell id="1" parent="0" />
        <mxCell id="lgLzInrkZJbj5XazXorP-1" value="WebServer" style="swimlane;whiteSpace=wrap;html=1;startSize=23;" vertex="1" parent="1">
          <mxGeometry x="40" y="40" width="290" height="300" as="geometry" />
        </mxCell>
        <mxCell id="lgLzInrkZJbj5XazXorP-7" value="Server Instance" style="whiteSpace=wrap;html=1;" vertex="1" parent="lgLzInrkZJbj5XazXorP-1">
          <mxGeometry x="160" y="40" width="120" height="60" as="geometry" />
        </mxCell>
        <mxCell id="lgLzInrkZJbj5XazXorP-9" value="Compute Engine&amp;nbsp;" style="rounded=0;whiteSpace=wrap;html=1;" vertex="1" parent="lgLzInrkZJbj5XazXorP-1">
          <mxGeometry x="10" y="40" width="130" height="20" as="geometry" />
        </mxCell>
        <mxCell id="lgLzInrkZJbj5XazXorP-10" value="VPC Network" style="rounded=0;whiteSpace=wrap;html=1;" vertex="1" parent="lgLzInrkZJbj5XazXorP-1">
          <mxGeometry x="10" y="80" width="130" height="20" as="geometry" />
        </mxCell>
        <mxCell id="lgLzInrkZJbj5XazXorP-11" value="Vision AI" style="rounded=0;whiteSpace=wrap;html=1;" vertex="1" parent="lgLzInrkZJbj5XazXorP-1">
          <mxGeometry x="10" y="120" width="230" height="50" as="geometry" />
        </mxCell>
        <mxCell id="lgLzInrkZJbj5XazXorP-12" value="Speech To Text" style="rounded=0;whiteSpace=wrap;html=1;" vertex="1" parent="lgLzInrkZJbj5XazXorP-1">
          <mxGeometry x="10" y="180" width="230" height="50" as="geometry" />
        </mxCell>
        <mxCell id="lgLzInrkZJbj5XazXorP-13" value="Video Intelligence" style="rounded=0;whiteSpace=wrap;html=1;" vertex="1" parent="lgLzInrkZJbj5XazXorP-1">
          <mxGeometry x="10" y="240" width="230" height="50" as="geometry" />
        </mxCell>
        <mxCell id="lgLzInrkZJbj5XazXorP-15" value="" style="endArrow=none;html=1;rounded=0;" edge="1" parent="lgLzInrkZJbj5XazXorP-1">
          <mxGeometry width="50" height="50" relative="1" as="geometry">
            <mxPoint x="260" y="270" as="sourcePoint" />
            <mxPoint x="260" y="100" as="targetPoint" />
          </mxGeometry>
        </mxCell>
        <mxCell id="lgLzInrkZJbj5XazXorP-16" value="" style="endArrow=classic;html=1;rounded=0;" edge="1" parent="lgLzInrkZJbj5XazXorP-1">
          <mxGeometry width="50" height="50" relative="1" as="geometry">
            <mxPoint x="260" y="204.86" as="sourcePoint" />
            <mxPoint x="240" y="204.86" as="targetPoint" />
          </mxGeometry>
        </mxCell>
        <mxCell id="lgLzInrkZJbj5XazXorP-18" value="" style="endArrow=classic;html=1;rounded=0;" edge="1" parent="lgLzInrkZJbj5XazXorP-1">
          <mxGeometry width="50" height="50" relative="1" as="geometry">
            <mxPoint x="260" y="144.86" as="sourcePoint" />
            <mxPoint x="240" y="144.86" as="targetPoint" />
          </mxGeometry>
        </mxCell>
        <mxCell id="lgLzInrkZJbj5XazXorP-19" value="" style="endArrow=classic;html=1;rounded=0;entryX=1;entryY=0.5;entryDx=0;entryDy=0;exitX=0;exitY=0.5;exitDx=0;exitDy=0;" edge="1" parent="lgLzInrkZJbj5XazXorP-1" source="lgLzInrkZJbj5XazXorP-7" target="lgLzInrkZJbj5XazXorP-9">
          <mxGeometry width="50" height="50" relative="1" as="geometry">
            <mxPoint x="190" y="190" as="sourcePoint" />
            <mxPoint x="240" y="140" as="targetPoint" />
          </mxGeometry>
        </mxCell>
        <mxCell id="lgLzInrkZJbj5XazXorP-21" value="" style="endArrow=classic;html=1;rounded=0;exitX=0;exitY=0.5;exitDx=0;exitDy=0;entryX=1;entryY=0.5;entryDx=0;entryDy=0;" edge="1" parent="lgLzInrkZJbj5XazXorP-1" source="lgLzInrkZJbj5XazXorP-7" target="lgLzInrkZJbj5XazXorP-10">
          <mxGeometry width="50" height="50" relative="1" as="geometry">
            <mxPoint x="190" y="190" as="sourcePoint" />
            <mxPoint x="240" y="140" as="targetPoint" />
          </mxGeometry>
        </mxCell>
        <mxCell id="lgLzInrkZJbj5XazXorP-17" value="" style="endArrow=classic;html=1;rounded=0;entryX=1.006;entryY=0.587;entryDx=0;entryDy=0;entryPerimeter=0;" edge="1" parent="1" target="lgLzInrkZJbj5XazXorP-13">
          <mxGeometry width="50" height="50" relative="1" as="geometry">
            <mxPoint x="300" y="310" as="sourcePoint" />
            <mxPoint x="380" y="170" as="targetPoint" />
          </mxGeometry>
        </mxCell>
        <mxCell id="lgLzInrkZJbj5XazXorP-22" value="Client&amp;nbsp; (OmniSeeker)" style="swimlane;whiteSpace=wrap;html=1;" vertex="1" parent="1">
          <mxGeometry x="380" y="40" width="300" height="300" as="geometry" />
        </mxCell>
        <mxCell id="lgLzInrkZJbj5XazXorP-25" style="edgeStyle=orthogonalEdgeStyle;rounded=0;orthogonalLoop=1;jettySize=auto;html=1;entryX=0;entryY=0.5;entryDx=0;entryDy=0;" edge="1" parent="lgLzInrkZJbj5XazXorP-22" source="lgLzInrkZJbj5XazXorP-23" target="lgLzInrkZJbj5XazXorP-24">
          <mxGeometry relative="1" as="geometry" />
        </mxCell>
        <mxCell id="lgLzInrkZJbj5XazXorP-23" value="Client Instance" style="whiteSpace=wrap;html=1;" vertex="1" parent="lgLzInrkZJbj5XazXorP-22">
          <mxGeometry x="10" y="40" width="120" height="60" as="geometry" />
        </mxCell>
        <mxCell id="lgLzInrkZJbj5XazXorP-41" style="edgeStyle=orthogonalEdgeStyle;rounded=0;orthogonalLoop=1;jettySize=auto;html=1;exitX=0.5;exitY=1;exitDx=0;exitDy=0;entryX=0.5;entryY=0;entryDx=0;entryDy=0;" edge="1" parent="lgLzInrkZJbj5XazXorP-22" source="lgLzInrkZJbj5XazXorP-24" target="lgLzInrkZJbj5XazXorP-30">
          <mxGeometry relative="1" as="geometry" />
        </mxCell>
        <mxCell id="lgLzInrkZJbj5XazXorP-24" value="Orders Manegment" style="whiteSpace=wrap;html=1;" vertex="1" parent="lgLzInrkZJbj5XazXorP-22">
          <mxGeometry x="160" y="40" width="120" height="60" as="geometry" />
        </mxCell>
        <mxCell id="lgLzInrkZJbj5XazXorP-44" style="edgeStyle=orthogonalEdgeStyle;rounded=0;orthogonalLoop=1;jettySize=auto;html=1;entryX=0;entryY=0.5;entryDx=0;entryDy=0;" edge="1" parent="lgLzInrkZJbj5XazXorP-22" source="lgLzInrkZJbj5XazXorP-29" target="lgLzInrkZJbj5XazXorP-30">
          <mxGeometry relative="1" as="geometry" />
        </mxCell>
        <mxCell id="lgLzInrkZJbj5XazXorP-29" value="Bug Algorithm" style="rounded=0;whiteSpace=wrap;html=1;" vertex="1" parent="lgLzInrkZJbj5XazXorP-22">
          <mxGeometry x="10" y="120" width="120" height="60" as="geometry" />
        </mxCell>
        <mxCell id="lgLzInrkZJbj5XazXorP-30" value="Motor Controller" style="rounded=0;whiteSpace=wrap;html=1;" vertex="1" parent="lgLzInrkZJbj5XazXorP-22">
          <mxGeometry x="160" y="120" width="120" height="60" as="geometry" />
        </mxCell>
        <mxCell id="lgLzInrkZJbj5XazXorP-43" style="edgeStyle=orthogonalEdgeStyle;rounded=0;orthogonalLoop=1;jettySize=auto;html=1;entryX=0.5;entryY=1;entryDx=0;entryDy=0;" edge="1" parent="lgLzInrkZJbj5XazXorP-22" source="lgLzInrkZJbj5XazXorP-31" target="lgLzInrkZJbj5XazXorP-29">
          <mxGeometry relative="1" as="geometry" />
        </mxCell>
        <mxCell id="lgLzInrkZJbj5XazXorP-31" value="Ultrasound Sensor" style="rounded=0;whiteSpace=wrap;html=1;" vertex="1" parent="lgLzInrkZJbj5XazXorP-22">
          <mxGeometry x="10" y="210" width="120" height="60" as="geometry" />
        </mxCell>
        <mxCell id="lgLzInrkZJbj5XazXorP-45" value="Intra Communication" style="rounded=0;whiteSpace=wrap;html=1;" vertex="1" parent="lgLzInrkZJbj5XazXorP-22">
          <mxGeometry x="160" y="210" width="120" height="60" as="geometry" />
        </mxCell>
        <mxCell id="lgLzInrkZJbj5XazXorP-47" value="" style="endArrow=classic;html=1;rounded=0;exitX=0.5;exitY=1;exitDx=0;exitDy=0;" edge="1" parent="lgLzInrkZJbj5XazXorP-22" source="lgLzInrkZJbj5XazXorP-45">
          <mxGeometry width="50" height="50" relative="1" as="geometry">
            <mxPoint x="-100" y="270" as="sourcePoint" />
            <mxPoint x="220" y="320" as="targetPoint" />
          </mxGeometry>
        </mxCell>
        <mxCell id="lgLzInrkZJbj5XazXorP-51" value="" style="rounded=0;whiteSpace=wrap;html=1;" vertex="1" parent="lgLzInrkZJbj5XazXorP-22">
          <mxGeometry x="240" y="-30" width="120" height="60" as="geometry" />
        </mxCell>
        <mxCell id="lgLzInrkZJbj5XazXorP-50" value="" style="shape=image;verticalLabelPosition=bottom;labelBackgroundColor=default;verticalAlign=top;aspect=fixed;imageAspect=0;image=data:image/png,iVBORw0KGgoAAAANSUhEUgAAAhsAAAEOCAYAAAAg1NUIAAAAAXNSR0IArs4c6QAAAARnQU1BAACxjwv8YQUAAAAJcEhZcwAAFxEAABcRAcom8z8AAJ6VSURBVHhe7X0HnGVFlX65q+6a1/A3oatrDphzxAAmMIuCOaxZXHWNqAxiAoYBevrdfF93zxCUMSEKIqCILphIEkQERJSch8wMw/y/75yqd+97fbv7vddxZs73+53fzVWnTlWdcyrcKmcwGAwGg8FgMBgMBoPBYDAYDAaDwWAwGAwGg8FgMBgMBoPBYDAYDAaDwWAwGAwGg8FgMBgMBoPBYDAYDAaDwWAwGAwGg8FgMBgMBoPBYDAYDAaDwWAwGAwGg8FgMBgMBoPBYDAYDAaDwWAwGAwGg8FgMBgMBoPBYDAYDAaDwWAwGAwGg8FgMBgMBoPBYDAYDAaDwWAwGAwGg8FgMBgMBoPBYDAYDAaDwWAwGAwGg8FgMBgMBoPBYDAYDAaDwWAwGAwGg8FgMBgMBoPBYDAYDAaDwWAwGAyGucTGjXfwZwbD0oOVT4PBYNjEQMW9bNm/CA2rxJctu6PLsju5Qw65C453xfWd3Zo1/yphDo87uB131DDIlxmYxUGQfSgjzJfZ4kMoK+Pj/y7EcrNm47/6J4OhzpeVD4PBYFhyUCU9k4Jes+bOLl59fxeXj3VJ8WwX5y9zafFaXO/kouJ9Lso+5lrF/+L8S3j+ZZfmy3Bvd9fKvyL3ovILuP9p3P+IS/L3uqS9M5693sXtbV1aPg/hbO2isYe6kQPu6ZZtnN4xCYbFjMrCIBhx0nTYEU7lfuP/4ZLk4cjzJyO/X+Ci9BUoB2+Q/I6L97g4/W8pA3H6SVz/L8rArnhvN5e2v4pvvixlJR37DJ591CXle3H9Njea74B3XuJG02ci7EfDKbmfO/bYO/pYp4KWkblwiAwGg8Ewx6CCZo/E6Kr7ujR9pBvJnyvKnoYigSGIiwiOwQ/gbByH4xm4vhh0PWg9aIOn2/Hu7XKM5Kj3EznivZzv47v8zzgej/s/AbXx7jdx/AQM01vdymxbNzr2dDFcK4r7SMt3JmNnWBgwH1Ycchc3Onpfl6/+L3ECRovt3Gi2E5xHOBH5XsjXVSgfh+P4OziXf5H8Tsqr8exm0G24DqTlpV5WktKXk+I60IUuyk/D8Zf4bg2ejSDcz7m8fIdLx18FB/VZLhl/uCt8GZnaATWnw2AwGBYV2lNwRxfH93cj8XNhHN4K5f5FHOEA0KkoLkBr83Icr4HCvwEOwS0wDDAU5UaXtUHjG11Ro5w0odS576+FcJ3iu7gg3YbwbsXxRhzXwtG4CueXuFZxJgzLEbjXclH5GfDyRtdKnwOj8oA5GJYxDAp1Qu/kyvLBvidqRzH6UZ6hTByFfKPjeAnuXYV7dBJuwvk6EJ0HLSf5WK0MgFgmOuUllJPadYb3SQnKSSLOxy0I63rQ1bi+HHQe7h2DOFLc+yx4eCOunyGOB8uIs54vg8FgWDjQmZiqxdcafyCM+UtdnH4UinolDMXRoNNx/g8Y+LVQ5Btde/VGN3bARleuUiMRDAEdBhoSGgN1HPokfgPi9wxHDA3CZfiMq424eJ2UMDAwXnFxPuhUXB+J61EYu11g4HZwydijp0zX1C1cQxOmkheNdrTq8Sgjb0A+fxoGPUE+HI38OA3XfwfBAS02uIJ5h3xj/okTAaITGspJ6vN8kLIi77OceKejXk5YHhmX9pZdA77+jjJxKoi9KStA/+2isedLr1gTpqsTBoPBYBgA2vqfrFBHRv4flPKLoJA5NLI3zn8GpX62i4obpGUZDAZbotoDcTsckGo4hK3V0PU9V8Suc+0+V6JxooGhwQrGhcYmYg9IeR6Ov3ZxO3dZ8Qnw/0qX5//lU9cNNShmVJowncEdzR/jonR7lA84GOUY8uQEnNOg3yxlg2VEnE/kCZ0BOgXMNxp/yUvJx+a8Hp6q8qHlUcun9Kx5R5VllsMvSflnlJEf47gH+Hu7i8efK/NJemFOh8FgMAyJJgXKLvA8f4iLsm1cknES5xFQyheI8aDCptFIcBSjIWPq7LbGMfdGg/fFoKjiD63OuaJOmGzVwpBUjkd9bB/PaVy8E6L3ObxzPN7fR1rfnMC6337NRsWcDsVUsuDwQ2viiZDxW5EPKyHXP+DIIYsNKnMQnUDmgwyj1fJG8ov55nsk5quMKCkPPI86ZWS9nPO9UJ45dBPDgU7Kc+GY/si12p92afo80IMahuHM6TAYDIa+0etoyFyM1feXvwLicl8oX3Y1o+UH5UzFLAZElDINhW+RiqFXpc4WZF3hLxQFw6LX2rMSele09ax8k8TQtW90reIfSNuP8M5H3crkKTLRtduANBvZLQmTy4dOCI7Lp0GWn8LxZ5DfRZDxTSJ/ypdGW/KEcgZ19Vwgb6p8WlgKZSQ4HnR29Jq8VeVDysgY549wyOcPcJi+AXox0n0/ndvhYfOADAaDYUZMbpnxV9Is29EleQbjcBIU9BXiXIQ5EaKEOy3EoKiDUfcKvUfBLyYJj3kwdGrseJ9d5+VqpGsV3ituQRrPw/EXMCi74v3nijGtsOW2YHsdjXKve6CV/2LI6svI82Mht79DpuulfFCeLCuUr5aPSuaB6nmzFEj4Ytn1jmlwlFnOy/GNbgxp4nlcXoo0/w7PWi4r3yCTjutQGW2ZZcRgMBga0WQ42ZMxWr7ZRVCmolRhgMcPVAdDlbI33J0ejMpwVEMl3Yp8KZA4PuSrw39lWAK/NJBMK40lf5uM88Pw/AvidPDXyDq2FKejN51Zdi/I40WQ4W4ua7Mn40KRF+VG+VGWUkZErkqUdycf+ByyD9dLhbSXBec9/Itz6suIOB5+DlBc3oh7/PV6b9cqXiNyqWNLKR8Gg8EwLXqV4cjIPdGaf6ZL2l+GEv0jlOltOoFPWnNUwF7pgqTlJwab96mQl57xmIqCAdRz73iAeNQ0IZ14xomLnPCaFFfi+gcuan8Ax60nOR2Kzc2wTE4P0520nwJZfRIy+SmO18ukSikfQXakWhkR4+1lXs+DpUySBk/1njtJn6SJ5eP2zl8uHDJK2sfh+GkpH63W3b3EFOZ0GAyGLRZ1BSi/J0YPhXH4gLRU+TtiSmUKI0KDoZMt1XB0KeIGRb2pUiddPOc93+1PGdCoyATC8p9497sub7/R7bknW7GVDDe38fp6eng+zpU98ze6uL0GcrgU5WO9GFrKpuOgSfmoZNkk502ZOmXEpzH0eLCMZG2m/0o4HT922fi73Gj54I4MWdfM4TAYDFsUehUfHY2k2A5KcwwK9Twoy3UyXKLd4do67bTqqGAblPDmRJVB0bTLZEbcpzy0l4dd56e4Vv4N0FO9FBU0Lpu6USH/vY4G/8CIck4OPk3SXy8fdVlpT8YWVEZYPsQpvV3n/ayiXG6BI3YO7kUuyp7vpQi5wjGty9VgMBg2W/Q6GvyVlYsXJcXPQTfLmDsX3RJFypaqGA9cU8GKot38DYkMBwVj0mmp06Do2h0l5MM1GdLyMjgbP4KBfbdrt/+fl+im7XD0lo8RlI9W9n6Ug5/Cybimtlgae7z0l9VQNjqt/S2hjEgaQ/nguZYPXlM+4wfRKV2L60PhpL9T/loJ6JWxwWAwbLZYtubOUIDPgsH8FpTiWZ2xZzUc+mtiZWi3BOMxmdTZqBwO9uxQLtrboa1YUsL9XdpfxPPHd/0GuSlj5Ih/c+mqZ6IsfAN0lhhQEstHGDLRXozqXq/8Nn/S8hHKg5YT73Tgmk67DL+V3Jfli3BMn9hTPszhMBgMmxnqLakVK+7iVrZfDSX4QyjBm3QxLlGWNCI4QnlKlzgV6RZpRLqpcjrCMAENiMpKxuppUPIrQQe4KH2pW778bl7Smw7q5YOrZGYTr4MDdSjSep0YTJ0AqmVD5FCTCalJblsK1WXQcca8nDqyy6+CPMfh3L/YjYz8m5d0t9wNBoNhk0ZdoZXlPVzKYZPyN1CEN8vvilSGVU+GGY/pSORDQ+KNicgK8lOH7QYYml+7JP+gbEgXQPkvVaPSy9vExFYuyT6LdJ0CJ+pmSZcY0Fp6Jc09cjGqSOTj61LS1gnG7BXKJ7gE+tGof29zy5bd2Utch90MBoNhk0WvIeESy2n+KSi7U2Uym469+25fMSJeQTYoUKMaeWMS1mII8qM82cuRjZ0Bp+PrsvlYQG9eLAWQn7qhS9pPQDr2dHn7XBkekmETPywQMb2Sfisf/ZDUJxy1B+g26QnjfJdsjNcngD4kS7sHLMXyYTAYDH2gW3nF7UfAOO4GRXiuOBqy54PsWVJzNHzrtUl5Gk2mjtzEEKss2YrlYk9p+woYmFEXx0/rGHTNj6VkUJQX8selxqM8hsNxRW3dDD8/hWn06d2U1lJZTKKsdBhSz0M9Y08RHVJupx/ln5EJuAFLr3wYDAbDDKharHeAoXgsFN3+LiqvEEWoY8h+3L2mGMWY1BSm0cwkhqR+TqOCc+0VWOuS/Duulb3QrVkTus2XlkFZNv7vsrFeXH4P/F6vm9P5tOgfOaF1bmVjUKLMguzUKdVz2SdGnLl/4PnuLkm28rlhQyoGg2ETQl1hxTEdjQTK7xoxJFSCQQEutBEJypbnMgfA96SQjzqF95qo8074lk6TP+/EUbteCJI4PQX+wjwObrkfFz+VpazrTsZS6DKnAyRL0hdHIx03yd8TIT2ddC2wLElBljwP+RvKRTgPFN6tU/25lI3aN3WjT+qNe75I4pK49ZwOv65TcrFr5Xu5ZKJyOGw4xWAwLHGEoRNVVq3iUS5ur4Thu1q6xoOCVaU7/8q2HocqWR1q0EWQ/BoNNAZ41vstlbFsVw/i2ha9z0n8LspDuLchXIQpaz9wjJzx1N9dGMOivQLemcJRHbx1Lsp+gbS8pdbDsfBGpR7f8tV3c/HYe1yr/D14RmvbO6KSZ7VjXYbzQVpGuq+jnMM3Pj99OQnyrH/bRSwnLC8Nz/id/KqLsDrb2nPYq1ZGlI+FqQ91B45zY+LiEvD/9a4ejno9NhgMhiWGSjmVBz4MSm0vKNSrpEtflTUUOJVeTfHVleGcUJfhIOmaHWI8qNz9M7bq2JKmsqUjFCYksjcgkEy25DnfJfn7fI+LaoVdWnnO94Kx0d9S6cjQYNER6U6rGNF5IonHy0CdOr/cOUg27Gq/1a2GoVcspEGp4tkzuxda0+8FLyfr4mSQrezIyjJCvn065lNOgRiPlk0tI+o46jPKLOQ3ywfzO5QTIV8emPdSTmoU3qmXLykjSKvECxLnw5dLLSPdvM01aRxV+ZDyiaMuoneRi9NdZRJ3BXM2DAbDkkOlmPY94EFQpl+DUrtMx4dF0XlDLw4ADcncOxoSrm+1kdSIkCrDIV3HeDcq1uHIIYZrYNwuxvGvuHcqzn/vWjDK/IU0zn+J+8fgvWPB929w7wR5Lu8Vf8H9f+L5lYh7Ld69GfegvBFPcFI6PPVQ6Nnp5X+uSOIRhwfphAzIlzobOC9/6+JsR7fikLv43FoIh6MKf69D7yGORpz/ScoG+dLWvhrBMNzQlK65IJFNjeqGnhScBZUX+boFdL2L21dBnign5Tng73TI8STc/wO+/62Ujbj4lYuyX+PZCSg/f8DxZMj+TBzPx7MrXFpoGQkGXhwUlkXGy7ogzk43b8pfczpmQxI2zxE3463un480fNaNHHBPn1s2pGIwGJYQ6gqJW1xHxZdAF1StOK80qVhVoer92VJdIdcVM8/r8dBw6P31oCugYE8HHQ1aDdobhuOzLmq/E0biVbh+gRtNnwn+n+zy0cegpfdIGIbHudb4U13K3WjHXwCD8UoY7J0Qxy5wLnbH9y28zwmOdEjghMCBaUqjGH7yRV54LfzjWS0dc0VdsmHPDh0OGje23vP/cy0ZUlmI1STrZeOuMnQS59zfZIM3tjT2avDqPM8VSXhClbyVGI86GvKud3x4HuXXgce/4pvj8fxHoBzPviXlJC7Af/k61ypfDhm+EOXjOXBOniqrc46mT4KxfhaevRjfbof43uRa2Ydx3A1lZxTfoozkdEwQdnm9xBl6GZRXXjOvwCfLCcuL8FxReHe2FMJSWaj8JT/gIKX5R2zhL4PBsLRQV0RsLVMZJ/np0m1MBRZaa0HBiULF+WwoKF5VzriW+6GFqnGxdcr9IahAk+I8vPMzOBPcmOqz4O8tuAenodzaJcnDZV8RziHodyY+N7TiKqgrivvIxLpk7NFupHwaDM+LXTy+EwzLrgg7heI+HPycDdrgxg7UrnRtMQfD5w2LKHyfrlo654IqWUE+uFZ5MN5f4/rN7thld/SpmnujUg9vGRyNqHgf4j5ZeBDHB3wx/cGgNvE/LFXprq5D7wF/B2X8HMJhvujaHeeAfgaHokAZ2c1F6Tvx/kvw3TPE2cxW/acbQTnh1u3HHlvJbDpwSf799vsP2X01SR4NeT9NwyzfBed2d1nRMy5/hTgulmE6/rLMo/ArTqk6Yh0H1ZeRejpnQyoTPTIOlk0ODUX5CUj/a7scDoPBYFhUBIOSZXdCq/VlUFy/cVn7NlGaYuBE4VfUpPQGJTVQXvmKM4OWGc7ZNc2Fi+hoJMVFMGrHwbEYg/HfRVuixaO6uojnC1wsiQ4IDQtbiUkew1gcBd7Pxr0NbtxvJkblLmlhGiQdSA/SFwzkXJAYEpG9ntMpY7zi9OTH4tlrJe8Izcu5czhC2aAT2srfgXSeLOkmX505GuBrrp0NlWGQqZcvjmJMET8dDB1mgoPRPgYORgbD/3HXSl+Oe4+FPLhp2dzJoRfLNv6LOi4TT3Tp+PYoE19CGT0I9Dvwf5XM8ZC1Uuh4SDo4sZRpYLqUmtI9KInMO+HyuEHkk4/dApnBUc6fC27nTw4Gg8EwMDjEEJcHg24VhRUcjaDUwvlsieFUxknjoBHRFuGtiJ/zL47DO7vDaGzj9i8e0PUHRgANIYcRNkLxa4+GKlXeD1TH5Pu6+iUphNMEGvLsoPuJfNLio1Du3wef54Dntco3HCP+7SLy6jGOTekfhsShAQWj0pnDASPWKo6GsX0p0qGt9X57d2ZCkBNbxxx2iPPfd9Z3CHM0yA/TSmriexjS9JFUpiwjvC9yZhlpX4c8OA/0I6R7FxkG4dLu7IVoQsjfkNfM93pZCBRQv+YxfDd9GbkrnGFOqN4BstoXdCJ4vhzHDZ3yQSdVywTkNoflQ+Tl5a95crtMek5KzlWJ3Gj+GM+lwWAwLAoqBStDCcXeUE66VkKY8CbGhAqsR8ENQ6IIa0o2LtVgyTizPOdcjCNx/KSLJp4sm3kFAzo1mIYqHcMhhBGMTHOYfMYueA7bJO03oiWdg++zIJ91OrQhaaDMVG6d1rlP72yJ4QQnTQw8DL72Pt2E8++7lcWzPaeVozAM+G39+zh/GfLlaMSzXgxncEIDH3OaPgkP16CWpLE2F4HzdaRnqY3jjpIPrTV39w5EE3rzc3iZTA6jOSzuV7Jq1X3daPk88PtV8P9byO96cTY0DUyrpmku5Recvnr44rwXV+LeF1225708hwaDwbBIYMs9bX8USun8ak6C73EILepe5TYIMRwlXINUuUIhIh6OubMFFhXHQSF/Bs+f3bXfQx3BCNYN4fxAjUpoBTeBRoXd9aNo8XNyaYqWNo2JGGOkORgRcTjCuaS7WzaDUuXA8Kh5pD1C1yPODHJ8sudwOPTKN5l4Noz+GsRzqwxxadzemeoYt9lRkE2VLjXCfCa9AuxNKc+Fc5e4ZOz1Mv9iqrkI5L3Kt/ksJyqn6coIf0GNs20hp2+gXJ8k5V3XqvE9Q1LHkDaf5l65DEqdPAHRUeM96aHMT5WN2wwGg2HBEQwKleXK4gVQfr/wE0LrSl97NeRPgB7F1j91hxeUahj3j4szoZBXuijd3h3QMBcjGL/A72JgJh7YTR2ndNb4N8sFnfU7QnrF8ZCFw3Bkj1GXfAYnkSHC5rmEjSPlmY1fDlmucPuNP9xzVuVzv6i/HxWPB/Evjuu154bpQXxcBC30sPTyNijJvAsJqwqTxLIoZaT4B64hV8oXzl0TZsqfhcB0PHByaSt/q2sVq1zWPl8cqPpv1ZKXPj9nWz7U2VBZsmzoMB+cmvKHsqlf6AUKR4PBYJhHVEpx/+w/5Q+PpK0Ld+kcCipBVYSiDBuUWj8UvicFQ1K1/q+Fgv2541bq3YsQEYtnNAZDxSfH85PkKVD0/IvlRMjyxk6rvJLl3BjpIFM5BzFMGiu2mtOxC1zc/qrMcyE0nweXZzT2UBirfcH/ZTKspg6TxhPS0cvXoFRPRyROh95nfPn4Tbg+0UXtL8tGdPU/bjad8tENTm6Ois8jjb9FvtXLh8qBNNvyEXo2JDw56oRrzoOSv2fi+wsv0/XIGAwGwxwgdP36NROyd0ER6XbgHFcWozILZReI4WhYXpmGYRNprXLiXCrj2vz9dNOHKm0adq5RErdfDRl8F4YDDhXSHAyKGpJu49Iku36pEwaNP2TNeOhwJPk5yNf3u5ER7SnqvxWr6YhX3x/hfxbG6h/aQ8O4mJf1OGt8DEz4nrIITpKECWdDJ3/SkbkOxzUiR/52WvUWbIrGsZtnzvmJylcgzZyIrQ6+TLrtzIOZvYzr37PesVxkbd47CcdXo6AqT+ZwGAyGeUO9pcv1B6LiJ1BKOmO+PvGvV4H1TUFZ1h0NhEuFR4cmGzsTLbwvyuZudUU3bAt8KYC81w26zIEZe5L0MMTlmWJMKvl2G5VGGQ5A9TkcdDjEeMFox/kJLs9f6TlSHiuj3Y36M/7RMVruhPDOkrDItzhJPp4mHgYh5bVKf3BuJS7yXZ7hRovdEOeTRY4BlO9U/C99dPPNNT6Yvqj4JpyqC/QXWZSRetkIcmmSYT/UKRdw4jjJVspfeSPCzWp/p0xdJgwGg2Fo1I0KF8GSLv9irTdOqviDs9CkwPoifKuKkteqPDk+Lb+GcsOu4kOyPkHApm1E6pisuIviAXA6uFrlUUj/Ojcm8zgoW8qFsqKM5sioSL7p4lEyv4Jx5N+FMXuK56bZ4ei9N1q8BMbpaDFOdABC2Pob6izKBUjmZ/iy0eEXYXLNjHRsHZ4d5bgMehgCClD+Nv0ywnTUndLlrYe5KPs8ZH2aOOKUeagzKh/Wx+FkznIh9Znn3omhQ5OU/5R1Yw7xS91vLrI1GAxLCHVFF7d3gHL/jRgmUUKikHisFNagpEpSu8flnD0mMFgJDUnxK1zv2FFyRK+h21zQm6a0fIVL8h/BeF+rG76JvGlIKpk1yXMQCi3hYFhkz5JyLe7v6/atzYnp5a1eJtjijfIJ5FNYwyOEWRmuYUmMn09rMKSht6tYdS2e/RDy2K6Ln821bNTTFcf3dnn5QcjoFNRF7YGoHI6KmmQ6LVHGzDPWZ5G39i7q6qI/dln2LM8BsfnJ2WAwLBJ6FVxS7Alaq+PkUG6htT2UYvMkirHz1wWUG8NuM9zjENdrtqilk+vy5lohXMkxHhuDUb1BDIoYczEkNdnNUvbVNfIT1zQsnI/D/UA4l6QXdR5Xjd4XDso3weelnV9c6YAGJ6Ye16DUSVtIa6nhSY9aeSPOx1ySPFvkFFDnbXMHV8RN8p0hh5PgkOrcleA0znb4SmVfHbXX62I4ol/oGqYyGAyGOUFQ3jJenL4Uiv+X2k0OZ0DH5L1BaFBY/VD4VpQaHQ0YUzFa7eNcnL3OHXFEcDS2HCNSB1vsHKdvFSsgp8ukh0MNiRoVlePs80DlD4KTIC3ZVbx3ikuLN8G43NVzE/JAjzR23PNE5mmAL3EQvZMReiOa4uuHOjzVnCoepeyVlyL8veH8br1FORdNKMt7wLF7t0vHT5K/R3RF2kp2zIe6XAehEI70cOC6RJlIiiNcmj6pI/ctXf4Gg2GOMbrqvlA0e4Ou9AofhqWjmAZXaKHlFVqrPGfLTFYhLX7nWu23di0jXe8m33JQKfLW6ke5VvktGPR/6p8jIjfmQSW/unwHoWBUOL9CDcsGVyCOrL0ezsPPZIEuBfmp8VS+HN+cgFbvbdLrog4Qv1dqiqsf6i0X2oPmf9Et/4E4d3fL8//yXBBbnsGrG3k6HEnxYeTD6fIXECfMas8SjkGGzFsv3/6J+eDzA8QJqVF2CcL6vFu+/G4StzkbBoNhzsBuau6UGuV/1BasV0CTlVP/RCWmPSMaFhUkDVZUnOuS/AO11vSWrdDqTpbuofENyOeiSUMqkh9DGRQlCYNj9Tz3RkadSm7MtQ8M2oM9FwoulBXJ8t+6kJbyUeVnb/iDUD2cEJbOSfgneFw27VySLQtV2tkYaBX/C+fiUhkGY9mQDe9Cvg5ZNjr1FMQwtRftl25l+ylSNs3ZMBgMcwbO8k+KL0PJXOmXTfZGyR8HpWBE5HtRgmqwkuIyKLevuCTZysdsIOoKPcv+E87GHnAALhcHreNwUK5+CCP0CgxDmi9V3kr45d9w/VFxOolDVtzFpfkXcO8KnVAaeKh9NyxpOFouZHIi7smvrcXFUjb4p06AGbputFqPQhngZm5X6XBbcZvv4aioSeYzEb9Th2Oj/BkV5ZfCqdnFxQfd28ds+WAwGOYArfQ5UP6/guLRWe9UYMP+ZVApvnCuYabta6DQxm2nyUZQmVcKPW4/wrXyvSDPq/2QCsm3YilTGpgh84ckxsXnMR2JfIL5dIxrlS8Wh4NzaeLiD5pv4X3EPZt5GloWAmlYvF9O4DmcXA6djOQP8RIgFsbA0aEZhBYDIV4eOZ8iLn8A2d3iHUVuWoiywTIxZN6Q9Hvdhp4bCDKOVv7UTrzmcBgMhiFQKQ6u1JmUH5TWkvyOCsUTWku9Cqkfkm/lzxNec86BXzgo/6WL2tv4WK3V2oS6THQYo+Wysavd+IE0KponQpQv5TxkDwfD0DzWc20lr4WTMY4wuXLs90C36l8hfJfE72bRoxJazvVVQjlHICu5++gKl9T2bdGhJSsfASwX9eG2JH898u+P2lsof3WRWB66ZT4ISVnwc2e0J+tchL1zbTl4yw+DwTAwKsVRyKZabVFY0qshRmEWLSR+739zTdv+N8viAtAnaxNCF6+VuNRRl0srfyJoDM7AtWpYOg6Hl/OQ+RS+reZN+Pv55XAGTsH9K/T3ZB+PlIna98NQiIdHXstEx4lrXJRlLkke7VO8WBOF+ymLi1te6w4YJ4ymBVehvcpv3Obz0+fjMCRlAc4GnVD5Dba4CbR3T2/TYuSNwWDYZFE3aEn+Fiipk0TZaJc5eyMmK6NBSBXf7X74ZD3Oc7cye5yPcbEMyqaDLocjfQ6cgO/C+K+bZFhkKGVIA8M8phMhDoXv5ZBnvPb514mH782iV0O+D/EgHJaLYvwWlL2DXBw/w6d04ctFa83dwc/TXDrxCjdabOe47TuPdZKt4EER3onbOBZPbtyFeCFQlw8X30q4EixkKz1QlK3k43D5xO/oaET5bXKtQzQ/cyvzl/kYrd4aDIYBUDdk4+P/7pLsS1BSVzpudCXGBQqnVxENQto9r+tpyC+NxcnS7cvdTw2Dg3MosuzVkOMxIlcZ6qJDSMPA/BrSuJBCfqtDofdk4SgcdRly/86QcdCx6Dg0Eo72nkm5aP8UDui2C14u6uWfW+W3yjE3duDZ4AlU/AU8nt1FvEcqxs52aXEm0jTqWuPVXIZ6eAuJNWvujHq1M3g8X+qaNBRCmWAd9vk5OOmQDB2YKP8r6CMof9UiX4uVXoPBsIkhtE6oNPL8MWi1HQjF4pehhpJRZ2FI4+K/J3E8Pi6uh/L7puwWahgcQbGvXn03yPFtkOvpYgRkp07Jp2DEZ5FnNEw8IizJe9+VHpyPYcMVCmEKnxsq3ouT4Gy8UZxdYiENWD2ueNXTXFT+2n33Bxvd6oM3uomDNsr8mC7iPdCBh2zUMl0e7qLs+T6ExR0OTJKHQ44J5Hmz7sLrZa352JAfM5CWI3U2qA+ysZsQZtS1J81iptdgMGxCCM4GVwzN8x2gWE4QRcXuWCqZ2bSWw/c8LyaotE5Bi+ulEp9hcNQVuyxdnXF79wtcW34j1nyqU29+9EPhu0mOyxw5G2oA1YBx3kmUnwcD/7HaUMTCGux6XNyBl7sbk69qCLGHhHdd1Cwq1yFN33Fp+kwfwuI6G8uW3Rl8bw+Z/kXS0Mk/DrX15kUf1PkexGEzbTD8HHE8s5POxUyvwWDYhBCcjVbr7mih/Q+U0jmqSHP/C12DEuqX+C0VnSi+nH8ZLO+sm2BKajjU5bZixVYuyUcg2+skz8So0DB4R6EpTxaL1GjhHMcURlv4za9yrXy5yw66n09RVR4XCnV5ynb/xU/9yqWoA+S5IR0cWtAF0LgD7XdRb8JmZYs/0TmKHgreS8j5euk5ooNU538Yoh6I4GCpA3MKzt+2KL1QBoNhE0VdUSQTW7koHYXxuloWbtJW3HAGKxg9bcXeLt3RcXaiy/OXLbgx2RzRbSCfDmP3Pd/NTWOgMg+9CKFHYjEp8BHKA/mU+9kBbiR5gk/J4hiublluus5GiJd7C2XlTmgsnO4X5PONBuGb1J2emagahvEOYnEh5LK7Gx29r8RnMBgMM6KuGDkLn7PNs/ZtomjDxLAmBdQP8VsxMjjPx2+Fwppw7fb/87EZZouQd5xQuTJ7A+T9O5nMyT9UOstWCyEPZpGPsyUpB0I89/M0hMdfu1b6KkmDYnGNNLE5OBsE//SKiu9B1pyQTdnPoi53nETNu5TL2SNszg8xGAyGvlA3WK3iVVCep/kVKqmkZuls1FqxLc5iLz/ilh1bbQ1umB3qxiWO7w2ZfwxG4ELd2E56loLDsTScDXbDs2Utm4aVF7jR4r/dXuU9fAqIxTfSm4uzQbnG+VdAl0iPl6QD5WGoXi5fhuR7XIt+KE50afp0H5vBYDDMgKCgOF8jyd8L5fR32bY6Kbj75ywcDd+K5e+z2oo91EVjQSEb5gp1AzP+nYdD5vwT4Vo1hOw+9w5fUx7NNwUng+fshm9xUiX5yq8C7SubzC0F1GXINTM25Tkb9bhlifn8N+JsaB7MrjzwO+bjBIdEi/NdlG5vQ6IGg2EwtMYfCMW6G5yMy2Sp6rCQzzAUlDFb17ro1AbXyvfv+l1urluxqmRV0S8lWojWelD4jC/On4u8O1q7uznvhsZSKOTL5PyaLxLj1IkX5UmMHspFfrgrimd4+XQbyPlByItmVM/uAAfiyZDf4fI31nTOBh1pmURdrAMd0nGkN27krqi6M+p0NF+oG/+43Br8Tgi/LA+BbzoM9fT0SzJvA6RL5V8ifxDtN/4fPjaDwWDoA3H8WCiQEkplrSrRfHZjvByCEeNCg5dfCPo4FKENocwPKgPG5d/T4n2Q/1lu/AA1mDSWamgW3tnQljT5uF16zOL8TygTO3cWhZpPwzsMkuQJrlUeNmPPRnA22LORlgeDwq+vi41KnrKEefkF8Hy1zOXR4RAdWqunp19iuikP/pGSFFfjernbz+ZtGAyGQZAkz3ZJ/jNpqWkraHbORpyHRcHYkv0Nwn+Nj2meAKPFVt1SJDWo82tU60abvxYn+bdhDK+SvBSHjz0KQxqZYajj4MDZoNGmYc7GLsP9ZV1/MSw1Z6MsHzuws5GUB0HG1R81SwlxtiN4PAukdXkunA0dCuM+Kd9xo+mTfEwGg8HQB7jXQ5KfDKWiKwUO7WiAVCmtV6eFY9rFwVBK9clkc2tgiuI+Lsq2cSvTN8k48pKhcns3krwFvD1/wbub2a3PuQSUv+YDjAzyVg3l/PZwBKMUHA4xyigPUTnhwhblxEI4GqOr7itxcqv8KHq+5EXWQ0nxAplzQYc7bb8TaThe5mOEtDSlj/KkXDncGJVH4XpHfP9o6eFICoSDYxeloPZzhLhK7+rld/MczgcoV5VtnL8IPP8Cx/XSu6HO/+zqNodGmZ9x/iuk63kSj8FgMPSFSH6d/KfsyBqUSq+i6Ze063yD36b8RtAKF7cfIfFULf25Qxw/DXH+AIr/PNDJS4Li4kQYXBzzv8OJa7t49daddFMG8w0OWaXFm2DcThfnUedL6Dyc2eTtTEQHg46GnNMwsWeFzygXOGALse9JkC/jitrbgJ8c+XACeDga9HOX5kd1Ee/HuN8CRcVvwe/lIrOp5rnwXkijzmO4COn+FeiHOD8c946QYxeVh+F9xFP8HM7I12Gwq00I5x7VsBrnbfCX8yi/SXokwryL3jT1S0w7ZUOK8jPhxL1c4jEYDIa+kOTvgCK5Xpa9VmdhNgpJf7ETZyO/EkrpC255rHuhqBKcW2cjTV+MOM9yBxyii1otBaIypnJfdTBl8gu0bp/XMYLz7WyE8DmckpZ7QDbXyDLT9V+ZeZxNHjdRCLMzhIIywMmESallYHyBeneCQ8N5ISu5MVl5ojjRKZ0t9rAUtzUS/97RVXOV93BsTCup8w57jdiDdyvC4YTRBspvdekY478FdKRLkhcIj/ONsbGHog5+C7xdo3ulgOdhJ4iSmF4eZV5XcSEaETv4mAwGg2EG0DjFxYeglG6VseqmcepBiF3MbElr9/nf0KJ9n1uW3dXHNvfORovORv5nt+o7zfwsFtHhoIKPYFwW0tkIrVoek+QpkM3hrpi4RVeF9Q6HtHC94ZgrYphSdkgw2sz/YuImlIcfuJXz2pLvRt3ZiNO3S68KJzUGJ3A6Cmnpz9moZNgUVp1YH7SnD3UjP8a1shcKj/ONLLsX4voE4r3Er48xN86G/lp9uRstd/IxGQwGwwzI4Agkxael1SXGkWP7PUpmEBKFRAUL5R4Xp8LQbg/LFxyMuXU0CI5Lx8UZshMnV87UP2kWjxh/K9NWMpVylP/MjeTPXTBng6iGbO4MmbwTdKrOQxADGXZxnTtng2FVzgZ7tnQdiqj8Pe69ye0y8m/CT+BrPhGcDW4smJU7onz8XhwNXVV1PXhjD0OdlF/2bPDXXPk9V5wNX5ab0irpJDFcvsPv+P0UVNwqdSLCkc7f6ALNdaAM4vLN4OFvfrO+wG93mvqlIA/22iXFla6Vf3BByrPBYNgMUBxyHygkrjZ4a9dOkb2Kpm+C4mZrTlp/+Qldrbj5MDZ0NqLidOnZYJyzUaZzQWqkaLD8rqblEa7Vfs6iOBsEJ9C2yr3Azw1Vvnj+mvgfhqqwNFyN50rQ12q7uS68s5GOvQ08/EEnNZJPcQom8z/vBCdHZCJDLUfIRNWFQpy/DDycpb+sgpfZ5Du/ZfnWno1rEfanIGfdkM1gMBimxb7pg6AMvw7lsa7T1Ts7heSdDYZR/ArHZ/iYzNkgFq4lWMm61X6h42JV/CNBh7dm6VA2UAhTF3LjEvU/6Fo1dqHSvRSdjepX8MVwNp6LeniG9FoqL7N3NuT31+I6l+Zf6HImDQaDYUqM5A+B4tgTilidjfpEwmEoOBu6WuQxUPjVv/jmbCyOs7HikLtANu+Cw3E+8mb2vzc3Ucj3dIxpP1vmS4zUhk8WoleDMGejG/z1l4upzbWzkZTXI6yvyO/FBoPBMCOy7D+hQJbDKAZnY7ZGKPRscJb/kaDH+5jmB+Zs9Ics2wY8neSSdq3nqYH/YUiNkK49oVua/6YzfMb0LpSjQZiz0Y184olwMk/Wuk1eZpHvwdnQYZQbkJbdXbxa/zRTLFw+GwyGTQzcKlrWwuAwCpWIX21wWKJCp2LVzdy4Kqk6G/NlcMzZmBn8K4G/n8blVWp4hcc5dja8IRej2r4I6d7FrV5dX7zKejYWZRil3Bp0ok4QBi+zqR/B2dChuBtcku8hv1hXMGfDYDBMAfZsJMXeUB5+zsZsnQ3fnc6Z/nF+lNs/3trHND8IzsbEwapIaVBUKS4OkQddt8H/kQHjstB/o/QiLV4LZ+P3krf8BXY+tpynEepMDpZerWOQN6/0HCwc6s5G0n4r0hycjQ2SL/rnSDNJHsqfOj5NHHLw51U69c8bHsO1OpfT0bpF+RuFWNl+CtJ+SmeC6Fw4G+K4FNfDadrNZQfdz8dkMBgM0yCZ2MrFmZ+zIT0bVI6zUUjB2aDiPhbhPc3HND+9G7LORvlnd8B3a2sbcE2FxSTwwCEF2a6/PFJasgvpbNTl3CoehRboGFqj6zr5ksxi3L6JxAjJuZYdxpOP3+DiduLK8sGek/nr3aojOBtcZyMp34Ey+CdZ1IxlO0eesFU+HcnmdTCoUgd6HA1Ja+15cEqY1/yWx6lINqJjGMUvFmydDSJd9Uzk9+kdZ2NO5mwgrXQ24nxXFx90bx+TwWAwTAPduGsPKELvbEhLbBYKCQZHjRrP/w+K6bk+pvkxNuzZ4KJeq79T44PxLyaBB8qAa39wmeqFXNSLXdkhDu78GZWfBS/n6+qwYizoBOqxI69ZkoTJo/SKbRCHhgY+Ks+RtRgOWXEX4WchHK26syEbkeW/gQN4I/JgLfi8FsRjL/H+tWJAOfwnaWro1ZD74YhnsrZIvh73uCz/dbgPA1zAyeohhpuP3YRzvnMYwq7qxHwjHtP6MffOxlrc+6yUMYPBYJgR/HWNW1FzPFnmGMzSENXHxTlWnLW39THND5L2U1yUHgSeT4Nx+7+lQcWv5ZiUZ4Ba4PEJHUdrvg1uCH8jnI5k/AXg41hpWWuLXR3JiI7gLPK4iYIhkp6Tws9R4P3yZ7J/TRjPn+/ejZB+Oh3cBI1rfSTtg3Begr8c1zj2UFJmLuWz4lAY4wtFXpKmBodD5Ncx2BtclP0NDtVheK+N9w/A9YFy7KJsFb47BO98B/R5l048Unicf6AMjL0G+f3XeRhGuRr3PgY539nHZTAYDNOALcC0/XEoEb+CaDAaDcqmHwpGjMMJSfsvUMQ7d36BVEMwt8ZmzZq7w5htDXquiyeeoVQsLo34I8fm4/Kxbvm87vLZjFx+aV6O/LxaflWMMs5XmJ0j2Q+pQSJtEAMX55eDh93dimQrz9lC4Q4yQXViYisZSsrz/4Lz9XA51imOH6HzljhRunwd0vBr4Vuds8my4j06G3RIZPdTOCjcZK5VPsztnzzajY4+xrVaj+qikfSRcp87vo6WD3bj4/O9EJbWMa4OHBXvA/1TlisPvTG9aeqXgjy410xcXOGi9rsXZGjMYDBsJkjb74MSucXvjaJKqVfR9Es0MmwNlmz9lJdC0X/aHRTruO58OBuGyaBzF5c7IS/OVaMIJ4PLp2v+LISzoeWAk1GzMVyXZ7nR7M3z3qszW7AHKi4P131EfFqa03e7tO65yVqcj7lROBFLERwi5byKKLuq42zMdhiFR9kdurgM6X+Tj8lgMBj6AGftJ+XV2hIVQzEbhURnQ1u1aXk9jNy3peVImLOxMFhZPBtG5UcylFHNwwmO5EI4G3RueI74UQ7o8ET5QS5JnuA5XHpgC529UVF55GDORrFKFs5aimBPSlK0IPsb9E8z8j4HzgYn2qbF+S4eW/i/jQwGwyaMVvEatOjOll8E60plGFJlrLt+cmiGY9lcWIigs2HdrvOLbM29IPNvgq6r5h5IntA4zq+jEUjm/YizgfjYuwFK2RLOvtQ1hLAUykLggWVztHwm+D/SjcHZmGkYRcp3uQ5yXu1GOn9cLdxKqVOD8SsPUfYsyP9H4PlWXx/5++/s6naYi5MUJyL8bSQeg8Fg6AuyVkXOCY06sY9d7k2Ktl+is6HKmmPaP8f5i31MhvlAMHBcW4K7vCblKTqJT/IA+bgAPRq9xPiE2JJmD4f0BJzgsvIN7sQT7yT8LoVhlWGcDZL0GHlno/q9eyk4GxWi9BXg+URNB50E9nDNsmeDTgt7dGSvHcjLYDAY+gb3L4mK70Gh3OS7vId3NlQZ67wNmStQ/EUmkoVfEhVLRyFv6ggGm0cOA7TyI1yx6ladqwHDIhN+G/JpvknLgToaPLLXLJ+4CUbv+52erqVgnDcvZ6OKmz1IrezDKAMXSVoC78yP3jT1Q/yWZUmHY64D8c+ex/rYDAaDoQ9wJn3CJcvLq7QFOgfOhnyP1lTSvh5K6uvSvV/BnI25QbWmBjfUi/J9kI/X6BoXkg9LwNnw5xx6IF9xcaVrFV91WaYrT5qzMZeoeorGxh4KR2Nf8IwGBOvhFOnplyQPQTqf5XKk+SuyY7TBYDD0De7cGOefklaQzlqHs9GgcPqhoIyldwNKTrejPhgt28f52BbfwGwOoAyDo8G1Djh8EufnyOQ95kPE1Tx9fszH8uT9kpYFHv1ib7gX5ae5KHuD/Ha92NicnI1QHghd7O6nnRVtA99NaeqX+O34gTxe6OLsXW551943BoPBMAWCcmKXa5K/FYrzPDcmykR7JmanmDQM6c4v/uBa+VsQkzkZ8wEuhx5zZcpivRoW3zPFYZQwZ6IpjxaCqnJE2uD3KYGRLg9y5RIY8+91NqLiyM527OyN6SUt1xs6cxeW6pyNqP0BpOHP0qsheVBbbG9Q4vfSQ4b0TxxER/YchLvNkkmrwWBY4gjOBpVGkrwEivN31S9y3lloUj4zknxP0hZi1l4LRbWvW9a6u8RnmB3qSj5NHwRHbi84dWu9YxfyDucwDovpaEwm7d2Q+RvjV7o0/5orVtzHp6Q7XQuFECeP/HsjLo6RZeZDL8xUpPVkPRyQg5AHT5cwFtPZqMcr62u0E8iYy7TTKUKZoLMxZFkQZ4NlCef6V8uvHNckMRgMhr5QV1D6T/53oJhu9d2us/gjRQxe5WxMHMh7v5QdKOtdvYbhEPJt2bI7Q8YfQn79pbY2BBwNHMOcjUl5s0ik5cE7Pyhf2oN2mouznTrpWQxDXY874fokxXHuwDXg74CNslbMVMRdhrV343sw7s+QMBbT2Qj1isc0fSmcg//zQ6KhLs7C8eT3cDboJEbZdbhO3L4H2HwNg8HQJ+qKMY7vDUXydSilS3zrZRbORp0Qhiq986GwPuVGRu4p8S2WUt7UUTeOsuMtWpmcP1Afl6fc5yTv5pCUt8CXrtegy6f/FI7uU7vStZCoxxsVjwdPIzieAWN9smvlf3QtDgE2EHeT5THK93D5qrCC6OL3bLAeJ8WXQf/Qyd6hHndkPzlvZiZ+t0F7c/JzkOZdXMt6KQ0GwyAILSLO24jT90AhnaaT3/zYtBqJ4ZSUfMsWEbv3Sy6XfSQUePjt0TAo6oaM+31E5QTkeoOfhKtj8rPJL1LIs9AK5nk9vNmETeL3Ye4DjVdSXoW4VqL8PdynbOEdjgDupcJVTlvli12r/ULw9YIpie+s5PnYo1122F19CIuP0fSZkO1xLhvX5em5mu+wfyRJWZBv2Vu2wTcajkeat4PeuKPEt1h5ZTAYNjEEZ4PrYGRUsOXPpGej2rRLHY4mZTQd1bvy2aKVSXfFZTBeH3dFoeP0qqhMWQ2KsnwwnLZdId/L1GCLjIfLpzp1vvetYLmunYfn9fNBSL4TR4Pn/FtJ/+qIigsRzyc65UJh5WJQ8HfipPg05HmFa8tvxppP6tw158l0JHnsyxXXzGGjIcnX4Jzra2j+mLNhMBj6Ql1ZrF59f5eW/Df/Ft8tT6XDVk23EuqHwm+XdDio7GRoprxN9p4YLZ8n8Zmz0R/qeXTIIXeBHN+P/DlLJ1rSAIhB8MahJx/6JTEo4XuGReOC8Gm0GEfo4Qj5Okxc4TvllXFsEAMmRowrXY5zszZtMS/mkMSmiqi9DeT6K8hyvR8KDbLWY1OezEh0Cvkt9EGUXwn9sMwdWt7Dx2jOhsFgGBKpbEl9nigXXWtgOGcjkPZuqDEUB6Z9pbTKsyws8mUOx/SojC57ofKxVyJvfik9RWKkOy1PNSpNeTAT8Ttt/VYkxqW8Efn3T8RxveYd3p3txFMJI/RuSK+Z3x0WxrFV/gRxvUDSSiyGM8o4B6GlAlkrp/wG5HmTOoeU9Szyqvpug+gBbXyc4JKx1/sYCau3BoNhANSVZlo+DwblUCgWP9veG6FeZdQvsUUcHA62kHQ1w99CGe7oYyRMaU2FMMxFFMWT4QSscfnEOp0H442JGG7IuUn+/VAnDMln/T2VfyVFxRGulX0aZeBwnN/WiVPysyGcQagrTpCEXTLO1fJnVEA9/YZehHpzB8j0HaA/Sd5p/oV6N1y5YL0P36vzgnDabVD1y6vljcFgGBpleQ8omS+BbvQTRb3DMaQxqxuV0G3eXn0zlNZ30BqrjMpSaiUuFdRlsjL/L8izBcO8Vno16LxN6o1okH8/xG+DYUnbt8vQSVSehWfvdePjD3St8v14dpb88inv0/B0nJPJ4fVP3fxLuvKrXFosl/VDAsyoTUZHJigj3NsoLr+H/IETSkdD5Mr8aZJ5f6Tf+x5JcTYuQUPkI27FirtovAKrswaDYRaIyu2hXM4Wx0BaSb6V06SUZqK6YQrEJY+T8lKEuRuUVzVZ1ByOCnV50PBG7d1EZiUcQJGryLImV8q5R/Z9Eb5l/mj+ag9DPrYWZWA/cTSI0fLBiGMFnl0nhqfjJIRt5JvC7Yu8kyPhVBNG45JDN5/u2j/FykYFyiI4G8tX3x/y+hacjMs6k0IlL5GnQo1yn5mCs6GOBp2O4xHeSyROzQvLD4PBMEuszB4H5bIKyuUW/7cAjZkqsibFNBOJYeooQG0tyQS2/M8uTt8uv90SZlACKjnsN/4fkNcnYfzP63SRh3wIcg3Xw1DIFzor/IVWzvPDXDT2fM+BgkuiJ8URUg60W13zcTbxy/wNfh96aDiEI84M6QyX5B90e9rcnkkI9YS9DBHnWKFhoL2QKsNOng6bL/iODQwOqcnvrvn1oP2ld41QR8fywmAwzBJUYkm+M5TOBZ1VCKmEtNu+WUH1Q5US1D0y0nI96FjQyzsttS3d4ainnxuV6RDGKeJkcNKmdG2zp0mMwWQZD0LMj+BEMnzmSVz+zaXF2+VX6DrIi67Dcr46JQyDvRH++3q4g1L4Pjgv0qM2xnu/gzF9p8QdsGWXj6qHh/Ulzl+JPDgectJ5NtwTpy7PoYh5UCtfrP9J/hcXZ69zO+7YXSYMBoNh1kjTR0Lp/ABK7GY1dNIjEYzC8MostGLZhS4t5OJW18q/2/kdlqBC3RKNSr3FuGzNncXh42TabExb/OrsQXazaLWS+G1wHHnO1rB2wV8D2lOGTRQhD/SYZf8JnvaBc3i1d0K7V6ecLU+BnzBhtJhYD2fj14jz9ZDNnYUHYkssG711gn/tRMUPIa91Uo/kF3VfPobNh/BtcEBlvZ32dTgfh9P7MIl3S5S9wWCYBwRlsow7wRYfhiNwnuwTIWPq4nB4g9CjqPql0GLScHQ4RTZqg0Krds/c0hwOTWtIL1eyHC13gvE4AbLRHUalR8PLrFemg5AYE+QB80Ecjlwn7eYTt+D8MBiXp0D4Qe567JQJOEMj8dPw3k9h4NZpa9o7oZUT2RzvTCRhyPd6jLPbZUJqPr7ORdkvQG/oTE6sZBX43LzBtIaeP0JWCc0PQNm43jvsXnYsH75+DUMMo+OE4pob0sXZGS4t3uTWwPklQlkwGAyGWaGjTHAczR+D1tMhrr2KW4JTCdX/gGhWWDORKEU56ng9w6VRSUu0qstSNmsLqCvYzRuVAuf6I618ZxeVvxU50ZhEMLxizL38ggyHofC9ki5lrfNnfo/w3+yOPTYsqlWhMu6aJ9w8LcpPquZ41FrVTXH2Sx2+audhhdSkhMMBo0dHrMKWYPi6ne6oeDJkP4H6slbmaVD+Mu+F9XEWE3bFwcC36oAiDDiSxcRNcDRKF8f397EbDAbDHKGu2GhYovwjUEbnSOuXkwhDC5tKqUlp9UPBkOi1toxFccLhiMpCWs+9cwY2V9TlnWV3haPxXsjjdyITnUPhDYk3KsHZ65VpvySyl3OdbyF/GxQXuTj9nMQfUOeLqF+H36OT8jL5XofZlKfZ8BYo8Bj+sCkgh7RNfn8F+by1M6GY6OVz80KVNtaHkfJpkHMbcrnWTwit5C0ym4XsQ4+GlgsdxoqKP8LpeKvnwGAwGOYY2qOgio4LSUX5QWJUtDvfK7WaohuK+L1XcFR0VfjXgg5Gy+3FEn8AjcrmZFiYlnrPTVE8wCVj/wNDcgrS7hfQgpy01eoJ12oQhiMNR4+81omet7ooa3X+NOhtSddRv881UqIyczGcAP6O22v46vEOQxJGCBMkE4rH1uH6dy5NP9TZPZjYnMoFwfT0pikqX4qycAjqzFrJNzp4wUGYlbz5PcIRZ1bC805usd6N5iMumdjKc0BsXnI2GAyLDFV0qlh0L453QRmdJwawGqefpZID8XsNR40qw9Z1JG5Ci+pHULDbd7ViaZzrBnrTxGRDwi3K03IP0F/F4Wr6tXTodTSENAwaE17znC1jzgeJ86NwfKHnRHnr5S+g9xn34ohy/k10mxhAlgsxXj4OxjuZl/5Ivq+ln7yTZ8onyU93SfZ5V/pJiwFT8b0pgeW7ng7t7Xo96sdPIJebtQeQdbCnfDTJsG/q5JnO30mk/P3eRelra3keyGAwGOYUlWHhXwhxsRy0VuZXUPGHFnej8hqAVFlWSpMkBkW6c3/j0uJDLu+0uhX1npdNCeS7/vsgHTnZplxWBr1chwsok1yHlubMmNScDR7p1InRyriWxVs78yD6N9b6Hr/T+Run+14Shg/eEafwzfgm8dIfhXSTpNWNI/lnq1t7wC5E2HvJhNb6r7G9xnrTQXdPF8FyHxcfRRpPQPrhHNIJqMkllI8m+Q1CDCdCvgWHLuaCe+VnOnM1KmfDYDAY5gF1pc1fU5PiOCh6bf0Ew9WkvAYlUZwILxgVOhqy+ZM8+yeO+4Ke2TWnYNNEJU9up05Dn5RHgKpddlWukIs/n62c1Sjp93q+wTsG/8D5V92Krm3dB0cc3xt5twz5dqGfY1I5SsL/bHin88L0k3iNMBk2y4W27tfiuAYt8dfI4mebC1jOWd6TYj/QRVI2RCZ0CChPKR+U8fCyDcQwNJ/CX0+3olx+H9eP99xsHj1GBoNhiSMomr0OvQeU+ieg4M/tWuhLDMAsDWIgCcMbFBKdGhqwbOxqKL8jEff70dp7iPCzqaBJUbfbT4DMvgYlfzoU/C1+AqQ6WmzB1mXQJKd+KYShRppOgDpxMXdzLdOuYYhBDUr9/ZH0kUhLgXCD00S+tYdjNs5Gnap0eIcM91g+iokbXas4Gfe+UJt3UmFTM5RczyIuPiTlPWtfLQ5AvUejUzZmMURFqjuy4ujjHrcR4Kq+o9lObmTk34Sf3t4Wg8FgmHdwsliUZy4fuwGKsFKAHQMgSrBZufVLnfCgTGmoaLy4zoc8K09DPLFr5W9B60/3zehGfc7BwhuZEHfFQzdoSPL8vS4tDobRuEiGpPhrZyXHuTHMpGDo644G8yyFExAV33P7Z8/yXBHDyaqexlb6HBiqH4gx1BaytsK1R0L5aOJzEAoyknBZ3kB0fHVjuvPxDhyebEfX8nu61FHlycKXC0W9XEzmgeWZOyHH7RRpOVPkJat30gmt1a25KCMiQ5FflTfs7SrGr0T+rYCj8f88V4spL4PBsEWDs+I5qZBKK7TGVWF5I9Cj2AalEJYo1to14+J4Mrc+5+S1pNgdhmVbl4w/3HPWC1Xs1Rj+fCnN3ngmIxp7KIzxq8D3vjAeZ0nvgs5LqctP09orj2GpbuRp+BlfymGJ8ldutNjOcxYwnGyY3nqao/QVLsp+jZa4jv13jKTno4nPQagKS8PT8HWpbvYOcUXTpDwRTt23pJzuXzzAc9YLzS9ttc9/uZguniR5OPLl5Vqeiz8gf9bpfBpJbzUkFcoHqVcugxLlFnUcDa1bSbkeeXcInJ7ZO6EGg8EwJCqls82yO0Ihvgt0pnTvUlFRKVKJzYUiDFRXrGKoqHg5aRTxiXIsuOLln/B8Hzc69ko3kj/EtVp372t9DjWQw9NUTkUdHHfnkA93yoza3wTvpyEd62VYSNKI9Kix5Hl3emdL9bDozPDvlnwc98pTcP22zkqcc2VsgzwYLtfBiMs/uXKVDoPVy8Zcpk+dtBCu9tzwWZh3EMEhjfNdkQfPlZ6O+l9NFeppD/naS3XUr3vfq38/NShzllP2Eo7mrwSvyyVf4sJvCyBlm+mpLQXvnbZeOQxDIq/gBKI+SXlEHFHxW9zfwXNpMBgMi4ZqtjxnqXNRp7i80rVlhUcoMZkYqMpsNr889lJH4VI5UglDUVIpS88AFTMXAivOAh2I9z6MVuLzXFk+2B0Lp2gqhNZmIBqJfil80wQ+P+CAe7p49dYwuu+ATMbgUJzu4vZVwnOYmyHzGWgcka65mugXqJKXOhrs4RjjMEN5jhstd5GJqYHX+UB80L1h6HcBL2frMADiD05V6G3p5XlY0jLhiY4oZEoHR37DRRlMxy7H8UQ8XylLbuf5Y9z4sU1Oh4L5yr+F6mWi2ZnoLhOk6coFQSc4TR+E8vtc8PPfoFXg7c9Ix9UiF5Zn8i5lQsqHymku5RXKmuaDlj8O40XlBbj+kFtxiDqhmkaDwWBYNECxekXEpcw5Rp6NXSfGLAwHVI7B3BoVTpyUoxgudWyonDnvQfduuQXvngVlfgzeiV0r+4S01KLsWS6KHlpTpHOLbM29YMAfhXi2gRJ/l8vYi1H8CM7Gn3C8QQwuKRiSMNdgPmQk4SEOXrcYB46yv8jYhZDJHj3DCvNnUBhPlO6BNF/kf6WsORw+H3v5nw0xzE658/FQ3iwXTL8Y9OJElKHvgJevuFb7rfJ3FYe3Qi/PXIMbx9HpTcee7lrFa+DsfNQlWQs8HA2H+M/g5ybZ/I7zTeiAilx6ysVcyknD9Uc4M6yvEwdxaE0330sSXbxLHSqDwWBYZARlxFZcUjwbCvIHaEn6xYZEqQWiUpus9IYhVZSewjUVs1fOfIfGJUwW5BBLlJ+H43Euzg6BI7A3rndx8fib4QxsC2PzQjcKIxDHWyO8x8rfFJy8SeNDpctud67ouXr1/eVc5lzAoUiSJ+B9Lhn9AtB2LmnvjOPnQVwn4yd4dir40aWkaeTEwfD8qrH1zkCQj+d9LqgTnoSNVit7f8BH2r4S1yvEOVxIUK5Rzl+Wr/a/2sLh4B4vc1w2SCHdcs3wIWvKmwaV90J+6LuXg/6I+H8Ah2w5nKJdcHwLvnkZvkV5LreWHhCWh33TB7nRVfd1o6P3ld48lgkSywSHQfiO7I6MtHK9D/aqtdKXI51vgGPxYYT5LZS/g/H8WMR9DuK9WfgQ5zM4GJRFrSx3yrenkMZZUYiHMmLZgLNRwtFpH3CdS/LVSJP95mowGJY4svaroSh/BmW7ToyrKEtRnL63o1fxzQH1KmMaFirQ0P0c1mGQIQtRtDeCl4tx/hfcRwu3/AWch+/DEIxD2cZiFKP82+D7G6BleO9LCOMLQnG5K4zKN/DNiGxKlXLJ6OIY3D8Jx3NBV+D9WyVOHSIJPGq3vvBJHmv8zjV1yQJH/nGiE1CvBt8pDOKTfG7NP+rGioabe91w6/qOwyG8zqM8mN90NFgGca1x+GErXNfzKWK5yC/Ge2fhmnMWDkOZWIUwWnh/Tzz/sovbn0Ia/gfffc5lxRe1TOS74p3d8WxPHPdzKcoQnYqEv2fnv0eZ+jPO/4Hz60EaXyiT6nRyIqsvG1I+50kWnkJ91Dh00bwMDYS0/J5rZWH1WHM0DAbDEgb/x4+K10JhHwtlFiacqSKtFN38KVJSUNaBaMhCT0LYc4WOEBW+vrMe79wMI3IjzmEQirW4vha8XoPvrsI1HIj8cqG4uBLvXY1naAUWN+D6ZtB6kM4dYbgSNs55rzIi3dTE91wQw+4YcDGw3tGAgU/yMTH4YS7BQhmTEB+PrYknQn4TMLTXCl+SN14ewQnrTdNckco95EEtX/Csnnd0AvQ5J5ZqmYhKlIfyCpxfIsRN51geUhxZPqKcjhz38WG5uB50E665dwudzFr4OJIXyRtQKJdzPVdnKgrpDWlXp4/OzmFuNNmucZdfg8FgWFIIxot/XoxmO0LZclt0v2W5n00vLSqv8JuU4VwT45Gllz11jIx/Lq1MGAHyyO51TpAL8yoCcShGzvEsnPM9vt9xXLwRqVqmGldwNuo8zQdV8eq5GjEdOkna18GwjeFYbde/sK1WnTQZ0Bp/KozravBzozpC5N/z2zGEtbTNBwV5Sf5IHvlygft8HpwD8sf9eTrloFY+QlnolA+es1yAJpWLEGeIS5ag1zjrfM0Xadq8jOW4wQ91sl7+EnX21W6Z/0PHejQMBsOSRl1JLV9+Nxe13wkD/1tpzVH5hhZ3aF02KcW5pqBgO/dE2Xrng4pWlG1Q/LgXjN4MpO9V36nSrsLqjm9+06r81PnTXhYxJu1r8azdtWgX82mhDUpvfPwLI/RwkE/yKzJlejxRdk3pnSvqzRfJO+8ESH7yHJR0yXYG6i0XUibqZawWn8Q5//VA5Um+lNiLQqcoH2P6foV8eIM7wq8QSpizYTAYljxUUamy4m+FUf5uKLjjYVTW6QRFKj6vcDvKzyvFhSLGKd33VMC8hoEI3fk0eL0kBoSE5+Hb+j1eS9j+Oak3zvkiiR98CJ/+nD01shJpfhUMZRtpfJrkB7EYjkYd9bjjVU8DbyX4vrIzgTbIT8inqSnd80G9cfbmcTiG8/AsnHfd99fiMIkjos9645xv6vDneQhOaD52M/j6JXh8m1vmfwtf7LJhMBgMA6GusPiLKWf3RzKH4zZRdNJqLdnq0/PFUsSbOlFm6mQEGWqPCg035xHEeQT5LvwcjZkQ+JA/mPhHTxt8FpcL3zLsID0Amq7gRPWm3Wh6UvmB5BzEXhqcU8ZRfhuc/sMh59fUFjczR8NgMGySqBTXcm49zr9UykOlh4PrCcjYNZRe6OUIyyX3Kk2jBuo4F2qQpXueBgSGmmtJpGMX4Z09XZY9zudANUlzaaDbsCVjjwb/y1w2do7Me9AhlTD0wLJSpbdRHkZdRDlFcoQceQ4nnw7c2IF43uZKu9+VX3LD5mpaV5dS+TAYDIa+oQalY1RwTMsXyy+B+cQ1ovhoVOS3PyhCOhvSiu1RnEa9BIMrDgbOg6MB4mqkHKbKxk93UcZfNB+hcge68mGJoJcnWfAq/5TLylOl90t7wDRtnda5ORt9kcrK1yfUr+CE5uOXuVZeuDR9jpf60iwbBoPBMDB6W9SygmcZo/X9T1GMHKfnXAcqxs54eI/yNKootPBlS3EYFM6B0b8e+Ksl//75oMv2qXbAXcrGpJe38fH/cEn+XqTreJeP3eTyVbU0++GU4HAEg1qXzZZK9frSKR+ZOvPytw8cDi5q18q4Vki1YBdhjobBYNgsIeP04w+Hs/EZKMWToAhvVYdDejm02zcoz2BYjLwsvIGViYdwNjgRVIYcuCZI+QMY5B1cWd7DS3rTxGoOuWWvRjp/5KL2dZI+7QGjEWVPh5YJcU69A9Irqy2JmH6pM7WywXt0Qtk7xPU+4vw4lI/3T7PrrcFgMGymyLL7uZXlG6AI10BpXi/zOGTJZhqQTis2GBmlJmW7OVOVdjUkumaH/p4b1n9Ii/Nx/W1Zu6Iag9+0sWbNnd1I8QwXlXugLPxZhof4d01Iv5I3rnQ6tuCyoec15wvEejR+EN5rcw+YEvdehrJxTy9dg8Fg2ALQ1W2L81b7OVCGe0FBniGrjXKCIHs6VHmqYQkKVQ3uFmJYaExwlHTTiIgcNkhvBh2zpOSvi79waf5x2ZMjoHdoYlNCL++j5YNdK3s/0nqkDBNx3kH1e6w6XWF9kS2mXPSkU2XBybTqgLL+sAcsmzgR5WaZGx2rlqbflMuGwWAwDAwOpdTncnAzqyj/AIzrYaALpdtcJgiKg0GHgwrVt9xwpDKtK9zNhYJzIec+zZJ+OF2UCVeqpLGJy7+h1V+4uL2tOzG7k5eiynVTNybkv142uBV71N4Gec89Vf6G9N9WW5ODsmF58OWiJsvNjaRskDrlQol1gs/Z85O2WVf+7qLsEDea7eSy7F5eiuZoGAyGLRZUfJXy4xbcXHOBf1JwE6yEe0xAicp8Dhy1C50KFgo3OB1yf/MhDgeoQ9VtWPQ5jzeBjodR+ahbkWwlhjigbqA3B9TTw3PutJuWH4E8uBDVNS6BYZXNzLxs1DHtldnmQUyPlA1JW3XNZ52eHm7yVvwGx0+5lfl/wdGonFCDwWDYwjG5pcWtu9Py5XA29obB/bMoU7Zkg9Klo6Hd52pUggLeFFu3HccCpOnQ9EQ+PZw0qwt0rXdpcSKu93ZF8RL5a2MyNrdW6+T07Id0c5nzuPwKZHICaJ1v0VOeVbkQWQbZQs5SbijPHvkvVVJeld/gWIeyoef6Hnv/ZEXe8hSk+9uydga3vzcYDAZDA5q6eNk6i4u3Q4kWLmufiPP1buJg73jAuOhYPXs7JnelqzKurpcKBUNBA8jrymliGrTnhvdpRDg/getMpGMn496Ii7M3d83NIFRmm5uT0YvJZaPVeqCL0tdCZvvDGT1VZMYJkcEpVaPsy4acq9wlD0hezkuFhD/fOxOuQ/nVDQRxjWdhKG0CaeVuw+zlSsqWrNDbak0uG71yMxgMBoOge7yeEKcjfTuUawllC8PbvqozkTTstUJFLEa7M6G0MjKivL1SXxSiAakZEXEwwB95FD7JN56FHhz5w4S7tJZ/wvurXCt7l0smtvLSUGyJhqQpzUmyFWT0Hhjj1ZDxiZDnlVImaJA7w28sB1IeAnWXi0UtG57EARWeUCbqfOJZmL8UJscm5eUgprWFcvSGSWVD6485GQaDwTAjeo0K5yasWnVfGOZXgkahiE+Bsr0ajsctHYWsSlsVNifK0agHp0Naul6xLySJwRAnSA2c8CLOhfJFvuk46Roj60FcL+Msl8h28G+UeRlhkyxiS3QyetErA8qHE4yzbFvk835wPk+FDNdC/uvFERUDDfl2ejvqeeGJ5035N98kfPgeDPLFcqtOqJYN/nkkvBU3w7G4Crz+EeVnHxku4VDajjtWc3aILb1sGAwGwxCYrDg56S3PH+Ky9gtdVv4PFPEhoDNAa9Vwh9ZsR5lz5cSwx4Y6H+qEeEUv97q/mQ3VwwzOjhgz8hD4wLPAK0mdjAvw7pEuynZz+djLZLik2iBLYY5GhSZZ0Omgc5YUL4HMd8fxaMj87zjeIr+EBqeD8mc+cL+QSLaRRz7JtS8XzLtaPs4FdcoFe+B47p1NLZe34R2WAR8fywb4FT7zq3D/FNAq1yo+LL+Jj44+uGtisMLKhsFgMAyNyqhMVqRs2Y2mz9Su5GI30PehrLm2wEVQ6OukK51dz+yCpvKWiXQdBe8Vfkfpzw1pq1TDDE4NjZwswLVqoxs/UM/pHLEHIy6PwnsjLk7/28VjL3Jp+iCfugpNhtWgmEo2XJ8jyraB/N8LWS9H3h8OWf8ZtFbKA/OB5aPjhIRhOOab5GWVj3NBk8oF4qPDyfjJD9dN4bAgHc+ouBB8/h7vHwS+v+DS4rW492TZzHAyrGwYDAbDgoGORxw/F63CnaGgd4XDMQY6Bor6VCjwC0DsVleFTkNDJ4TGhn8yUNkHoyMEIxB6HqQrG9/xyBYnw5B7nsI3wWjQoWAcDD9MWNSeiytA5+J7OkOHw3js5+L2hxDXtm5s7KE+FYbZYCqjmx7wIMh5G9cqPwj5Q+6Qf1L+AQb/L8iHy+Csrus4INwckPnHfJtULkJ5YDnwJPOF/L2wdDyPU5YLhD/BOKRcwBEprwU/fwf9CXQs+JpAufiia+VvxbOnub0alp4358JgMBgWCFO1aDk5jntrlOXDYEyeDWfjTTAmX8B5G8r9V97AXIzj5VDu17gkvw73uXbFLbgHp8C3PmVCZzAiIDE03pgEZ4SOB1upOkxzq4QTI7yo4FySy3B+Ee6dBuNxmDgXSfEJtzLa3iXJU2SPCnaFd6eB52ZI5gaTZUl5U+5J+ylwEl6BvP8gHJC9kOeHaj4VF+HZpbjm0MVa5NmNON6KfF4P0uE3GQIDNTmkLA86RMP3WI7oZN4i4UShXLDcofxxCfY4PwrnOZ59Qf4mGS2fJ5Ohjz3236dwKKxsGAwGwyJhagVMhc15D1x3gNutx/HTpGt9NH+jjH/HxVdhcEag6A/A+aEwBL/A8Xe4dzKOp8E4/AXHc0Hngy4USmiQSu5Wy/ucK/JHEJ2Yn+D91TAg++P4ZRib98PJ2d5FY893rYknuhHOM8nu5dYsu7PnrgmTDaRhWEwvS8794V4h+6YPkoXkkuIFsvlbWrzTpflnkH90QsZAh2n+ym66/P36DDgH5yGP/6nOJMoCV3ONi7+CzsK9P+HZycj73+J4NJ79EOVpAufsUdkV7/w34nkdyuKL3Eo4nStX/peUzxUr7uL/ImmClQuDwWBYIgi/zPanlFutu4uhaRWPgiF4MpyQZ8EYvAgt1JdLqzduvxq0g2slr5c5IXH5ZqEELVA9vh4G6jWg7WQp7TR9jkvHnoTjI+XPCBqPfkCepzYyhrnAVL1gTaATUhT3kZ6xHE5iC/naKl8MejnKwSskz1vI+6h4k/RGcO2TZOz1KBNwIPId4Ky8St7j+632C1GWnomwthZnl70qWXZXH9NM0PLcL98Gg8FgWGAE47LUlHXgyYzI4mGp5kHgi0crGwaDwWAwGAwGg8FgMBgMBoPBYDAYDAaDwWAwGAwGg8FgMBgMBoPBYDAYDAaDwWAwGAwGg8FgMBgMBoPBYDAYDAaDwWAwGAwGg8FgMBgMBoPBYDAYDAaDwWAwGAwGg8FgMBgMBoPBYDAYDAaDwWAwGAwGg8FgMBgMBoPBYNjCcIcZyGAwGDY5bGpKrM7vpsKzwTAI+ivXGzda+TcYNkPUDVz/tGzZv9Su5wLd4Q9L5Iu0Zs2/dmjHHf+1c38uFRnDCuHOlur8zifPARu9rJpk2Etzy8Pk8JsopH1mNH+/eDQTmr6ZnoL8Z5MHoaw2hR+okjmvZwfGF8rwcNDv567cGQwGw4KjUqybijIjn3RCNiWeDVseQr1qBMrtyMi/ueWr7+bK8h7ugAPuKUdej4//u5TvZlQOl8Fg2ARRFPdxe6ePdK3iUW5k4pFuBOczUdx+hLy//9ijXZJsJcpjLrBixV1clv0nwny08tMQdz+U5/8l4YzkD3Gj5YNdHN8fiuw/3LLsrtMos2FwB9dq3V1ksBJxtsqHSbyt1sMGJn6Xg1+G1Wo90K1adV9RxFTA86Fgs+xObqT9/1xrNfIR8maeNsmSxGej+WMkjXF876kNyQxYtuyObgXKm8gK+ZvOUN7I14oWygH4bIqTebliRRVeUxgLSZImHEeRd0xrL5iG1pq7u/2R1/uMPqYxjF4K+RKXj3X7Fw8YqiwwXuYbw9oP4UyV17wf0tAafyDke2cfQr+YzNtqOBGsh1HxZJeMbefi4u0uzj/u0vJzuPcllxRfdtnYl3D+ecT/SZeOvcfF2evwznOlfOyT3U964AwGwyaMQw65i2vl74ASWOmSPIZCG+2PipVQSomLyhRKYjcopyf5EGeHkeQJCO+bLm2niCNySXtlc/zTEL9Jiv1wvhfC+jqOy3ANRVZ8FNdvcyuzbXF8MpysB7gRGHMa3WFBY5e1XwjF+RUox30Rx3IcGe/eAxP5TZD2uPwawtjVJdmnkScfhOJ9M5yYF4tjR0NN52Y2PAfQAWvlO0PBU86J5GmTPGPmAanIcb0X0rq9yw67qw9lMNDgJWOvRzj7wqhoeWvK4849lDEpB/m73TI4XUTd2LJFHGVvENknpS+/U6VjHknKHEjSxPiRZ6Oj9/VcVkMfy5b9uxjRVo4yWWadb3vDq1N4nrTbLsp3cWNjD5WwiJkcj/A8g5PNfJPyWZZVnvbERd5FjjniKz/molpcg4D1go2YPH8qwnkHyjfL9cEI/zc4noN7V4Nugf5Yh+t1OMexuBXHtaALcH4S6sJPcN6CnkE9KF4ijQY63gaDYRNBl7I+8GGo7N9zYwdeg4p9LSr5NVA0fRLeT9tr8Q2UQ/rRjjFQTK8Ep0KreBUU0AWumGC44Kcp3j4oEmV2JXi8AsfLoKwuwfGfCPMsxHE8FPePXQZlz1ZVK3mNtJz7RV1+Z6Dll2T/g3D/ivARZ/sqhHmlxD0MRcUVCOtyGJVLEc5FItsoPx10LM4PcVE6gvR9CsZsWzcy0j/PTWBLOc73B13livHpZZ2gXGRjMATFefjua2JI+kVdXmzRx8WeCOdqiZPhNsUXiGUyx3tRutrtuee9JIx6D0cb+ZaIo3YV+Js5vPmmYoI8oNzB4WRviyLMk4AzPXJPpB8t9/xPrr0KZbwhjCYS+Y9fh/Pfo4y9240c0V9PYpA9ndSo3APhnAc5XTetnHLIMUL+tIqfgtdnyPfToZ6/xDgcqqR4gZSTtPwJwvgr9ATqYXEDwr8NDtlGl09shKxAq6rzEuekDM/j4nbQLfieaUc9yH+HY4I6u5Nr95T73vgNBsMSA7tI87FXohKf7g5co5U+Gx+AoBTK1aoo4jKtKddugzAIRvMdoOiucasORtiD8lOjvEZBkY0doPyKMis3oLV8A9L+Dyjh/9NenfQ9MpRRBxVZrzKrX4/s8m9QhJ9DOFe6NsOnsuyJf1ASfkEML4SZtjdCLmz9wSAU5+L8F3BAUhiEj7qR8mmeG4XyN7MCzsYfh7BKlyHsccRDufTKUcjfp/wiGiQ4C1WrfWbU5bW8hHNb7A8nAnEeqOmdFF+N2kh7G3kW52vcfvv9h4RRL1vsnZKeBBgnvlfwu6nSMZ/EOEHjB2leJUVLhiUUOsmR4LBYi71VKHervzNz+gPxPZaJYpw9Ad91ycRWEt5MCLKnc6g9Z9dUed0kJ9xjPvMYl8e6aOxZ8v1UYPj1/GWPYVR+AfH8HHQR8nmD1DkpwwiTsiHFyP8op0OxAXSbP/L6dikb8h7ep05iHeBRez1Owjsr3WiyXVcvRy8fBoNhCUEUUPFVKPKLpDJH7XVQFKBifZ90KwjKQZTHzxDeS3zI3QZmEIwW2yHM8+AEIUyEPRg/FcUwzDTOgRK5R4UGJQZlRp6p0IIyS3JcF2fi3f3Aw0tknDmgNy3162XL7uyi7GMI91xRklScUQ655OBjEPJ8skuZvCttwLOa8gXRCLA1SIdE4isvwHcH4vy9cJQeN5Dci+JR+J5d57dK2Jqf5KWbWsLXLeKURMU/cY0yE99bA+kDdZ44dh+X33Jx+1oxJhHl1ZDHLd4DMY0RWsN0itgrQNSdDQ4FceiJPSXh3ZbIsju8+Sfm161isGU4IN9H5u8oKmeDwz5x+S7QWZKPU6W/i/xz9grQQYvycxD+G/saUgiy53ylpNgNvF0oec1eg1ajnLQs8HlS/BhOzlPl+2ZU+cqhvSh9BXgcQ926VBwMOkisa3TsW+Bdw78N4TI/1bFQYnz1az7HeyXrrK+3CIeyFccT8sjaR7k4e79L0wd5DobXOQaDYZ7ByWBRcSgUApSkKH6t7FTa/VBojej5mS4r3z90j0bA6NgroUwukBaqhts/P3USpcVjOCfBcGsayTcVGOl2UYjBmCe8bh+L+zvBeGu3fS/qSo29Q2m+C8I7X50YEsLu5WcmCjyGczoZ2vKr+FUlDeI3nl/mmzh7xSW4bsPAvdztBYPWDxJO7i1bCG+dbzk286083OYdQBircpmLDxrO2eAcAGlhlzf4ODX85jiZFzyn0zXR6GzoMAqHZdb6dys5LiRJnOBTnEAaSM4hSR7uuex2NugYct4CexA63/aEF0h6ACRsXIPooEgLv2iLszgTguzpHKacC1RcpL0WUpaa4t3gn8NhKn4Kh/Dp8n0v6nnK3po4gwMl8zHWqQyQF1LXpI4h/8Sh0LQGmhy3kjz3ZZ/XUg9ylk0tn8xnxpG2z0G4X3Kjow/2nJjDYTAsSXBiY1ScJl2coVKHCt8PqREIBmEtzveBgb6fD324ij9XzsaUhPDEkFOheaUmyozPvBIrJ9iaOkVaTvuhRdiLerrmytmYjgKfDFeUd+CZBgg8S1c8DEQxcT1awb91UfsD0ms1E8zZmDuSOOfB2Qgk6UKeM43ZGOP6i4vS7SXM6RBkP5fORl3+/F01Kj/mkvx0hL9eyiLLJMPReqX5EWhyfNNTSDfrLc8ZJu8zHjpecfk33P+q/MFlMBiWDKpxzWzNvVBJP4qKfKkMI0irw1fkfqhSHjRQt4uSjcvDQFt34himl2PenQ2QpJXnPs3ifIB4TiVM50sdsD9Bib4F6Zh64utCOBtCdCw833WexWkSvje6MT82HhdnwACAp9X391wS3XwT5mzMHUmc8+1siBy0riXFLYhjeWeohjKuyzkg3JsrZ0PD0zD5m3pcvh98/El40u98mexQb/hDEMu9J6mnjANHDqtIeS/P10na8fTl3WAwLBgqhRStejyUQhsV+QZ1FKgYUIEbK3sDBWVC5cTWNhUnf1fj//Hh3/wm5TcThnE2VBEF5VYjaVXhHVJ4v3be9a432FToHBunTESR5T91o+nzPHdEd5oGdTaEn855LX4S+KXjVn+niXpbi3xfu9o3iEPAce18/EyZPFr1zEzOi83G2ci/jXf4Z5S+S141LZNJwhU5d8fXROKQds75TRVGPUy9hyOcDLa4ZZ5BtgKORfOcjeF7NnhUZ4BlLc7/6KL0TRIu0VTfwr25dTac/A2TtV+NcvdbMfrCo8yt0fKopHnYCbur7PNan3dReLeHut/T6yi7Xcok62lanopysLOrfgmfLAuDwbBgYAX0yqe9LYzR8ajct1UKHRW4qaJPR6ogtEUX5RfK5EEusjQs+nU2wv1exdZFMBBsAdEId+75llFTeNoiwzUNB9JEuSTFdVBie8gEuIC6Uh/U2dCWWeC3mW95x/MZqCmsQMI3jvqu8k2HI2mf6FrtnTs9M73GaHNwNtia5W+mcXE9DCPf1ffFIWsiPpdzHvlus2x5P5SHwEuH+HxSuDyiHoiDehsM4X5uvznu2ZAWPssFrsXZKNa6UTha+xw09dBluJ7rORu8H5c/wPs3ibMhk3jBW+C1N2y558s049B6yfuB9BllSCckOCL1MLrCCrLAefhrJS5+iO+rP7N6ZWEwGBYYGzf+CwzoB1AxL5DxVVW6rOSTK/ZMxMpOpaxGAQqn/SNZ9XFYDNKzoUrHP6djEMg/F2dBzulscDa8KilVcpPD7YQXlB+MiPZuHAWj/UKRG1FXYsMMo2g8df7UePC6c48GM9cWsypVfkdePI/+OxKvgxOjRzUY5Sq28I92o+UzPbfdvG8OzkZRPEAMO/+eYJr5x4zIson8s46z0BBvhyDLTjnw5/UwpiJx8shvOuL2jR/huZy9s0HieyF/2QMmRr481sWoM2FV3N6hy/lwNsTB4yJ2cPBkwqqEQwdvclpEfuBZZUnie/puqK/1cq/fs9yr3JvKeydcCQ/P2r6xU1yG978mMibM2TAYFgH1ileOPli6ebmCHxUWK6wqscmVeiaSSs9vofzGDuT1mS5NX+xjGhwD9Wx0FBgV5w0gXZSMs/Xj/Gac3y7KUIcVqu+U6udVHOGajgmvQ49N3P6iW3HIXYTHuiyHGUZRJUqebwHd5AnKHc8ZH/mVXwdxTsUv6aSMQcJXjfdOuHzmSfjHUebi5NdBnnt1/SIYsDk4G5yQHHM1zuLvMLxX490r1OgUl3dRlIN4v+SiaZQ3wp8i7nr8es3zmxEHF12jQesOW8LHfVLavgbhXop3viELmBFMf+B5ts5Gx8Air1imo/wqhPWtWn50z90I53PqbJSvQ1pP0fIJUocg8OV5JfEa9+vllfnJOql6h/NOwD8XskM5pePBdVWkrna+6f6+m1clOi+seww3Kn6HcvBSqZdEr/NlMBjmGfVKF2XPRwU9TIwHW4JUMLN1Nvi9rgFwGQzAh92hvnUxKPp2NhAflRCVF1fbTMvv6dg9lHxSrIDSaYHGEdYPcf1rvHO+fCctMX5fU2D1OMK19ILgmuFnY+tx/l3Z74KYrbOh4/p/A68H4Bsus42WOZdnH1uFb7+P+4eD32PBw+m4vqazsFVKnpFXdd6rcD3flItcKw/qrJzt8nyHTus3YPNwNrgM98tdkn3JtZD3UbG7a4E/HjvU5nE3N1p8Gce9IY8TVY5TxD0pfjgbSXEyrvd3o4yn/VXE8bWuOBgnlyDXZblxXrwKvOmv03PpbFSGF3mFo8iQC7xlz+rEMZ/OBns1WLeyMRh4vuf5anI26o4xHQkp9yUbAafhGcv5qNRX9kboMuqrcPwVjpeKXtL3+T1oKv0Uwoc8KE91vr7WWRHYnA2DYYERlA4rH/cqiItTvSInqeJprMx9EA0cSXsBboDRb0PRPk7iGxSDztnQVtApaCntJAqGq0xyD4Uoeqis4DiaPgnPt4Oy+hxaPEfjm2t8upFeH05THLwXejeoxOLiOMfN4XoxiLOhcanjwEXQWtkLRXlzw6tk/OFi/PP8iS5Nn464XoL43+cV8klQ7td2hgjEEUI4HUU7KQ6QV87sIWEvCveKqeYQKDZVZ6PXmHJxq3HkOw0qJ8T2Enml4edvmiwTDEsWl0LY7LVQaopfnTV1TFbJSq38A4P76XD576ni4pG9YHVDF3iejbMRSHiT/L1Nh21yLmv/v53fnXvlQ8yFs8H0RMWb8OyP6vx6XrQ8VmEJf0L+HPKVfGxfCpl/B/feo/Uy2Uo2G6TMuMGcbATHfYvacNjy0xD3OnVofFi95V3Chxzkfrle+E7Ad1Qc2TV0aDAYFgh15SMrCeZ7oKJeIcpWKm+PcdTK7StxOOd9UGjxN73fMeL8KyV/mY9xMAzjbMTl72XCK7eunow7uGOPvaMoeW6AFbfH8S0cIh9GU3oChV4CMQr5yXBgtpnUUhrI2WB3PI7qvHxvkvEPYH5xx1BukqdzErZxKTcjg6HohOXTHxR6uF9/TiMtCliuTxFDUcfm4GwMCjodXJqezgbDZh5PFT/LP9MsjslY3LUc/6AIPM+Fs0EKjrI6Q3Qmj57UC0GEeOfC2aD8k3IfxAfHF++wnDNvJumDQAif8pUhk/IS6JsVoCeIwxYmqveCdVWctvQ9COu3Eo6sXItwep2aQHpfyy71QZRfDPqAjydg+DJjMBj6RN1AluVjUSl/4MoJKBtUTlbeQJ3KW1PAUsnlGs9AnUrv3w2kYWwUJ4GOTKt8f2dS3CAYxNmgcQ/OBvd4WQZFNROi4rVIw3FISzBkVNSTwycxrTyqc8ClzN8EWXb/2TG0s5H/QLbz7xet1qMQ/5cQz98kHmlVSoubvE2Wkd5TPjSd1+P73TsGm2BPDbvEtyRng0NhSZ5B/tqzoXFPFb/v2WD87Vycs2Exp84G+JJv/JF7psi8h+JDsn19HcM6G5zPxeG8YkI3YqMOSctn4v7R/jnqh8ioIQzwpc/0PG3fhPSODSQ/cWyKD+O7C6QMMFzGFepknRiXykLnscQ5HKVsb+ndrDB8mTEYDH0iOBtsNbTSV6Fy/lE2jFInAuQrshyl8lbXrOiq8FmJ/fv+Wb3C632dEyHrDOT79lT2/jCcs/EHnG8vhp/g3AQqWaabVJ+rwI3WuP8JF0WSb+kYgO+p4mCa1Nn4K+J5V+cX2KDEh3U2kuJHbuV4NdTEP13qPJNCHAHsatYx7svVwMAwTKXwhXfvjDD/sjavvwfir4Ea7ubkbPDe1FQ525RhkheQoXc2xNGYKv4w54VyKWr5pWE2x6XUa9z03tw7G6zDUld4DQd2tKd3I8Q7rLORFM+W75XvD+LeOfKHFmWi+qP+rSfhT+d0yJyw4ncubu8g4RD18l2n3nKfyz46qYvKG3U40OfJ5PiCLLS3SntcDnVF8QIJR9GdHwaDYR4QKi/nM7TS/0WlPF+dAvkjolI46migQvPcV14aoqCYmloVgVQRaJepXOfHwLBvK/ESgYeZMOgwiiraP4Be45Z5Z4MKqw6NW+PnbqVxuSvSco13NqaPg887zkY2d86GrgnwWAmDmE4+9fRwhdZWfhgMQtgwi4o15FktL3HOvJRWH+LlfJq4PAX3394Jb0sZRqm/z3k9cZGD/PoydMimiJ8GjGlmfqb8ps/8akJ4f66GUUj8Tuok0kEHIS0vxf2PIX+1HhAh3qGcjfJwnOuurzT8HAaJ8qt9vWGDQssXy149DIZLYv7Khm75HrW/oYIzNjXCcy7QxUZEVPzFr3I8tZw0Tl1jJqFjnf8Z5++UcAwGwwIjjh8Bg3kglMONXuFMVrT1Siu/k0IpcpfJmItbyXN9p/5Ndb8yVnH2NyiZD/qY+1fO8+VshPhlp9v2F12rUKVZD6uXgnOlv5D+2WXlmzs7bYbwFsLZIELvDHejTfOPI7yzdQ0Qnx+BuuL0eULDovl9IeiLwjMxmj8G1xH4MGejKf6l7myQgpyYv+oEHAiH+IkSFxHKzTBzNuhshF1fuXU8e+PYI6hyW9/wrZKEi3fYq8F0sm4O27PAzSLj8lCEqzpJe1Oa80vLuu+NKq+HU75rX0OrBoNhjpGmz0NlPc21V1GR+lZJT8WVVgpaLapwuH7AD/FNhvt/qowzjfBUFd63tOiopOW33UE1o9SPgp4PZ4PXoSudf6rExZ6gW7S1T56niCM4GzQKUXGqbH/fG/ZCORv1ePP8qfj+UFWqImvyOZWc1NkQA5FfhzSNwvDoHhLasxGDDzgbIm9zNurxbwo9G8on8833XhVnuzj97058wzobsmV+fjj43Vq+byWvgQxOxnP9prdXNJDwhHqj5Ym9I4ehjD5FwhgGe3JCb7kHwrxUnSnm15RlXXUa+VdZrHTlodUv+IPmmcFgGAJcjyDJ3w2lfZnM19D5F1pB6xWW8zXobLDVHMGwRMXXcf0aF5UHy+9u0lppdDa0S7fTrTuO8MsfOs5mD4ay11A3oV9nQ4cHvLNR/gH8bd9xNupzNngeFC4hf6RwLBrfqtJtNrDijDEtOOdiZVFxAvhSxVvHQjkbdWSHIS+9w0SDqXkxOU7GJc4G0qHvrUeavu/a7SdIOMXqR+E9czamin+TcTYk37Tln49xrsUBiIf7smgdIIZ1Nvj3CNHKPwg5XKbDrzT2LFcN3/Me64383i1rXnxD8nxYjIz8G/TWzojvZD8fTNPKvOmNmxSBN/KvdexAt3J19QfRoHlmMBiGQJvdkbJmw3W+0lJhdFfUoChYoaksouKvaM2/T2bw0+lga0EVFY1mt6IJ34beElE23Ka93AkKr7nHoQmDOhva2vk90vXKGcPnuHOUfRNK9xL5VsOeykgjHd5IZ+P8Y4VGWhcKqmNhnY3qHdmxt9CZ+sEg98qqkw5/nzKNi9+4eOxFEkY68UjcN2djqvgX09mo3+O5Es/9df1dliv/DidSRsUZLs52EkMdMPAwCspE5J2NZRv/xbWKL+L6Zj90N9W3yhvrpq4mfKEbTd8jzvGgCPJinU6KFyCsX8pwZtBPlENj/JAF81XnpB2O8vZ8hDJYXhkMhlkgLV+MyneCKE5puXjHoKui4jooETE+xa/xjRqmVvYJXK/147Bq7JsUjoSb+2GYknMEviprGxD9KOhBh1GUz9+BtuvqwWBcvKbC5aROWSgr/zbeO8+lY0E5w4j1pIPnck/OQ3fsJZDDMrd6+d06YQcslrORlW9APMdLnJz1r0p4Cll5g6o9NGe40fYOosRlPLxI8Nycjab4F9PZqJfBXuo49f5dvU95heHPa0CJG6v1KAzrbETF491e4DlC3YnysL3BelDvdxUxXPaesq6xXg6DesNhBA5PUh6mDgzCr6e9K14Qn7FnlWUryv8P97gLdaUXDAbDPKOVvwMV8TJvVFRhTVI2vKZiFSW8Dgp2lSwqRdC4yWJdeE+eT2HceE9+QZPzWxDnd2QiYsBMSnrQng1VjH9CnB+QXzlb5cPkF8XW+FMd90iIinfKbHi2cug0kHc1YBp2IIYl53IkwQjhXByD/Di3Mn9ZRwHW07AYwygEncBUJs6pDKZ1Npgu5AnjZW9VVLxNZvpzkSpxNgpzNpriX+xhlCADnpPXcI989X6j7zL/OHdjg2sVf5HfTYOh5UJZAzkbshLnTyTN4+MPxDXLya21b3u/Uwr8TXCotjwT7+vfLIOiLl8pp9mBEndnjlIj7/4ZjizP2rP6LinrBoNhAcDNqqLs66h86/0QCgjGqauiUnl4g6XG63K887VORU3HnoSKOwYFpDssqrNR+94Tv6fho9KS90o4KNm2HaU301BH386Gj59KOOLmW/nRoDbSSUOyCmF8F8efI00nI22XdVo76gRpmCIDpoHywD06AhI+0kjFzbCzsetxvqfL1mjvDFFXhIvlbLTyJyKetvCuilXzrileldU67QIvz4VM3iurkybJw3HfnI2p4hfZ0sCxLCyws6Hx8z74k00Fr8X1LbhWuUjd67yj7+u9DbKXTlTwmz1dMrGVxMvexUGdjaT4sVuZPU6c+Lg4GDyvm+Fbxqv3ZRi13TzPqR/U5Zse8CDwshJx+j9hGMcU8Yf72gNzNmT3camjBoNhnlCvrDrmeagYQ1ZC6Ybsraw0uDBKrMw0PBGMdAutguAkcD+IqPws3rtl2gV25D7C4RLPYlTzi/DNh90B+J6YSUkPMowS4lcli2N4jnNJB4xZmGei96m4aVz0WsIO33bC4zu3iZz4TpT/zI1k23juFPU0LJazQaOti5OFoR7yP52svLMhfH5EhpY4idCcjaXpbKjDzmec1HseyuQxoEskr7X+4pk4y+E95Vd4RbqS8jZ890dc87dTJ/VvYGcj/7EbSZ4Ax/apiOsw3AvDNFM7G3If8Wu+/VyclWFQl29xyH0Q5jfBzzVSxxjHVPHXnY0o/zv4/pwMpRoMhnlCvQeBGx/J1u+ihKisoGDrFRSkFVgNsxrnNTBA+o99QFq8CZX5oi5HoLHSIxw6G9LiztfiXsulaX9Lc/frbJDq8TNtgXfOYeA1j/oeDYoaFVHSQvpdCIPyECeJQ0CiLOkwnSnDT1XLiAqw28gs2jAKd98svy3h6XLVlSyaKGKvlrx3AeiTYri5mqrsE2JzNhrjX0xnQxxf8JeUdDb+Dzx8GfRrOIzkNzgc5LH6ltehx0/qHuVWfFP+0mJjIZEdai+ewWFQZ0N/Wz1UetD4B1eUHyV1Q581lxMSw+w4BOVhXUOog6AuX/bKcCddLsmuYWv4TfGLPPCcfPJvujj/SmdtHIPBMMeoV9RPr7iLbH8dFdd6xU0j2l1RRTH4e3xHlAlaEr2VlEsXy4ZPUERamadR1AgjGIqkfYKL2t29A1NhkDkbqnQC/+G8TkH5BkcDJNd18u8iTF6TZ+39ORNG+COyuydRd97q8l0sZ4MKOMpgPJAe7bHQ9DTFS1nRoVBn45+g/5UxfE4gNGdjqTobuMeyKJOZj3Nx9jrwoX9SicEVvtXxCN93wsGRE7kpX9myPX+RbMDIydpxP86GOCq3IJwfwandGmG9ENe/BPk6PUU5IbGMq26Ak1R8X3ZyHQZ1+bIXLsq+jDJwqS8P5Hv6OiZpLC8FfU124DUYDPOAYBh5pIKMy4OhQILxVyVeVzQ8l25bPJdrVGrugxAQKv7+q9ASLvaGcbpKjJMuZ95d2UkMS428X2govwphv3vG+RrEIMMo9fNe6hrbrn2nLUH9NihqHpmecfldj+sU/NytzN8rS5srupdYrp8vnrNxV/DJZdeHcDbKz5mzsdSdDV8fdciSfx09E3xsh/u/kXzU8o38YvnuKuP4jt/iHtOXtK9FXLvKb9u6kR+cDXEmZhpGQT2gs1Fu7ZLxl+D+r0VWEuYU5VtJnY1Y9lb5rsuH3Cm3Ll+W9Sj7PPi50Oso8j1dWfXORnE5GlrfMGfDYJgvhN1WObkzyV+Piv/7LoPU6YKtVVDeEyVEJyE/VhRbQKj40sLIP+BaxT/8oj3NCqsTT8cQQqGj0nMTrJkwyDDKbEgdDZ6TTxie8nIo0hNxHkNBvVxkF9BrWOrXi+VscNlydq3342zQwQrORgRnI2l/WnpGbBgFYS9lZwNHWSof9ZeL48Wr74/82gfn62SIMMioy9ngPXwri/Pxe3FWfuha7RdChl/A+bkDOxtp+VIc+Rtpf86G/IrN5c6LQ1w7foSke1DU5cut4pPyswgPZdfH0Y+zwYnhUb6HORsGw3whOBscp03Lz6Diny/GRBWMdr1OqqSowPxThatMJvmI4z4qAaHis2eChpiTR8vVQdE1K2sJE/el0iNsbh5GhTcTFsLZYPpDzwuVZ8QtqYtjYITfIguYBTDdTUalfm+xnI0VK+7jonQPSceMzgZI/kQSZ+MCl4x9QowefxOWCaLmbDTGv+jOBuKXOlme2Kk7WfYGXJ8tLfwgm97vq/Lte0byP6NO74H8/hbunVHTBZPjFWdDnuswSp4/0UXZNig3v1Y5eJlN/k6JYaqzQQf+h64oHiV8D4q6fOlYRyUcpfwiqWOsR1OVVXVEQs/GxeBjN3FWDAbDHEMrqVbU8XH+2kjFep1XEtP1RPhWVHET6KNTtuzz/DFQOt/BdzdJmFrpm8OkwuM536PDExXv86FMjUGGUWi4hYR/tub0Xnje+02gShmr8mTPRlL8FErySZ6Lbjn2oi6PxXI2uIsmh7SYlrAi7FRpFrnkYQn6v7nR4kNu+fK7dX595dLU5mxMjn8p9GzIkEl2IuqjznkiD3ExjmO1tw/zt/MdzgPvlJu28K/G+a/w3qE4/k0NMdPdUG97nQ39xfoFuP8L3IPM/LeTv1Ni3CpXnv8UzvvsJ4jyT5q4/VXwf5nG0aezkRT/wHdftAmiBsN8IMyLYGVN0xejVcIhFO8QQPk0KjavILQ1gFaT/12OYDjcxCz8AsuN1ZL27qj4OtFMDLUoru4wSezKpTHkZLVkbJ2L2t90I0dUv6E1Key+nQ0Sngl1rpk+phVHcSa6qet74Y33VGnFxd+RbqQr0lUXm3gLqD9bLGdDFjpqr5Tw+nE22GMlXeowclzojL8Ddhb1WuCejRacjdicjf56Niij/I8dZ+MQtNK5BUBc/lN6Lfhu6KVjWZBvScI/04Z77K2kwyG/oV9fhe/f7yY/jOL/RuFy5SsnODH8SHzjnQ3Irolnktz3uiQqj5IF9oZBXb6y+ikX5iuulLAlrVPEr3OykG/iMJ0Lnj/ljrBfXw2GuUeopGy5tpL3QhFdqBMfSzgFuVcGkyqoLsAVya6gmRiE6RDTISiOVyMnyhrUGyZIlB7ipLMhXf3lIWg1Pa7DY5PC7r9nQ5+RaDRoSLlEMhW4Gk4+h5Hy7/SGo9/rO/zNVeer/AMy+qBb07q756YZdb4Xy9nQtQ8OkPBUsU6tgOUZ8onlIGGXevuN4jyas4GwNwVno/gjZP5i+Z7gbr0sP0n7Zs37BmdDyz3D1muWTRmCCPdAvXEqdTsbrK+jXNAv/xG+Wd+fs4Gj7GNS/l6+HQZ1+fI37zhbgTTdMKCzcZrLyve77ERbQdRgmDcsbz0MFXRPKImr1JGAgtCu1cmVlC0Weae8DOffgpJ5moznc9EnHuvnyfjDXZRuj/COFmdDlQ/DbKj8jA+KkEqdzkaSn4QW2k6dIZqmv1P6djZEweIoPTYc+rkQx/PkGBc3Cl9qqPQ9+caHVSnj8Mx3N/N+dqRLkpd4bppRV4SL5mykr0IYx0i4TGto3fbGKcoX/DBeOmTcjj9rbythcG8UbsTWzzAKy48YIWkd7z5nwyjkq4lvzRtzNoKzwXkTAdw2PS7+G4bXh+G/DzyH8yDbzrlcV8/q8VXknQ2/gijTzHISFaulnEiPBfTFVM6KxrfRrTqYdewvrtV+jud6MNTly4nMXL04bSMfGIfUo8kyC/EzX1m2ouK3eO/Nbtmxd/QhGQyGOUdaPg+V7UhUtltVqYqCmL6CxuVNUCSn492f43gEnv0M555wnhRHIExQfhy+gdFpeyXmFWNj2FBeNOxizDjmmu8hE76IWTkb/r62ws5C2J+Hs/RStPh3xv0DcA3+8JzpEuMP/noNMs9JYW6JKtKbkZ5vyZ83U6GuCBfW2ajeaYnBOkvTx7DpUDTKirwEfpDP5eFwTp6uYRTVFvM6Tj+1s0HjrEZobns21AA28c17Pc5Gn6vQ9qL+/ubgbDiExZU5uVEaZSjpYNnuqYf1cHneex3Ou0mdDToWSfETGPrHyV9kcRHhmS4XrkOnTd8iXBLCnpC9Uf4Gnl45sKyI+jeUe5L/SOUl5aGZdzo5rMush9J4yo5Cw+ilff1ybzAYhkRW7gRlcYkYkTBfIxjVJmIFluc1ZUXFUie57498P7SS6t/0khpYDlVQga1HK+lAmZiomKyE+nU2ZB4CjvoeWjD5y+R7zkXgRM+0+CQU1J/UWJCHmjGuh8lzppvhkUe2/qPst0jTazo9ML3Ksn69WD0bydiX4FzpQm0a/hRGU/LUyx+OVML9Y/y8FHbH81ffgXo2SvYgDd+zsT9aqVGba7Xc6Lu6NfymOCkv8q3d9uOdno1BjUc9/s3C2QCWjf878uTzePcC7yQzDM2/pvD6p7qz8VNXFI+Xvzn463pc3Ozj0l7Spu8l38AL0xaxrCCtoXExCIK8eEy5xkh+tB8OVn3SFDeJ8bMeaj0+xK1cyTkjVVgGg2EOQYWWll+Rilf9Fjm9Egrv8DwYMB5lOILE8xppeNOHSRLlQEOPcx2j/60bTbbrGPIw8TRgGGcj9lvMh19+Cc674EqZcY6wONzTntrZIIVhFRrAtL0WCjWVPz6IXiVVv14oZyM85zE/4CEIbwKKX42xKH7P/6Q4ofgpf+ZhUmrPUui1Yc9GlI+KYenX2eDE4NHi652VVftBPW0yDFfuC778fIMpyhDvBWdDDF9ZmLPRA1nRN/+xNiikTmo4gffeMPsj72yU68Dj4Qj3CYjpDrj/WeTDjcJPx3FviEPKG0j+fCqvwjffnHEOWBOCvKgnkrHXI74/+Hlf1CVTOBu+LLGsy5BhGcvKqQGD5pnBYJgB7Cbn1u6seKocaHB6KmaN9LkqKraQwvX01Gy8e4nPtOdggygALswTZf8j60QQy5Z1j6cOOoyiRvIPUEivkT0gFKpUuHphlBZ4Fnar5DdTG1Smib0gdE6i4iSZFxGcobqiqp8vlLMR+NgRx7jc0cXZKapQOZRFw5TjvJbHmp6Qpg3esJ8lv70GmbdaD8N3++C7W/3z5rH40JpUw3sZwthbJu31i3ramGbd/G29DqN4AzEpTs+/5tsNSOOoGGrCnA0NiwuztYqvwqhf6+XEd5HflKn/vjfcmcnP2YCzwWEa/vpKxOX7Eb5uBCd5Rrkxjp7vmZYwbMqeEC4MtjJ5ioQxDOgYc6Vc6g2Je5r8Ij/kjc4GNxeMit3dsbX5GoPmmcFgmAFJvjMq5RnS2pGWoVTCyRV0oYgGNsphXKiAoBjjdiR/Qii6FcCgzoa8h1YPhz2Cs9HpLYFykTkc+enyrhgXGJleeVBBqUPE+7dpq6y4Gvf2EYNM1A1cXWkthLPBuMNz9igkJXd7vdo7WnAQvALuTpM6eTxS+fLdKD/GcVG2gKJ4AN7dA3SLN/xTOBsSdpg4iPyDs7D//v/pQ5lZidefc/JxUh4kcqAhn6pshnsSZ3456BswrneVMGaKrxf19zcHZ6NeFtPxl6Os+jUwmB7OzfJluTfM/sjnc34r6HDwqVvEt5LX4PxEPPe9TTPNAcORf3nRweW8jWHBIb84X4Nw1vt4py4v6liH67NR99/rQzEYDHMOKrW4/AqUzc26voVUvO6KudAkigDOhir39bjmdtkv8hwTleKeK2cjKHfuOpmUGcL0y3V7ZdUbrtzjEcZbh41ohE6SP2+UvzpVmE9ng/c4NBSeLVv27/jmzXCe/gTngGExHeATx0lxSRqVD22p3gpZjLjlq6seCXYxt6TVeLMaNf4e3RNOIIanckH+ZYfC8FfrJzTxXkfdOHISL9dsYJhqHLUl3hSfOCTI37g8F+98urM400zx9aL+/ubgbDCsEB4dxjRfhjCu8Q4j5MYy3hNe/xScSjgbJZ2Np0k8SfspKN8/hF7RTRi5G+1UekVlF3pVbwR90WX73E/CqfM+FcLzD2V3Qnl5BeI80/eKskw35xXTq6uW8pqT0n/iWmn1u7DBYJhT3EF/LWyPi+KhsxGx8vlKuVgkipNGBUZRxpcLrmfx3s68jbrymWtngwYqL9+B5xf5ngD9lk5HPTyZRIojW4R8pgr3Bhjjb7i9Ww+UsObS2eDqjPUFj7hwGnmmYVb+q94MghNfR7jPTfsYGEm/qZoYysnxSFxUwDSSKAPki8uU83fJOjjxL8o/A7q1Mx7eFBZJ5e3nAOV/dPH4c30o3c5EE+rPuSBVlJ8G4834GFbzZEOJD7zrgmWID99NN2F3eqrFL/uLFAgT8SL8BE4l09UUP2UrhlXyE990ORuaP1NRL8K9uZqzoeHdwa2BM8qeg7g4FXmtvQ7igE5RLmambmcjyp4l8eX5Q1COONfmGu9EsAcF7zOenrhC2WNdF+Of/7Jr1+em8k1UZV/vJ8lW4GEUYV6vvY10oppkJfFpnNR70usCXvnLbEBTnhgMhgERKtKHPnQnKPHXorL9n58UqcZzOmdDn7ECz4Ymh1unujIgXwk3eYIRb3kjXlcEc+Fs9Bo/TnKT7bKhQFVRNjkbXlZQnKqscI/ygyzjeAcf0mQM7WyUP5AJmjOBypfzI7hvS9w+SvJUWvs1xTtJRkhDSKO8y3TlP8D9Z/tQFew1oQMS0YCIUa/C7CV9FubdXAT6qMuW6bAGjZ7mYa9CV+cpYC8Y2ij7OtJwpRohyoOyajJW4J1GT+alFD8V3kM5mY3h2Ce7n4uzHOF7Z2OKMqzprZwN9obw751hEXieK2eDCLLdJ3ooym4L4VyrziD4bSrf/ZE6Gxxa4zBKkmiZ4eTctPgQHLXz/E60kAnLoOezHobUIZFZuLcWZX05jL/2bvQDztVIi/ch7POkzGu4zcNDIj86PzhK7w53rW5/wB3iN2Cj7GdTZgwGg0dQOlw1lNtIc2dPbZ2oMu9t5eh9Vaa9z4alEJZU/KbnJCgE4YuKPl8D5aOtpjrmw9mggm/lH4RcLhAFH9LcG7bKJMgs9G6sc0m6z5Sz2ocfRvlebd5KhY1srcLBYCtedmblbp381bQ8BYZnnXTrqywZD49VGnhfHCYYgOA4yWRX/hVQfqQzDFFHnO8AOlUMr7SK6WjVwuyEzbgQLlur8qdCfpQbHX0eQuhPiTM9nHCbFL9COjT8YKy60uD5J5Ef7XFJ3araBnmzAbfWl/1gkE7t8emOv84H5SvzSqQXJHHpxCN9KINjPpyNEKbIduw1+OZUN84w8d1U6ZqZas5GebgbLZ8pcTAurt2TFL/wz5kvqCcNjpo8Iw8+b3Uo7G/49kvg9X5SvqcC6y7rcVy8HeH8Vr6XRpMPqzdNeo/nYXXTW12SHelGU+WbMEfDYJgDaEXSyjTeeiAqdBsV7hbfclSjWa+cWkED6TMqDyoEHgci/40YKR9ePdzuOPlsgzfIOM//jOu3C991zIezQfmMtJ+AOI/qGkpRJdVNvB+RPx++tuKOg5LctqMk68prIGfDx8nWelQcCWfjRW5fbqiWbIWW3KNg0J4gLcm8vQPC+gjC3Qetu1/g3Yvl+9ArU8m64rN+rc9vk7Sm7Vvw/U8gUx1774WsYcCVIv1YvAwvNOShOgU44pxKPeHS0fkE+H2BD2l60FjG5ffgPF3ve1u0bIa0hDSoUanJr30Njp+d1mDsMvJv0hJurQHx2EPsUVm++m4yFMWVcLkapToQTA/j7k4rKfCmMiGv4/jmyShbd0ZZuKuE2RSX8ADiHkB1nsP5XM3Z6IUMD5UTyO+btT5KuN1h9kfVMIpuTqgLwBHZQfdzsh9Pfp2UAXFovI6ppyFcS94iHeSHYcoKv+398e2b5E+xkV1q+yShzvJX83jsZQj3y/gWdZoOBL4VfSHlJPBYkaaTzzf4jSSvRJxfc/vv/wAJd7IuMBgMQyFUJv7OmGXPR2X7lRoZqYjNLY9QcZXQSi0ugZLnpkV/H4h0efB/4NvrcKSBUKWgSqg3Tj7T56J8xm/C97uL8q5jlOPPc+5sODE2iSixi9Voi5LsDiucc54L08CN5MShal+Jb1fI7pPErJwNKF8xtrK64gEgjoPvDxlmiBfGu/g+ro/D8SwY87WSPjE4+D607oIzECg8043veM34g/L9K87fIcaRqHjXI3tXknIE/FzrnQCd+MfwJvEu9/VaJ05e4+Lsh7j/UdcquHz6MxDOY6UHgBNz0/Tpso9OUnwCzw7F8TqJQ3lVWYix8GU0xMGyJMYJ97habZS+QnhtAnvzYjiCcbmra5XfQLi7g3bD9bIOtcqvgZbh/pfhYOyNfDoR95H/NGQir+60VrzgPg03+c1OBi8jCGdXF7V3cy0YtHocGg+PykMKeaxZcy/PZVUm58vZ4D3mc1ScrkNPEq4/NqRvaupxNpCHAZxnERVvgxxO1U3gKBvkVadc+jCC7EQHoLzwOZ0T7SWirjgBz1KkEbIsd0HZQfnIP4f4+JfVzxHGJR0HpROWlIvAYy9pfWMvWFIej7BeJPWSMGfDYJgjhIWs2OXOrvKoM6bKCspZ2b7SewqVl5WZv6PGBX+RXYEK+iko4c8NSJ/Bd1w8jFtXX+mVw+Q46xTiFkULY9s7lDDXzkZQzJxIx25gLrte0tmYYpEvva4MIhX+mMjzD0jf8xF2+G/fhzuAs0FiXCobxC9DFswDkn4TlCwphBeVt4EX7xyJ0u3lF7x6fhlOirBZBmTjKhjI8fEwwbWSR5DRfvv9B8L8MOjvqqzBC8NRA1LF0RUPn4HIqzwrLsOz4/HdwbhugfbD81HcOxD0G1xfKmmRCcsSrqY1GFQNI6RLn6vjczNk9Q03Wj5YeA2oG9s2/y7JubrlFYif8uTaDjfguxsrkr1zQHINJ1f+pND0dfFQI33u35H3NGyufNoJM5x74jP5FTmH3Iu9USd1giL5DfV0vpwNQvedKV0+cVtXuE3hT01T92wQsgJsliN/qrVrNE8b0sB7Ijtfn0AsM5q3Wj7jYi2O1+IZnBDkC+uzTiLXcsAwNA+qOMRBrd3nn2Oq864Av8uGWrHUYDDMgKDEuElaRCVfXtVpoTYpASox3pPZ3azk5SiU4uPkzwROqBqEVoA4Bp60d0ZYJ/vJaVR00xtbtojk3RytkOx1UJ6VczDXwyh1xSxrVOTfxrvX+1bZZPkIiYKEcuRzHGXYo7wC978pQx5EiGNgZwMUnDG29sSp8ERjLAacvLE1SmUb+ABPlUHuCbNzj/GqoS5W0eljb0LzxMr6PXHC8l8KDxpet5KvxxOutWx5/smz8Hor7t2M59xjh0YfBgv88DnDDj0vQQYh3CBviYO/Hns5RHCEo7HXdvFN1K9l+KBYAdK1Qth6phynoo58yQfTEHhoIs8X08nvmNamMOtEB4LvsxeEQwWKhXE2GA/nJrHXTNIpYaNMIJze8Kem6Z0Nxs3eDf37ReUSeG1Mh7+nZUnL5yRZ4jzUAQmPeSPlSb8L9SWEGfQaied0TopVfOcwhFXNA5taTgaDYQhohaJRkf/ioSRU0azvVM5A9Yov+wxwNc/inTJeOhuUq7eGMf6ZV56+peMVwlQ8UMFEbBGXy2QsPWA+5mxUSucOcDZeD/5OEIPD78PiRF3Gj0QFTcpVOfIXSe4iWW31rWHKXiwDOBvBcagI8cq9+v3K0dH73bzJvZqMwzckGic6G0n5C5HJVL+LEkFOo6P3xbvfRB5e5n8d1LDJQ+BD4g15y3uBDxCfMT/5LSek0pEkkRfeV55D2ivqpEVIz2WlWZaj4hqc7y0taWIqB5I9G1G2N769XoxVJ0weGyjwUlG3bAP18tV5n8+aiO9ANvJXD8tUvi8c02oPoPl1NqrrVv5U5ONBCCP0Dmn5boqjmaZ3NgiuVTKafR3v3OT50zRUsuqOT66lx4qkjqx80xUvw9F3ItS5kH79tvaMRymD/KZyXJL2n/He+7t0icFgmANQ4QSlc+yyO8Io7owKeL52QUrlhZJh67hWmbWy67n+UngSlNjkP0L6QV3hcWGhOI/Qqryx0zIRg8tjLf7AQ7ifjfGd74jBCJiPORt1WUlXs7SEb/JKlcqP1BCX3FPlKEaYPUGc91FbqntQZ6MeB8/l2pPmVw8PTcQWn++a1hYgv4cDeZDKI8qPdaPJG6X3KaCeXwFBTjym6XNgpA4XY8k4RKGTGF9NNionvhOuPQ8g8tPrUIRnch7eJ7/+XNLjw+d7dBiycRrInyOvngXe7ii8T+dsxNmeCHOtOJAaP+KjcWsg4TvEK3HXzmuk/IZnOJdwq3AmEeOEk8FyknB4MlshvY2KhXM2OHmVw2JxebF39IL8GU5zWrtpZmeD4N8eUfFj1Hd1DsVBCPncyU+NT4/hXOPplh3T6kmue3nSMDRvQ9jqaGi9vAz05UnDbQaDYQ5AhROUDn8LjNtfRQW8xRsLrfSsnJMqLJSY9nzcgvPvuJH8IRLGoKgrPBrcJPsEwjvXx0UlQkeiirvOA4nnqmyPh4J8vgt/eshEw3lzNu7g1mz8V5cWb4NB+IvL2ghDnCPltTeuwKsoNipunEflscJjwKDOxmwp8CSKlzLGPRk2gdItVl+DuI9AWdgBMpj8m2sv6nlI+UftDyDcc2VOS+WIqUzCsc5H/byXOj0ggXre0+/8Pf8u42Raovwk5M87unpl6rzWz+lsJMWeoLUdRzeEv5AkcUJe6hzA2VjQng1FuN+i48hyAD6q3o3meCZTf84Gf6OOyu3x3gmuXIV0Szze4ZD87De+/qhyMrTsM69ZTqP8cvAxMqvfkg0GQ58oJp6MCjmBirjeKwr9fXFyhWXlD92r50Phfc6Vh+pfCsOgrvRo7PknjMQDalHB1eLu8AASJwj8UdnKny3tT8Kw6Mz9uP1qhPOPOXU2FFXrmL+YtvIDwMeN0jIKRrU3LrkWJcfnG70zcSW+2w1Ohv6ZwjkbcfFJ3Du/+hbv18OZDXXxxXMqcjqTcOikFwDEIbOIC221EzE0wUj3hyoPpYeqoNN6hRg5cUqD8fAt0C5+hiB+290DorLXIRDe/yvSwPLQu2BYBXM2uuUREBz2/SUfv4g4LvYTJ1XG6qB2xzOZZnY2QvyciBkV78O7fwSf+qu1llE/dIPwZpsXEk6NyB8bCMJjeSniGsVx+GXkDQbDAEiLN6GS/0GUiVRQ6dLsruRa8Xk/rAJ5gluZvbqzK+IwlbRu1NOxJ4GH1RIXh3JoEMlP4KmLFxovkDo9nKzZdtkqHZufP2ejSuMyGLK4eA++Oc/LQh2gprjkHp6L0cU5t3XnbphR9nwJiwqezkZc/F2/8e/2htMvVfHpOfNL/0SBAocSp7Kl00NlKwt8cWO08ig4dx+WP3umSnu/4KTGpPi6y9oXuXYYUpGWMQl88BqkPRfdvE9Hmhb9Rokb4qlRYh6qo3Aa3v2YG+1awGtyuayXVXM2KoS8Z5lM289BGMd6x4FhoEz2JZf+nQ1Cdp4t34X3fiPy1/royyuOWq94rzmdTdSbhxKOlBXlTfRGeT7C/joc5GoV3mF0mMFgmAb1SrVs47+g4u2Kir5WKyaNvK+Y2gJmxWel5++TqtylNV9+z0XR430ow1ZUKjf9TlZm5H/zMH7qRNDRYIu7xkedn3y9tFCo3OLyWNx7hoQTycZLfhjFGyVJSxMhvdrC+R2M46ull4GYzuCGdJZoDXFCbT7uN4jrhNlDnfjIh7beuAtpq/1Vt8w7anH+cfDMniI+o6Lkr5X1b2cmdVBq97iXjNxTQ0wHjsZfJ0+Cl/ICvHM46CsuSl8qC0p1Y9D8rN6n48eFtLKxE4QXGkUaPXES6nKRtPZPIX3BYaIsGXbavg5p+rHLyp3cQQfd23MxdZms36ezEeXflnIXhsSknAc+F4oYJ+qd1K0Z5mzQ0Y3Ls72jS9nw+x6SOqzGO81/D3lVm4pNV1fDM9lkr1iOePTvNHUA+qFQH6ZfDK7OA9PU4r49+XfB5yUylCvDuSE/OvM5SJPLxSSCPFlGOuUF4TANnHTMuVbUF1H2sZp8ick9YAaDYZYIlYrHfeNHoPId4lZ/VxU3jUKo7B3CPSpBVlb5jROtFs70j+OZFfv04DfVd3G5I5TD3yQOEuOcxIsnKg++M3EQ+Ckvxrfvh5NwRygsThC9yq3CfRpXvtdITI//PmmfjpbVawdyNthNH7f/V+Je/Z3q74kmXuW+j49rbvD9uDweivWZEmecwtmAA8LnDKeR3+nIhx/iZzh0KiojD+MFmaTleZDPH6GED4LS/TwcrG06w08Bs1G49W/3RLjcYZZrZSTts2CAdDOswBP5FqNEB0ucwqkpOEz8JpRBdRKvwPM/wiju7+Kx+i7A06ej/oxDP60c38PYkzeRv5fjgpLPv1UoG0xblLVqa8hUzgaH37gfDf8EOwB1NshyEuE+07L6YMiuOAP5/jL5nphONqHs0xHmn11RcYJbhTAGKZfqADLvjpEy3i9kUTfZgfY3KDOXStlgXjNuyoRhak/F1MQGRr2sBL7T8mrUsZNRVhKcby+/6gfMpswbDIY+wO7SpNgOFfxnaAHdAIN7Hc49yUp93ZSW16Oy3wAFdBJaXu/yocwWaFF4h2OUeyeURyD+a6Bcrm/koYvAZzlxPfi53I0WX5fWOZVqUlzg2hNcIImLJ3GBpMkk9/G8vYoLKv3eJWMzD6P0YnTsSYj7h1CuKptGHkk9Mi0nGP9ZuPdxGPv7Oe5gGxfnQsHybxzP2wAki1AVkIPEgRZ6fhXSdjl4uxj3zoRDBJmWozBg/4N8e7UbHX2MjJfPh5Kth0k5xu1HuKj9PvCxGun7C/L1KqQb/LJnCoaDPS40jHVjFQwvW+XBmKox4Toc1yFd/OX59zhfocNm8ndPFe9M6ao/j5ffX/9G4YJOcIi4Smkn3xaSfBkpUJ5lZdV8rymHUUZT9mycgXKHMt5TFgKFhcnGVvOdP/Q1jNIL2fiOK6ZCL6Qom7rde3N8gficf5VxRdmkPKxrBdF+QGcqKl+KMszepl/j/FLVSxyWQXnh0B/LRW9ZkTLkywp7vVi+mJ/MV/41FxcRwnqDTGivr8tjMBgWADJfIH8uKuPnUZH3QyXlXhrLG4krGnLb5SiH0cp3gZGstjevK/rZoDX+QPmLoAVFm5GfBj7qxPUR+F6Mlu1o8XZRxHn+GFHUWVmC3xQKJsbzZBLJfTxPx3LEt6uLV28tPSNEv8qYzslo9maEsY/IJpG9SJp5DRSD8rF98f5eOH+7/nrJPOBiYdy6nDznzTz3UpQzfSnyrgXFzFU3EWb+NZdkn8bz98C4vxGGdFvw93TI5mHSE7WmZ3l3xdzkX4XKgSRotLj8uKyB0v4k+KXsjwJvZ4NfGFaZo8BhEiV2hcskUJl3wKE0tEqL0/ENjBfkxkmF3BeGC6SF3qhBUM/fNXBQo/S1kOO3ISfNwzhvzrsFoXHwAAMfl69zRXEfz2XFs/zFkT0fctrDJeNtyf/GshHKdxtlCuV7dNVj5PtBQSdFHJ8yQ35wSfzpy6Y8b+eSx6onqm3ap0eVJ9KrUj5YGh9ajvdEeIfhHI4zyoIOM/YMnYB0qAeNofw8vHc0vhkBLx/C/ZeI49a0kaDBYFgAUIFRoSXjD3crWo+SVign+DUR3xlJdc8Kbu0+jJKfCTIMAoPI7mNun97ER52oQMg3t+5OD3gQFNudZG2IFHy28idC4TzerYRTRMeol3ifz0eSJ8jY7bAtfQ5DcCiKccY4NvHZS5Qj08cFp6gARw64p1zPxHMvcc4M35f9RBAm5UEDLE7FjPnzL74HZ/A094OpZMnhFfLOOQRR9gYXo5XO357T/AswKtyd9huQwzdg4JahrOEenkX5u5HO1+Kb501pNIbJO4LL0FNeLN/8/ZF5yPLXlG8LQSwbrIesl9XS9hWYZyxzfG//eGvJ/95yQQrlu9V6opRvTmoeBuwt1HL1hL7KJp/zby2+m+cPAb/9GvgwZ6I7H7khHR1lWaU2e52Lx98Fh2YXOBBfchHKC8sKSfazKf4XzuIH8B4aAChfSfJo2dOoF03xGAwGg2GOQCXL7vj5dDJ6wTj7GZbie5wHQ8eLXenVr6vTg9+p8TDMNRZDrv3mJ3tls8NQXlBWSMv66LWwsmIwGAyGgWBGY/OH5bHBYDAYDAaDwWAwGAwGg8FgMBgMBoPBYDAYDAaDwWAwGAwGg8FgMBgMBoPBYDAYDAaDwWAwGAwGg8FgMBgMBoPBYDAYDAaDwWAwGAwGg8FgMBgMBoPBYDAYDAaDwWAwGAwGg8FgMBgMBoPBYDAYDAaDwWAwGAwGg8FgMBgMBoPBYDAYDAaDwWAwGAwGg8FgMBgMBoPBYDAYDAaDwWAwGAwGg8FgMBgMBoPBYDAYDAaDwWAwGAwGg8FgMBgMBoPBYDAYDAaDwWAwGAwGg8FgMBgMBoPBYFi6cO7/AzI0OpCxjHdWAAAAAElFTkSuQmCC;" vertex="1" parent="lgLzInrkZJbj5XazXorP-22">
          <mxGeometry x="240" y="-30" width="119.78" height="60" as="geometry" />
        </mxCell>
        <mxCell id="lgLzInrkZJbj5XazXorP-58" style="edgeStyle=orthogonalEdgeStyle;rounded=0;orthogonalLoop=1;jettySize=auto;html=1;entryX=0;entryY=0.5;entryDx=0;entryDy=0;" edge="1" parent="1" source="lgLzInrkZJbj5XazXorP-32" target="lgLzInrkZJbj5XazXorP-33">
          <mxGeometry relative="1" as="geometry" />
        </mxCell>
        <mxCell id="lgLzInrkZJbj5XazXorP-59" style="edgeStyle=orthogonalEdgeStyle;rounded=0;orthogonalLoop=1;jettySize=auto;html=1;entryX=0;entryY=0.5;entryDx=0;entryDy=0;" edge="1" parent="1" source="lgLzInrkZJbj5XazXorP-32" target="lgLzInrkZJbj5XazXorP-34">
          <mxGeometry relative="1" as="geometry" />
        </mxCell>
        <mxCell id="lgLzInrkZJbj5XazXorP-69" style="edgeStyle=orthogonalEdgeStyle;rounded=0;orthogonalLoop=1;jettySize=auto;html=1;entryX=0;entryY=0.5;entryDx=0;entryDy=0;" edge="1" parent="1" source="lgLzInrkZJbj5XazXorP-32" target="lgLzInrkZJbj5XazXorP-65">
          <mxGeometry relative="1" as="geometry" />
        </mxCell>
        <mxCell id="lgLzInrkZJbj5XazXorP-32" value="WebServer" style="rounded=1;whiteSpace=wrap;html=1;" vertex="1" parent="1">
          <mxGeometry x="99.48" y="480" width="120" height="60" as="geometry" />
        </mxCell>
        <mxCell id="lgLzInrkZJbj5XazXorP-33" value="Client 1" style="rounded=1;whiteSpace=wrap;html=1;" vertex="1" parent="1">
          <mxGeometry x="355" y="390" width="120" height="40" as="geometry" />
        </mxCell>
        <mxCell id="lgLzInrkZJbj5XazXorP-34" value="Client 2&lt;span style=&quot;color: rgba(0, 0, 0, 0); font-family: monospace; font-size: 0px; text-align: start; text-wrap: nowrap; background-color: initial;&quot;&gt;%3CmxGraphModel%3E%3Croot%3E%3CmxCell%20id%3D%220%22%2F%3E%3CmxCell%20id%3D%221%22%20parent%3D%220%22%2F%3E%3CmxCell%20id%3D%222%22%20value%3D%22%22%20style%3D%22rounded%3D1%3BwhiteSpace%3Dwrap%3Bhtml%3D1%3B%22%20vertex%3D%221%22%20parent%3D%221%22%3E%3CmxGeometry%20x%3D%22240%22%20y%3D%22350%22%20width%3D%22120%22%20height%3D%2260%22%20as%3D%22geometry%22%2F%3E%3C%2FmxCell%3E%3C%2Froot%3E%3C%2FmxGraphModel%3E&lt;/span&gt;" style="rounded=1;whiteSpace=wrap;html=1;" vertex="1" parent="1">
          <mxGeometry x="355" y="470" width="120" height="40" as="geometry" />
        </mxCell>
        <mxCell id="lgLzInrkZJbj5XazXorP-37" value="" style="endArrow=classic;startArrow=classic;html=1;rounded=0;exitX=0.5;exitY=0;exitDx=0;exitDy=0;entryX=0.5;entryY=1;entryDx=0;entryDy=0;" edge="1" parent="1" source="lgLzInrkZJbj5XazXorP-34" target="lgLzInrkZJbj5XazXorP-33">
          <mxGeometry width="50" height="50" relative="1" as="geometry">
            <mxPoint x="365" y="500" as="sourcePoint" />
            <mxPoint x="415" y="450" as="targetPoint" />
          </mxGeometry>
        </mxCell>
        <mxCell id="lgLzInrkZJbj5XazXorP-40" value="" style="endArrow=classic;startArrow=classic;html=1;rounded=0;exitX=1;exitY=0.5;exitDx=0;exitDy=0;entryX=0;entryY=0.5;entryDx=0;entryDy=0;" edge="1" parent="1" source="lgLzInrkZJbj5XazXorP-7" target="lgLzInrkZJbj5XazXorP-23">
          <mxGeometry width="50" height="50" relative="1" as="geometry">
            <mxPoint x="340" y="160" as="sourcePoint" />
            <mxPoint x="370" y="110" as="targetPoint" />
          </mxGeometry>
        </mxCell>
        <mxCell id="lgLzInrkZJbj5XazXorP-54" value="" style="rounded=0;whiteSpace=wrap;html=1;" vertex="1" parent="1">
          <mxGeometry x="10" y="10" width="120" height="60" as="geometry" />
        </mxCell>
        <mxCell id="lgLzInrkZJbj5XazXorP-48" value="" style="shape=image;verticalLabelPosition=bottom;labelBackgroundColor=default;verticalAlign=top;aspect=fixed;imageAspect=0;image=data:image/png,iVBORw0KGgoAAAANSUhEUgAAAM8AAACnCAYAAAC2JghoAAAAAXNSR0IArs4c6QAAAARnQU1BAACxjwv8YQUAAAAJcEhZcwAAFxEAABcRAcom8z8AACTASURBVHhe7X0JfFvVlb5iPYWdtlDoMnTgPw2FCTRNrCfHMUmk9yQnoVCys4SlDLRlZjqlUEqZUlo31pNsJ6H7tNPOdGHLxtYGSOLdIYSlhcLQAIUWAtm8yJv21br/c+67chznBbzI0pV0v9/v+8l2nOS++873zrnn3neOSSA3IPZzTxxYPPe8PkWu6lJtyzsd5bf2OGzrehT5wW7V2tylyi93O+V3uxW5Fz6j3aot0eO0kW5VTtHvFbm/W7Huh+9fhd9th683+VT53h5Vvu2wal11SK1Y0K2Uf/rQ5daT2X8pIFB4ODx/9lk9LtkOhv5VMO6fA1uA+0AQYfhZOlBdQWKLKimD1XPJoKuC9AP7QCw+IIqGCmfE1/jzXmAf/N4g/H38e9FFc0lsMf4bFfrvq3IEhIgCa4fv/7tTsX7Np1YoOB42NAEBvoDG2afM/Xy3Wl7rc8k7wDMc7nHKyTAYdxyMOwSG7mcCQQGMFEg2SIXlstF/fxA+UUwoqgj8/yDaFIjpMHipnZ0wvj5VvtTvtJ3Jhi4gkHv4FPkCeKrf0ueUt3Yp8iE0YDTYEBgsegb0IkaGnmuiWHE8GSHjOEFMB/qdto0QMt7U5ZT/iV2SgMDUods+ZwaERf/R65R3ggH6w9WVNHQaAONEIx0ZZvFKHOcAeKjo4rkg9AoUUj8I/Q89qvXm3iUV57BLFRCYPDqrZ53Sq8gr+p0VW8DQBjAUwqc4hkhGxlloxOug1wShJYR43eCZftNbXb5o6+rVZjYFAgLjwwHX7PN7FOs9sHbZ6wfPgh6mWAQzmrrHlHWPBNcJnijd66zY43PKXxHJBoExw6eUW8FwfoHhTAwMCTNjdJ0wwtiKmXCdKBya5EAPi1lCn9P6/U77585jUyQgcDTgKWuD9cD98BlB0eBTGJ/GRgZWCsw8LPwgIkyEYEgH6yLvYWXOuWzKBEodXeqcWT5V/l2vaouhaPpcaDSlKxojopAwY4cigodLJ/zsntdtF4p0d6nigP2z5+AOPRhDMLYYRVNRMqHZRInzo6//KkmfKr/uU+Trick0jU2pQLGD2O0S7s/0qLb9+CTF8AzjfCNjETRmt1NOB8FL4ymHfpe8w+eaI7PpFShW4Lqm32VrxrQsJgKEaCZO9EI+1Uai8ADqhXUifO95o+qC09hUCxQLcK8GQrTaXlWOYMjBbr4QThaIIoIHEl0Pwefzh12ynU27QKHjMHibPtW2G4+m4E3Gm21kBIKTI84rbrbCXMd6FNt3986cOZ3dAoFCBNzUW+FmhnDjrxtCjNE3XDC71L2QnpWDeX9SpLULEG/Nn31Wr2rbjJt8LCFgeLMFs0+YaxoO4+sWfc6K93oU6+fZbRHgHQfs5ZV9TtsrwyeIxdomL+yCeQ9VV5B+py3eo8pfZ7dHgFfAU+4aEE4AY28hmvwTPT56fowAulX5V/vs9hPZrRLgCT7V+q0Bly2lp6BlIRxOiA8xjAASS2iWcxv5iOlD7JYJ5BvEarV0K/Iv6Glgmk0TR2t4JXFeTBqvvm33x3+WFomEfONFq/XkHkV+OCHWN1wTw7fogvNJ+8ovk2X1EbKgIfmavSZ4MbuNArlG75IZp/tU+UlMDNAbpIpQjUdmhNOx8kuk2j1AqrzJdPV6cEJ10XcXrh20sdspkCu87bJ+yKfYmjLCEeSTGeHsWsGEU58iTi1IVC2Qrt5AiOqNdNpreivZbRWYaviuuOC0Hqe8UwiHbx4Rzs1UOPMywvGEdKKAwANRAWmD4mDpVGN/ZeVJEJ49kdnDMbppgvlnRjhPr7hJF07dKOEwKsMCir6negIz2W0WyDZIjakMbsqm+OJ5hjdMkA9mhLN7xb+QRe5+8DhDhsIZ5hEB7V3wnb5PsdstkE10KfJPMatmdMME+eBIj3NEOAFj0YwkiGsRroG00DP2Hw58mN1ygWygR5Vvw11qrIqJN8joxgnml0c8zo1k8XiEkyEK6F5CHG7/Y/YaIrFbLzAZdKnWZQOuioR4nYBfZoTzzPIbqcepGq9whhkmi35AcC10L7v9AhNFp12+uFe19bG3Pg1vnGB+OVI4i2v7xu9xRlILEac3QlwNKWKv9d/IzEBgvOhdUnF6j2r7Y2RRJekSR2645BHhfHHywskQwjdnfRJEFA24tLDYA5oIuhT5fzEl3a0K4fDIjHD2LL8he8LJEASEGTiHFto7v458hJmEwFjQpcrXYZsMLEpudOME88sjHgeF05td4TAqKCCaQAjcx8xC4IPQs3D2+T5V7sX6YKWyzsENX2xJgu++YHFBvPYArfCjE7/Hn+OfY325fG4Q4z2JgHCeXX79lAnnCMPEtS5NlFr/Dcw8BI4Hsnq1uUuxbsd34ItROHBN9N0WbEmCSRBcz2Vqx4G3TXSrtkEsawuh6j7gG8C9+NmjWN+GP+8EDsD3EfTIWAUIizWih8bOcrnw0hmPg8K5tNY3xcIBgvdxNSTxa5/iHvw0MxMBI/hU6y24n1NsR2/Qq6BYcA3XD1+DAPqAz/mc8v90OuU7u1Xrqm6Xdb5vkfXC91xzPtnvsn4IjyKll8w4AT99VVWndalzP4b9gTpVawWsB6+Av/9V8NA/BrG1YCc6+HoI6wZgcy30TkbjmAyHhbMsR8LJEASE+z+KO/h7EyGiOqkRsAp/j1P24VPU6OYVEtHQ8AEQWIRNpCoJGHYMBPKnHtW6vheb+S7+3HnEZCpjlz5pBKtnnd2rzq3uUmzfhTlsA0EFIyAiFBJ6JPR4RuMcK3XhfIY8t+w6Jpx0boSD1PAzTKoxfNNCInwzAjxJN9LsWgGnpdFI0cug4WIJJp9q+zMY8vd6wVtgmV92qVONaYfV2TPh//06jKUDvFtSL0g4sTWkLpzzh4VTmUvhjCDu/YB4Dqie4MfYdQog4EZfOuDSm9Ia3UDeiaLJVM3sVuQYlr3qc1Zc9taMGSewS8wLCDFN61FsC8Hr/RoeTv7M+mqsItKFAx5n6bXk0rU9eRMOErNv9PhOrf/n7PIEyOXWkyGGf4lWWBl183gnjjezeIcHALZx/zVWKGWXxhUOqxUzYbw/Ak80gCLS6z0cP5zDa8Os2vPL1pDP51k4GTq9UaLURWP2erF5StGpWL+GzWULSTg4Vgwv6WFV/Fq1bsaOcuySuEanYruoR5F/C2IfwvAycz2jr08XzrXk87V8CIcS9342YPIgsHP1alLaPVMPOm1ndqnye4W0pwPjTONTm/YoddpewJCTXU5BoVOpUEH4e/Req/p14T3ICOeFpeBxUDgNnAhnmGHibEgSe21gGbuU0kSXUv5dzEYVgnAyhoXtScDo4j5Vrj1ktZ7MLqUg8daSGSeAcL7T65RjmbA5AmscKpy13RwKB4jeB4/uuAMvLPlxOq9ryryhZ0H5J7pUa2chpKYz4qZrBdX2aqdSrrLLKAp02q2OPlV+lThnkT/CGuey73fxKZxhYup6CAQUvJZdQmkBwrUa2r1ghJHySBwfZgFxAxIW21uLtbV6YP6Ms/60bM0jV9UNknkNBIWTNjZcPli9Po1rnxdLzvt0zpt3drcqH+Dd66BwMLVLz5RBmMaGX7wgpAw8zvrqhhRx1sXYBiW/dMI41brgajb60kCXaruDd6/TBcQ26rAmiHcpti+zoZcE1Fr/HSCetLMuTtcYRoabd2bWPpp/V8m8tt1tn3kqeJ3X8UCjkdFOitjASgE6Kki3HbgQuABEehTZz+HP8ffo749qfIWNsPyuuWTAWRHudMhXsaGXFGBBfotaF0856zkWkDcMnic6pHqCCht2caNLsV6DXZRHGuuECEaPYui6pJJ0VQHhk4oCj/csKSe+K2YT34pZpPfKz5Leay4mfWsuIn1XX6x/Dz/3fWE2/J6VCgUF1VUFwqL/Dngbx1wyqFYE4N9fyYZdknBog//urE8QpxdDOD4FpFfdCWxkQy5eYO21LlXeiWlRQ0EclyAIBxj5fN3AUTQ9i8upEAb+7Xzi/84/ktCGj5HIrz5Cog+dRuKPnkziT5xI4jumk0SThSSaJZKkhK/xe/h5fBv8+SOnkOgDp5PwL84kwfpPEP9d55GBmy8kgVWzY4eXlH+RDbukodQGvo3hkdMDT3kOBYShpaKF/HZvdAYbcnGiZ3Flea9qi+Emo7FIRlLWQy/0COAN0Ev03fDPJABCCf/8TBIDw0chJHeVkeQzyGkkuRs+d5lJsgPYDmJpY2wd9YnEP8ffexr+zm74u/D3U/hvwM9i26cnkx1lz8Pv/zbRIt1C2ixWstVUsg1qHW7/L/FcGYiHuwwcCIeeOoAw82423OJEl1NuwJTv8RMF4GEwHAOxIH2XzyEDX51BQj86i8TAmyTbwdipSHQjRxEkWkBAWST99+DfJbuBeyyEPGshqVYpnGyRXh5qNd+bbDFXpxtNp7BLKgnAgvxE1RNupMXZOfQ++LYpiOcVe82+4uw8hy94dSryW/hasZFocL3SNQ8rgsqk/0sXkPAPz6ahFfUmzCNQzzHK2HNBAl6KPA18zkLS6LVapNdJq7k+0SjNZZdX9Fjg7vsULND3u9YNcSigCBaMTy8s1sRBj6P8MtzXOfotURANXaxX0gW8/9vnkuimU1koBoJBT4MGDGuV0QadLw6BgKmQnpVIqk2KglfamWoqW9O73XQ6u9SihUMLLFXrYimsrWZsxHkiiJkeGNUCP2NDLS50qdbfZE7xjvQ0vcs/R4KeT5LEkyeQ1B4QDAiHhk4cCcaIiWYpjV6I7AHuhp81S6/Bz24n20wfZZdclAAB/YS/8A1rHaTwVe2/2WuKrNa1Xz89/S6ensasGYrG94U5umh2TNdFk/EyBUkUEHojuj76W6JFui39jOk0dvlFhUX3Dp4Bi/Q3XetS1GiNjTkfDNNTEYo7tIgNtTjQ4yy/nL7BWIXtQWTiv/tcEs94GhBNgnMvM3YeERGEdy+nWs1FeXQEvM9K3P+hm5SGhpwHstDN7g78iA2zOHC4au5PIwsvIf03X0Bim04jyaITzSjCdZFnQES7YF3ULj0ab7VcxKaiaAACeoq38E0/ae1/ZcnX3iqWw6KkrOfSOa8M/fCTJNlRRvdVilY0IwjXmIYQjmboUm3SIIRyd5F2U9GcwXKujcxTvdEEV8kDfE3bE4ktXOsrjkbBkftOvyr+6CmJIfQ2mGouAeGMJD4oSAeGcuiFLNsD26cXTftAeMpv0Y/HcOJ9sMsCnrT2Rl+2a/7CrXNAtprM8SZzbXq3FBuCdQA9DWBgXCXDZuaFWiVfvMmyhk1TQUNx+6vUukgSn/iGxpwPsjaNzrpY0OEOfoMNtXAA4cnHIVR5DBfOpF0PYQwNqsRIvRCsg9K74Ptm84ZiCOMcbv7WPjgWPA2ujyv8u4JJX8d3WMqT7dJr5Hk0mOwfnyl04oOE7g/B/AzBAya903QGm7qCBBjncpp5w4OjRoacN6KYw7TWG3ihF+w1vgvZkPlEtNG8KNkmdaPHgTBNeJv3YQpInqProD/Gmk2fYVNYcKi603caeJ83WUF27qhowTQ91OqNvutc65/Hhs0XUk3m1ekOKYj7HBieGBmM4NHEUwr4oIEHzjuJpySZTWXBQdH8DTREMjBeLoh7QOtQQJG+hWv9fJUKizdbvjjUYUkQiOXF+mZ8xEQKE9Dh8HapIDNEijtSBSHSkBMPaBoZLw8EAdFDrd5YSOWl5lu8EYSzy5LUhSMJ4UyA+MChAmqXDid2ShVsagsGlbfvPwlCt//D82WGhssLIYRzYb/TungED7my4ecHyVbzCuFxskQmoFSbdCD+lOWzbIoLBiCen2IbREOj5Yi4BmJ7QSGne9DFhp9bJHZIC1JtlqAQThbZxDxQq/RGZOeJn2JTXRBQPMErnQ08Zt0MiCFcwxCeRui1a4O5XWvGd1guSrRKh/AovkgOZJeJJn0zNdFiaSfbTAVTzldxRz8NT/UArfdmZLCcEVuWuNYTEFD4bXvNYG7qH6SbTWfCk/FleoOFcKaGeBrheZxf6Td4UoNNPdfAyp2KO/AnfKIbGSuXBAHRlo2e0LP2mu5T2aVMHeCGbqQboCI5MKWkh0pfpJ7oNjb13EPRAg/SPRUjQ+WVmX2gWv+v2GVMDUA438CiGHhjS+2AZy5JQ7c9Ekl1SPtgzvnc2DMAeJ57uN7vOS4jpHr9ELGvDfwru5TsAlOoqTZLBM9mGd1wwewQxKILp116J77dMotNf0HA6Q5eSyuMFkLSYCQhfGMv9/kX1gazm+mEuPvUZIv0Z/Q6Yp0zdRzpcQpNOAjH2oCdFofnrUDIGIgJBPSaDi24J6udF5KNZo2tcwxvuuDkmfE4QyCc0E7L59jUFxTUmsBMeIpHCyXjZkQqoGwVUISbaku2WWJDWGFTeJ0p4YhQ7d14gQoHsfgH6U8oWqhHD92MjZNr0vCNjj1o9wQvZpc1MWylL7RJrbhxhzfY6MYLTo4jhPNevLVwhYOorBk8w6EF3nXW83nCekxk6WvwPtvYZU0M8day68kz+vF5oxsvODnSNc4zTDiNltls2gsWrnryIVg7cPt6wtgZIS5MIGiB5ezSxgesOwZrnL+ieESSIPscXuO0SfuLQTiIJTXp00E8r3F/QPSDiMmDddT7vFJ5b/okdnljR6Kp7DZ6zqpFhGvZ5nCohsJpNs1hU17wKBrxMGLyQNECX2GXNzaQdtOH4Qa/gzWZjW6+4MQ5QjgHikk4iOISj/7+D3ifv47r6E6iuexW6nVEkiCrxPCXhWoH4y2mcjbdRYNi8zy4Z1W9IY2fX2KX+P44tM10cqLJ/Bq+Tm1kAIVA2smgAwz1aeBuIKzbhokdDnZhq5DcJkKOCMd8MN1iKTrhIFx39WPC4C1a+gnLURXgZulo0pb1WuDFmTXkg5ubpZosV6LR0fNrBkbAHTGZgaEQ9tAB42Rp9TSwD7g32WzugM+nEk3Sk/DZAkb8InweAiaouJ4DdujXOlWVfoaF0y4dTDRarGyqiw5VDVgMJPgCCCcCIkrgMR0UEhZGHD62w3l7+mOJBeTjxKGFLmOXeXyAkW0viGM4GdHQXjkWEm+SgqkWaSeWtQXBuNLtpnPIi6aTR9ZGI8RUBt+fCPwontWLNkq3wO8/mGyRDmQ8FPwbeO1ZOzGO/xamoyFUO1TMwtFBptnXhT6O78fgS2YOLbzU4Ql9S9XCW0BM+/DkAS7C6QkELajT0GD5IYxbTxy4g4+wizRGvMUyC4wphiGNkSHwQvAatHggigYW3n8FL3lPusn0z+wyxo1go+lsCOFuHGqztNFwD0REa85Ncs0Hf58KB8bXCQ+lgq2Okw3gBirWeAOD3KhoocAIEXHX53Q0cZwgouDCWv/57HKOBdzgGp5fcsOnOHoGWra2TdoPRnk7ZgbZ8CcN7NadbjMvTbWan6X9SCGcm6gXyggH1l+H4eviKDyeJeDRF8UT+i8IiSIoIiOD5YnD3kcL3cku4Whgt2fwOn/mNVFAjRG9DY6vTbovusN0Hht61kF+abKAMO9MdViC1AuNU0AjQrXOxHYhnOPBpYUrQUTtheCFMHHg0ILP1tSQMjb8I0i3S5UQqiR5DNnQE6JowNsEo03Sv7EhTzkSjdIlMCd79VeiYSxj8MgZ4cBYu4TH+WCsXk3MqifyPWd9bAjLQvEqIMweggeKO2sHjt2bgxv9XQyHeNvbocKBpz+EP53RneacdzsOt5j+AcK4DvKCLgyjMWaIJYbZGqe7lDplZwOqJ7BK9cb7+ey2DTxe6EZMpmnxJqldXyjzw4zHSbRKXeE8hj9YjD3RJrXq7zQdO0461oxw0OMUaOXPfENxBxYqnmgv3WTVAsZGnEdi2l3xBHey4eqINp7w/8DzDGI7ECPDyAepcDrA43RIQXiKL2RDzRvSjaazYVwvGqXxRwinO9EkhDMZODwDTrUuFtJPNfPlgeh+jzvQq2rhf2DDzRRpx43Ro40in8SxpLEuXKNlfAfzphDp1ukXgBf04eZqRkAYytEkRqvUAw+gginWwTPAA31ZP+LD1wkFJ26YemNE8YavYEOlhdrXv19IkmtSr4Mp8ybpPjZEbgBzdUOansDAjVk9rEy2SL7ITqmK/YpAFuBwB3/JVctGpBZidd7CGhsmTRY08bTeoRV6WqUD4SdMR9wjR4D5ehQ3aDPCwawc+yOBLMFeE/goGOzfq7GIIkdHevSUdeApOkgs6QrGsD9zviv/1E8OgNf5Oh0gh8Byw8lWSxrWOIOR7dJ89mOBLMNe23+dax2Gb/yUssK1mKIF31nytfQJEMebLog3SXFekgV4Vg2E87f0dtPpbA65RLLJ3BDbab6cfSswBbDb2yVY/zzrWpcGw+UjfHPWRTFpEKP1rfVDlLiPYmzMuSSeaqZep0X6Fps/gRKH6vFfV417PwaGnBfiaxbItUEFFsBlN6HBGhlzrokihhByINp8wj+xuRMocbjq8R2hwNs8vWBH93vcoetN8Uazh54sMDDmXBPfeYEQ8gk2bwICFLBA/wnNvBkYcj6oZ9yC38fM0QNcZNowPY0hW7N0K5szAQEKe63/clhrpHlJHFTDGgy84e9QPG08FG/X11xSIt0q9ksEjoa9PnwOeJ8ueurAwJhzTSzqCOJpNiWbpb08ZNpYQ+BD6V2mT7A5ExDQQcg0RQuyrJuxQeeS+stxoVfR8xwe4uA1BP29GemlQumEJpBbOLTg/bhQNzLmnNMbIQ5P8KBJf/f/WGPONVE8MJYdbK4EBI6CovkbuBEPrL3AE/pN8WYpYWTMuaZ+WlnawuZKQOAoONyBu3nKuOGLcRC2GRtzrsnEs4nNlYDAUVDcoW/yJB488YBFP3jyPI+xuRIQOAognv/kSjxaMIEJgwAP7/HgmgeE3M7mSkDgKDi1oIefSjt0zRM0JVukQ1xk256mCYM3042mU9h8CQgMw+EJ/pqnbJuiBTr52efpoGFbf6x5+mfYfAkIDEPRQh387PPQSjqvY6qaixMGmC4f2gVfN5q/wOZLQIACFucfc7gDB3lp14ht50E8HaZEk5mfs23PYehmXsfmTECAwu4OulRvNMVLTQP0gA4t9JAp3mz20PoFRgadY+qFNaSX09tN2euDL1DwULVgHU/1DPBUteoN1kHYVvYvvLzPg4dDUx1SMtEk2dm8CZQ4rDWHTlbcfDXMolk/bHgVbTa7htqxILmxQeeSw1VzGvmrmiOQH9hrA8tgjcHN6wg4Dnow1B1aZIplahhwUqMahZxotYTjrZaL2PwJlDAUt7/FhSlqTkI2PdMWSMyvCcw0pZ81nZRokd7jIeOGpN4HwshYk/Qgmz+BEgU2x3LWxznyOsOZtkPDTX7BYBu5yLgxYk/RoV2WZLLZvIQOUKDksKSm93RFC/8F39rkqfChPp5QKxumyYTpYV4ybkjqffQStm9g1zY2TIESgsMd+AHNavHUwzRTMdQd+CEbpsmUbDGvSndIOe0O/UFMYOtE7IvTJL1/L0iBooPd7b/e2RAfcmKJJ468Dq1VjWFb7eAaNlQsYG46F4x0gKcuCTpBQHvoxmkDG6pAkcOxtt+u1sf9rEsCV42usEsCeJ2je5MSYpoG4mnjad2DxCKIeOIbO1WDgGrZcAWKFAs9gQVgoF2uhiFclBsacD6JJwsUT3A3IWQaG7KOWLN0D4+d4fDYzlAbeCAUdpvlJ9gKng1ZoIhg14Kr1bp4H6/Cyax3HJ7gsQ9xbAMI64xUGgzV0IjzSRBQqhUEBOKGz7bYdtNMNmyBAsfMmr3TVW+kRvVG06wjHJc9SelrCJ7QkArekQ39CLADdLLJ/BJvoVuGCdYPlHrHNqk71Sbduk94oYIGhmlglLQbturluxs29Yhu/1/sNfuMbS7Rqjf1xbXGaOPlheAd01jjjeyZTtLt054fbD3xGtP9d4gX6AoIan24QvUE74MneWr4BTeeUtKjmUlRe4JHmlqNRrzRcjEYZ5THdvIjGcdWhi1ldB1091OXkJmbr361fNOK71m3rKqw/tJqYZcjwBEUd+RcpS50g+KNbFM84Rieksb27Dx7mwxZG/nEAi1Uzi7HGCCep+gpa1hnGBluvkk3UEE40RaJ3P5oVXrGpmuI7dErScW2q4h184qovGnFS/KWlf9t3bTiP6ybli21PrRsfvkDy8ttW1fPLhwunW17cM1s+7p9s6u1ODBUULRr4Up4Wl+qaP6bYIG9DjxMs6KFfNgmHj1NoYiGUgvqXRG0QDOTyPFBN0yx5yYYp5Hx5pNHCeexKvLpjdegYIhMuZLIW1dRIc39w9WkAojfg4jiwBAShFUgXBqSH7omZK/bF1LcsRA89QqH7mAIDC6KhocHOjHcwRQv7pHQM2qFIpoRxESG0z14LZPI8YFtFmON0l7cWzEy4HwxI5wYCOcbRsIx4hYQEwqKEcVUEHx4GbFtvo4o6w7CU3qIHoEvLIJnwdMBHB3onBBhraMnCgJv2muIfhD0g5BolG7F0I0X73NEOOaxC6eguZTIG9cQR/27cAP56AxQioRQk774ZneHvsmk8cEg7aYPw9pnH30t2sCYc8mMcOLHCMfI6IqFQjx5J6x1XA3YSiS43+n1n8mkMTbEmqXb6Z5KHr3PSI9zx2PzSkQ4SCGefFPxBPUTBe7Q+PvjYjdqCN/exLUPGrGRcU8lR3qcb5aUcJBCPPkmZgbB+/wd1jofZpIYH+JNlutxLyXXa5/SFg5SiCe/DBPagVsL3cikMH6QGlMZLYpIe4UaG3q2OSycZjO5sySFgxTiyRtxX2cD3ddpN9WQMiaFiSHRIlUk26ToEG3zbmzw2WJGODEQDq5xZpSkcJBCPPkiptpVbySGG71MApNDsslcR1/TnsLXFYaFU1JZteNRiCcvzJxhcwfrmelPHqTddGqy2fwK2SOBkWdfQCNDtTtKXjhIIZ6ckx3DcWiBV+w/G+OG6FgBopmXaJWiaexmYCCAiXKkcI4kB4wMqpQoxJNTgnCc9XEM1yJZC9dGI9Ek3UVfSMtS9i0jnERJJweMKMSTa9IkwVr/2E8SjBeYfQMPtEWvaqO/nDZRDgsH1jhCOKMpxJMzasE0XedooQdNo2sTZBv+ZtOZyRbpL/SluQkK6GjhVJZwVu14FOLJCbUAE074z/aagYltho4X8Scts5PtUtdETh9khJME3gXCER7HiEI8U048u7Y+TZS66EGlNpjbuujRHWZXstUSxleiQRBj8kCjhSM8zvEoxDOlxMxawxAmCAYXuAMLmUnnFvEm8+qhdilFOjCF/f4CGimc/3xceJz3pxDPlBHWOC5sz4gboV7/5cyU84NUc9lNQ+2WtN6Q11hAGeGkUDgiVBsDhXimhBiqNaBwoglVG1zNTDi/AFHcTD3QLuqBjiucb4tQbYwU4sk6qXBSKJyo4/uDVzHT5QPxprI1yVYpSp6WhouHHC2cucLjjJlCPFmlFkhjaxDFEx2014byG6odD7Em82WpdqkXT2HHmyzpdHMZGQLh3P24EM74KMSTNbJ9HKc3dtDh6ee71y2W7U11SH8lz5upx7n7sQomHCMjETSmEE92GCa0Plxd7AWltq8w2nSGt590TrhVesLdVEXO37KGlG8SHmd8FOKZFCFMw7NqKBzFHXqgsmb/Gcw0CwRfedFy4earNevWVcm5j19J5E0r08aGIngshXgmRCzZC2EaLeHrDYdVT/AOZo2FifKHViyWH1752txtehFCIaKxUIhn3ATRwLqGvo+j1sWet2v+qTkdnWvMun/52dbNK34GIkpV/P4qA2MRPJpCPGMmiIbWHMAQzROOK55gfdWdvtOY6RUPKrYsV+UtK3dX/P5KWhYXvJCB4QgK8YyFQZgbvcoNK+e70+ENz2WmVpyY8eMlJ4CAvgp8B0M5ISIjCvEcn3rXONzwpN7GG33N4Q59EUxral8n4Am2367+uLx5RQ0Yy0EUUQWKCA1HCAkoxHMMNd3TYEkoFI3qjfzd4QneMb9u8CPMpEoPn31g+TnWzavusW5e+TdcD1U8fhWxbSn1xIIQzzBBNNiSBDNo7HjNq7C2uX2+J3AWMyGBmf+z6ow5W1beJG9d1QYhXQJbhFBvVJJCKnHxYMrZG6HrGZo984Qjal38Kac3clX1+k7RBfD9YH3kykvKNy3fUL5p5RsgJELDusdASJjq1g2syMVUYuLBkMwTpjXT8AU1KhhvOKl4Ii853MFapTZsZaYhMFbMuv+6U2wbVy0pf2j5BuuWlX+E0C5kAxHRRAN82h4GMVFBDYuqSFjs4kGhRImrPgFrGF0s+LVDCw6CaDoULbxW9SQWYKdsZgoCk4G93S7Jm5dfLG9ceVP55pU/t25esad80wofMGl7ZLXunf4A6yUI9WwPr9bDPfBawwZZUIkIEM9DTDxu7KhmZIC8Us+GUULohesVPCqD6WRc6CNpVU5POAoe5wBrubhB9USutnsHZ5hqaiZX4lZgbJi5ZdUZ8sYr5sgbl19h27LyVvBMP4Jw73EQ1AsQ8r1t3bSi17pxeQQ+kwUonjSIJ12I4lE8gaSiBQOKFuiEz9dBHB0OLfAQeJY6hyd0s+INLbJ7YhdWr08X8PrFZPr/imniDngw/4IAAAAASUVORK5CYII=;" vertex="1" parent="1">
          <mxGeometry x="40" y="16.5" width="58.26" height="47" as="geometry" />
        </mxCell>
        <mxCell id="lgLzInrkZJbj5XazXorP-57" value="Other Instance" style="text;html=1;align=center;verticalAlign=middle;whiteSpace=wrap;rounded=0;" vertex="1" parent="1">
          <mxGeometry x="570" y="360" width="60" height="30" as="geometry" />
        </mxCell>
        <mxCell id="lgLzInrkZJbj5XazXorP-61" value="&lt;font size=&quot;1&quot; style=&quot;&quot;&gt;&lt;b style=&quot;font-size: 30px;&quot;&gt;...&lt;/b&gt;&lt;/font&gt;" style="text;html=1;align=center;verticalAlign=middle;whiteSpace=wrap;rounded=0;" vertex="1" parent="1">
          <mxGeometry x="385" y="540" width="60" height="30" as="geometry" />
        </mxCell>
        <mxCell id="lgLzInrkZJbj5XazXorP-62" value="" style="shape=image;verticalLabelPosition=bottom;labelBackgroundColor=default;verticalAlign=top;aspect=fixed;imageAspect=0;image=data:image/png,iVBORw0KGgoAAAANSUhEUgAAAMcAAAB2CAYAAAB8k4cWAAAAAXNSR0IArs4c6QAAAARnQU1BAACxjwv8YQUAAAAJcEhZcwAAFxEAABcRAcom8z8AABrPSURBVHhe7Z0FmFxVlseDBQjuhHRXVUuEAEGyDJLBdWCAxd2dRYLD4LIMBAgkwd09OCws7g6LWwZPggd3eHt+jz49p2/ue/W6qzpdcv/f9/uq6lldO9fvfb2CgoKCgoKCKlBTOZ9pstdmuT4oKCgoqBbUW5hV6Cf8h7CusJtwpDBSOE+4XLhauEa4SrhYOFP4p7C/sJWwsjBQmEuYSQglSVBFy5dAMYaCMEzACM4SHhTeE74XfhF+F6KM/CH8KnDf58KLwljhGGEjYWFhbsFVMJ6gHpGb8KYVhgo7C5QE/yf8LPgSu0KiL0YWI5oo3CUcL/xdaBSsgpEE9YiahT2EG4R3BDfh2kTOp3u+K/CspOf9KDwunCr8TZhBCAqaYqKU+KtwtvCa4ObuNvGWyyDSSDKWz4QHhH0E2jtBQWWVrZLMIqwt3CJ8KdiEqIYwJYwhiSQ30F55S6CNQkkXFFSSrFHQwKaKcqNAQvMlRjdB9jRJ7npXoJesVVCFNklQZtnEsrRwifCTYBOe73ulYY3DdedLAtWt2YWgoKKyRkHX6BHC+4ImKJvYqhXXD/cIlIpBQZm0ivCYkJSgqhn1i/UPYycnCgwuBgV1kJYYjGIfLkwS3MSkv2sFn5E8KiwnqEJbpI5F5GsC6C/Q4LaJxyYiPV5L+Pz1icCoPt3VKBhIHcpGOnOWGNHWBGINQ4/VKtb47ecZglazgoHUqbYVmH7hJg4+6xE7oHm70CIE1ZnIDQ8UfhA0UWAU9WwYig0D2iGLCkE1Lq0eTCccLWgiCIbRETccnhf+IqBQxaphYRjHCm5CCIbRETc8mCa/pBBUY9Lcjk+6an8TbAIIhuHHDR86LUIVq0bFdAldY0GEK5oYAsloOD0pDBBQqGJVgMoRCayY0/lRwTA6h4aTft4pzCmUomBYJYjASwtABqlYyFMMZtQuI3wk+CI6kA3Cy4bZucIcAm04X7hbuCZNwVAyyhdQDcIKwhbCoQKr3IgcNiFgxmwa5wuvCxrB9jPQeTTsmLp/q0D4+sLdwrLh0wTae4wrMXfNt66kXEaiGasF2e8q37GKV5Owk3CR8ITAtAY3ojpDMIjyUI5w/EJ4TmC3lb2EwUIlqKKNZGqBrWuYukBu79uggMgBXRqaFb3XfV6g82g4+sI5iaSw59zbwqXCSsI0QpfVP59fsCWf/09hzaZcbtXWXO7vzfn8Wvl8fv7+hcKizf3yfyvMX8hzrRyboTmXG9baWFi9qalpvvgBFaohAkU006d9gahGERJ4J5hqqqm8x3sKcc8fIN99cfmVQGnC+nzNxTuVm0tiP6i1UHhFDOP9llxhkhjGuKZ84bmWhvyaLY2Fsf0Lzd8V8vkx8bWNzX9tzhU+bGnMcd368QP+zKB7XOppej0OESYINqCSAjBQhEoziCSMobjnvhHYZqjTm0IMyuX6tjY2trQ05kdIwp8kBrFuLpdrGrTAoLmac/mHBjQ1R00N+Wfk0mnEkPZuKRQiOf5LobGwyZ9P6HnjUMNgQOk2QQPFGoRiAy3QCaaffvpoyJAh0XrrrRftuuuu0RFHHBGdeOKJ0cknnzzFGDFiRHT88cdH+++/f7TllltGK664YtSvXz/XrRrPbpw/JHRpfYlUq/ZryuXHN/drZilCr15Dh04npcPDzY35f4nhvNmazy8uv8cIb8uxCfmG/GbxdRVScrD5GDtiuAEUKJFll102OvbYY6O77rorevPNN6PvvvsuqgT9/vvv0cSJE6OnnnoquvDCC6OtttoqmnvuuX1+sEZCFzxboaqKGUh8XkqNg6RaNVHaElTXew0ePLi3lBAPt+RyY6WK9bCcHykGdE9ToXBRc2PuTSlN6AlFPW4c2wi6tY0GQjCOEujdu3e09tprRzfeeGM0YcKEtuRY2cJoX3zxxejQQw+NFlhgAesfN018JwwXVGkGEp8TwzigJV+YIMaxCL8xjqbGwqNSSowWAxkpJcZ3YiyvtDY07cBnU75njUM9RD83u/LhaXoqbCAEMmLbFUOHDo2uvPLK6IcffmhLdn/qjz/+aP/U7z0ldYNFxffXXnst2mmnnaKZZ55Z/ecaCOMqbKidqeSQUuEfkui/aOr375KjKVd4XtoYp0mVaouBzS20Ne5uzjUPk1JkXCGX25rrRFPcONRDVKXokbCeDobRSdQwpp122mjnnXeOxo8f35bMKssgkmTdRlXLCiPv37+/+pO0oXCMtTfbCSjJSOLjUjIMl0T/emsuF4+htFWr/lcM5J9ScgxtzTVNbC7kjmxpaGiVtsmzLY2NPdogX0xgQzE8GQyji6hhzDbbbNHo0aPbE5dNcJVqFK6sO+33F154IVp++eVdv2stg8FgljWnaarm5uZcS7/8ioPnmWdmPdbU0LBk0wJNA4b27dsnL+cKhUK+tbV1+kJDw/Jt4xzFSqWySv9sXoFdwPGcmxsEMqKGMcccc0RXX311W1KaPPetZqmRfPTRR9Faa61l/W/TDBvSMaUITdEE3R1iczTrwWAYnUQNY8YZZ4yuuOKKOAGhSi8lcF8aVnpMjf2TTz6Ju36t/wVNO7zYp5hhpJ2vCKNiOogO8GnRWFeYiC0J2hiMG6h8CaxSpG5Lc5/vGv2unzTUpeoT+1/C0Waq9HayqTeqytKDeTLMnMUzRUsMElEWfPeC71oX332K73ofvntB6q3RaqutFg+6rbnmmtGgQYO813WVLbbYor1HypewkD0+JbFyf3/++efRAw88EN18883RbbfdFj3zzDPRb7/9Fp9zr0V6TEuQW2+9NZplllk0HGwaukNgI76qkloy6yjoo3Y9VROoofTp0yc6+OCDo6effjr6+uuvo19//TXuw3/ppZeikSNHRvPPP3+H67uCNDCjt99+O04sJJpiCbInZd1y1VVXRauuumo82EfJx6i9NISjTTfdNHryySfbrprc/fY3hsQIO+HQFoaalniF3KYCqrrSg3n81jOJMAi04447xl2TO+ywQ/zdZbfddotWWGEF7/0wbNiw+BrfvfShAxHju5cEvtlmm0W77LKL9/85xhSMddZZJ5p66qnb7+P7mDFj2qLRr5tuuqndQLrCNNNME5122mnxs3xGoMcY/Lv44oujCy64ILroooviUeju5pxzzonuvPPO+P9dcW6mmWby+gkWXHDBeLQc+ToV8Jf67a233ooWXnjh+D7HQK4TeG9KVUgtmMUs4wXrkUSWXHLJ6P33349+/vnn6Mcff/Tyyy+/xEUsjVL3fgLsjjvuiK/x3fvTTz/Fz95nn30mu49PAv7jjz9O/X/OXX755XEOqPdjLN9//30cgRqZFtWee+7Z6ZJDr1988cWjr776Kn6O+1ykv++///54EI3ceYYZZpgiMDJPhqWJWz/feOONuJqJ+8lArN/5rr8pQbJUsRDtLZMxafuVtgeviagKqXH8l8DbT9Uzqcw111zRvffe2xYMyaIPXHN/G+CUPK+++mrbVck6++yzOyRufca6664bJ/5i2muvvTrcd9JJJ7Wd8UeuJpZrrrkmLp30fzvD6aefHj/D93xkjcOWalMKjEPdoJ+0L3zXupApffDBB/E9xfw3bty4aPDgwXovGa5muocJFTFhMItwqG7KbD2RyqmnnhoHAnIDSn8TkEys43qbAxFBOqfIF8iaSDHA+eabr/0/9f599923PQdzpc+j9FlmmWXa74U0NyP93xtuuCG1ipFE3759o9dffz1+hu/5SI/T6J1uuum8z+lOVl555XY36CdzvHzXupDY33333fieNP/pud13393er6XHfQLr2StaWmrkBHfddlG23377uDGL3IDS3yTQDTfccLJ7aU8k3Ys0kX744YfeXqQzzjgjPp927yuvvNI+QU6NipmlbonDM/Q5+nnYYYd1KlfX52+99dZxlQ753Ib0eCUYh4YVJfy8884bn1e/WPQYA33EaTHpcymRPD1XvDKCd7FXtNQ46H9mnbB6IhUNqKWXXrpoEYuGDx8+2TNYO4C4L+1eAnn11Vef7H7aK8h3r0YM7Q23akRpQDsoTc8++2w0YMCADvdlhUatKslferySSg7afmQIvuuVOeecM+7aRUl+U+l5prwnhGXV9FrtLWSecavGQWA98sgjcSD4AkuPjRo1qsP9NAzpEUJpgazn3Eb57LPPHk+dRmn/q92JLizewXAY0SVRIKpo9O/fc8890WKLLea9LwkNj1lnnTV66KGH4ufhhiS/6fHOGAf/UQ541iqrrNLuButOOiqOPPLIqKGhIY4j/V/8teiii8btMJTkLyt7DeNIxi+avtj7uCp0kuA6PhN0QyIbyCrNwa+//vr2qc3ACOrzzz8fn9NrfNLn8R/0suj9iyyySPTee+/F59z/1N8k+jXWWKP9HkUTCFUm2iP0Sh1++OFx6UaO2pVGuD6Txiq9Psh1l5We66mSg55GdQOfioo20/nnnx8dd9xx8UpE2l9kHFb2+iTpNQcddJD9f82E2aBBX7hT0WKvIhzcKcOAvffeuz33daWBw+BRPp9vv4f5N5MmTYrPpRmHnuN+ci+9n+7YL774Ij7nSu+hJ2zgwIHt93QnahwMntG9XEwaLlmMg2fTCGYEH+Ml1y8FOkLIEDSccEuWhG6V9Xr9j7POOsv2OKpxMLGVDfwqWkwZsT1V6olUNEEst9xycfUEuYGmgcOMTVtVoTGuSgtoPUeuZeutRK425l3pPZRWSb1NjCsw9gJ2DAD0mPovC3otHQ9ZlriqG7MYByXcmWeeGYcBhkdYlwI9hJox2bDnOx0VuJ8pL0mkjXG40muuvfZaW/JrGmNvs+mFihbbP7ITnnV4Zmh3MO0CuQGmv0nI5Kp6zymnnBIfzxLAiPsZ19D7k8Yq7Pejjjqq/XoLPSdMH3/uueeixx9/vAOPPvpoXN2jPdTY2Oi9P43NN98809iLujOrcVx22WXx9d0hG0fHHHNMtNBCC8UzF+hssVAVo0seNyPN+NKk19ABQobU5idNY7xDpI9Q0ZpR0B1FOm0coGsV0hI73b5cS/VIG+O2aHc/3e/MhdL/IyfSc1b6mxxuo402ar/egjFrP32SKOm6MgmRiYbdYRy2XdddonuWbm6fGxSmxVx33XXx9UljTFYav7fffrvPOHg9gi5sqliVbBwHHHBAYk6iEao5OTky4w9Iz7mRzm/33CWXXBLfT87/4IMPxsd89yF28KDRzvVu9YiFRzoyr/+jqB+YMNiVrtxqNw7mpPGfSVVKMjYGC1FSfFvVtXFoINLAJrdGbgRqADHBjmuXWGKJ6Ntvv42P2QDmPiLIbUvo85544ok456Kn6+WXX46P2f+y3++++27vfC6wxuFKnxGMIxiHquSSY5555onn0SA3AjWAmEdEN+kGG2wQ//aJUVoajUifo59McmQaCfVh7RGy/2W/M+3c506oRuNgNi2yfixFPMd9VjAOv0o2Dnoi6AtHbqDpb/r/mQbOgB7yBS5Vp6QqF701lDoMKGkC9CUWSrBtt902dpcvkqvNOCgtGbDsbgXj8Ktk4yAwDznkkDgg3ECziZtxB3J15F5HA4+BOBIMchM+iZ4eq2222abtSEfp9TSmGc1Vd7lurTbjwA/4mWop4wVdgZnNzEVjnlPSvK9gHH6VbBzA/Ke0HgwihWvcwNVI+uabb+LuXs0l9bj9ZCYuo636W8V3/U3bJG2Uu9qMo5zQFfvZZ5/F/23DDwXj8KssxtHS0tLeReoLOEbRqVKxHhlp5Oi13Esfu52Q6Oq8886LB8SQe15/k0v63KfUo3FoYl9ppZXap4G44ReMw6+yGAeTAW+55ZY4MNyAIyLohaJhqXOiVBpJrOemwU3VKqkEolFPQCM3chH/USyC69k4mH4SjKNzKotxEKCMsCJfwiXBM/rMhgZWei2GRePTLmN1hWGxNhnZ/9DvPJslquoe140QjCMYR2dUFuMARqU113cTLxABNlD1OGJpKc9gZmtSvZiSQSc52nP6nSkhRKDrLkswjmAcnVHZjINcW6tNbuD5ErN+YlC61pvqmTvI50Ykssf0vxgso/Rx3WWpRuMgsZaChgmzcoNxdE5lMw7mLfECFmQDX7/z6UYK+vLLL9snFjK1Oa3tYj9dsRWP6yaXajOOpITaFVi/8umnn8b/7YZhMA6/ymYcoPs1oaRErNLzdpcKIoYFNihLBOgzGAdh9qjrHpdqNA5K5PXXXz/OQLoCA6d0ozN5ky5z5MZNMA6/ymocbKbma3f4pOcfe+yxDmMTvIsuqzQCmDbveXfdZFSbcVAlorrIOBEZQFehkwMDSIqTYBx+lcU4NEDJvZkHVUxEkkaUzrhVePMREYqSIlOlhnjppZcmTja0VJtxMLeK3RDLKRv2qmAcfrHYqWwlBw1qFg2hYgkbkbh1rYZGCnOw2K0bpUWCjWRGz607kuhO42A9hDur2Cf9n6zGUe2zclMWO5ExV7RYJjtWsA4vCRbnq5IiVI8zNqEvPdFIYTOGsWPHxufTEoSeo5Txbd/jozuNgwVdae5V6TW1bhzqXmeZrK4hr4plskg3WCgJDVTWeBerXmjAsWmbu1k0zzn66KPj82mRoOfo+tX30hWjO41DZxwXU70Yh17DlB/TxW43WJhOqHjZrXm6jAYqay6SBvJUepx9nnwJZOONN47Pp0mfwWYKWbfU6U7jOOGEE+L7i0n/p15KjgMPPNA+x27NQ62l4rWXoI4uuVHOyyF9q/Ws9DhTqd3nAI1yHbDyRYR9LhuR+Z7ho7uMg/EZ3Qghyc8qPV/LxmHdypQg8xxNX0cKFS3dinEt4XPBOr4keAUvKhahbNPD9W6EsNac6ecozTjootS9eJMi1dJdxkE3su52mDXh1LJx6Hm2AzX7h9m0pa9KrlipcbgbSZdceuy3335x4KSJdknSwB0NuCw5MRMR7QCi+xwXjEN3JUzSO++802njWGqppdqX+GY1jqyvINAOju42ju222877/wpVV+0oyepHjMmzkTTv6IjfN14Nwkhsj1XJxsFmb7zABQMg4F3o8iRhs2W/+wyFjY2ZaJj2DN5SpN2EWYyDKS5sd8lzfc/kOCVHZ7fmybpRHbLGwcZzlB5kBkmocRRLkKWIQUZKDqqHhKfrBtxIN70uh9bxJZ+s//fYYw8bTlp1r4pXECAtPXh5za+C9UyXIbdgO37ez8CryVzo0WJqQ1q1gp1GuD/tGZ6Xw6dCxG+yySZxpPmeyXFG6Gk3+e73wQ6JuoIxSwLWxDN+/Pjo3HPPjXtzWKTlg1e06ZhPMaMrRST2++67Lxo9enTsJnaLt+AWPilVUZJbOK7nnEzGZrqHCJruKlrqyILwvoDj1cIDGaBal7VKpepsQu9OwyinWzin55kjZ0pzTVO8m2NZoep0rmA9UhIETDF891l897j47kvD9wwX331JsKkd6koC1sSUBMbG55SQ/T8fxQxfr0NMJtVSQ8KTEkPT1PXCTELViRcZ6quW8UyX2x71Au9G1G7rrKVGLUqNAlFFo0OG8GkzDE1HPwgbC1UphvMvEPBIqFqloKVL2pr3epMaCHsh04iX8FHDUOP4H6EqSw3VYsIngvVcnBACHeGdI7417fUmW52iJ1C7wdtKDQ2vb4U1BVQVjXGfeLPsPwT1WDAQg5YYzBViwzSrejUQ9TdLpHk5TltYuWnmLKEmNLvAxDDryWAgBuZ+6YbYNuesF7l+povXvGbOTTPPCAsIVS8t8qhejROsJ+saLTWGDBlSt9Up9a/1Ny8vZdC3LZxIK6BtVkbDVxBqRmog6wqfCtbj+r0uoZ3BYBnS3ql6MBD8qKgYVWfwk90u28LHNYwfhe2FmtWWAtavnteAqDtYoag7oyA3sdSi8B+ZgNtNzbauOmnUQQ3jJ2FfoeaFgXws4GnNHRQbMDULJYZ9QX2tkyQ2w2DQM5fLadj8YXql1DAYz9hHUFVt71RWMa39baE9UJzPmoR2Bm+ueuqpp9qSR32Jt8uyjeuoUaPi7YHsi0TbjMKN//HCVoKq5g1DNUTgzbO/CQSEBo4vkGoCJlAywZGZsSNGjIh3geezlmHPY94vzzoZ9syiOumZIOqL94cEZlnUrdit5GDhPSEtoGoC1lsw2ptl3UWd4ItrSosThbmFupUtIpcQzhEmCDbwqHdCzRlKvaFd1wJxSZxqjUGho+ZqYTkhyKNhwsnCq4INOIvNbTqDvd8+L1AcG4b6vSu4z4V3hTOEVQWbYdZN+6KY3IBoFTYVKE1eEJhL4+Y0XaFYRAX8lCvMiEN6n1hGzY4h2woscWWakSoYRUb1FuYSFhc2Ew4VRgvsjXWVQDFcjCuFGwS76UMwkOy44fW0cLlwjeALbwtxdJkwRjhcoBv/L8K8Au3NoAoRudT3AhGs7ZhgINnQcLpfYAONoApTOYrbPYWfBSJaB5mCgSRjw+ZxgepuKQpVpgrX/oJrGMFA/g1hYeHYo8JAIahGpbkWn8MF3R0llCAdsUYBDwqDhKA60o7CV4JNEPVuIG4YsBS1RQiqQzGN/l+Cm0Ds73rBNQy6WulVQqGtUEcisjXClxQeFmwisZ+1jBqE9Ss9ekcJ2tUaDKNOpRHfIFwo2ERjE48eryWsH/XYOwKDr6pgGEGxyCl3Ez4Q0hJQLYB/FH4zcn2LsKgQFJQoRuPvEH4RbGLS79WONQr4SDhACCPWQZlEQtldeEWwiUq7fasVaxh0ZTPFw66ZCNWooFTZBMKkOGYJfyH4Eph+ViLWba47WUi0tTCtoAqGEZRZNrEsIzBDWPf+VayRVJKhqHtcN/G+bl4PYfd9CkYR1CXZhMPevxjJecJEwSY6EmFPTmbU//X9N12zvKebamJfISio24TBLCgcKzB9m7UmNjGSQDEUNRZ7rtzY/3LPsfSYqfp0zc4mBAVNUfG6LdaZUOUid/a9zaqcxmKf43sWm3Yz5YO1EwxuBgVNcfnq6UznXl84QbhHsLs7pqEJ3YfvegvjEywpZkERezux/npWwSq0KYJ6RCQ8X+JjThJbD20kMBWDNxBRsrCZHdtaUsL4qkIuGAjXMubyjcA8MBYcscs473tfSWBiYB/BVTCKoIoXiZTESxWsWWATCUqYXQVe9vjfwkiBpaQwShghHC0wtZ5NzdYQGL2eX6BkYPlwUFBQUFA9Sas8SdUyZK+xn0FBQUFBQUEVrl69/h8weP9h9Jp1GQAAAABJRU5ErkJggg==;" vertex="1" parent="1">
          <mxGeometry x="225.03" y="530" width="57.34" height="34" as="geometry" />
        </mxCell>
        <mxCell id="lgLzInrkZJbj5XazXorP-63" value="" style="shape=image;verticalLabelPosition=bottom;labelBackgroundColor=default;verticalAlign=top;aspect=fixed;imageAspect=0;image=data:image/png,iVBORw0KGgoAAAANSUhEUgAAAUIAAADzCAYAAADzTB/4AAAAAXNSR0IArs4c6QAAAARnQU1BAACxjwv8YQUAAAAJcEhZcwAAFxEAABcRAcom8z8AACIdSURBVHhe7Z1ZkCRXdYZb0ghJgBwGMcx0d94tq3pm1AIhaFY7wvNk+8F4t8LvfrAJ22xCGm2sWpHYZEDekARGkvXkCD+azY7ADyYcECDNjDTSSGAIPxDYaCD8QIA0Mz7n3JNVWdXZWy1ZmTf/L+KPqp7prsqbee+f/10ycykY9+G+D+f73p/PrTvXc/48BI2L60iw9tF+v3/JEgApImYoFd6xGW5qBFC3xXUid3SS5JOlcY9kWXaZVh0A0oLM8CPRDGPFH28MEMTiZMhmeODAgZdp1QEgLUbNcHMjgLqt4gTJdYQS4sPr6+sv0aoDQFoUY4Y9R2d+6zFmCG0WnSRlzNCYL24sL79Uqw4AaSHJcGiGmxsC1GkVdUK6ydb9g3PuUq06AKQFmeFt0QzRTYY2a9BN5jpi7RcwgQKSRcyQUmE881c3CKi7KpthsO4LSIYgWXpkhtxFjhW/ukFA3dVghYEkQ/8Q1hmCZOFkyBU9Lrre3BigbqucDHNrH0Q3GaTKBWSGt7MRyqJapykAglRygmTJydI+iKU1IFl8Zu+QZMgVH2YIjUt6Cy4mQ+cewJghSBVJhkXFhxlC4xrpJhv391RnLopVB4DECI7MkCq6dpOx6BoaVTGOTPWDTpx/hwkUkCze2jv4rI8xQ6hK5dlkNsONjY2LteoAkBZshpIMueLDDKFxjawztH+LCRSQLINkSBUeZghtEpkh1ws1w79BMgSpckFu7Z2ytIYqPswQGhd1k2UcWSZQrL3/6NLRfVp3AEiLwgz5krzB+BAEqYo6saZmiG4ySBVOhncNuskwQ2hMUidIkgyd/+zStVhaAxIlJkMsuoaqVZwguY544z6zhDFDkCgX+PKYIZIhNKayGQbnPs11JlYdABKjSIZa8bHoGhpR2Qx7xv0VJlBAqlwQrL+7ZIYjDQGCZOjEajK07j6qMxfGqgNAYgRryQy14sMMoTGNdJOt/9S1uDYZpEo0QyRDqFrFPS65jtD7T16L2WSQKNRNhhlCW2vMDD/BdSZWHQASA2YIbaeBGfKifGM/TlUGyRAkyYVkhh+FGUJbic2Q16ByHQnG3av1BoD0CMbcwxUdl+NBVSrqRMkMMZsMkiQmw8HT8WCG0KjGzPAerTcApMdYNxmLrqERFXVCzNC6j1KVwQQKSBIkQ2hbjSRD6+/WegNAenDXp5QMRxoCBJWTYW79nVptAEgOfjrevTBDaCuVk2GeWZghSJYLezBDaBuNmKG1d2i9ASA9eibADKEtRXUidpN5XNm427TaAJAcnAwxZghtKTbD0qJrmCFIl9y4j3FFL+5c05OZZWgylUwkjQfyn8utHy6tMe7DWm0ASI6L2Aypsj9PCeB/SD+CJpX9Ib3+n6RsMpB0zJCTYTxZBmNghiBd/EHv3AHn+RXau3jfHbF22a2uvjVYdyI+Rc4lZYbFz5QSP6TVBgAAqnHL7ggZx+NrId9kIi1WqRwym/xBLW6S9Ky7L88s36YMADApzrkjkgwDmYZzZ5NLhpJ47Qe0uElRPPpChjicu13/GQAwCX5l5TA1pCc4GaqBJGOGxWwypaakzDD4aIJ04pLyxklEmCEAUxFCOBTEDDlBJTNmWBi7JkP/fi1uqxET5G4/maAeJy0jlxlmCMBUUDf5SmpIxzUZspEkkwz5vXQhjbtVi9tKyk+C5LLp6+A9J2AqI8wQgGkIK+FQuZucWjJkowjG3KzFbRWUaO/i7dfucNVxGZbRYWE5AFPByZAa24m+dpOLBtZylSZQ2meGnpIgb/s2JlioVEaYIQBT4b1MoMjSmtTMULuW53LjbtLiNprc2p2S4LjkdzCBAsAM0GR4UmYnU0yGpNyYRpshmeCdgzFBvoxQLyXcTuVjFf8WZgjAVPA6Qxkz9CkurdFkaP0xLW6jkCQoqS5us77uRWqG9N4YdJMBmIY1TYbF0pqigbVcw4kgMgpv7Q1a3EZA5nxnXA5Diilwkn0e068+HzoY9xH9eADAJHjvecywWFqTjhlKMuT34RyZ4fVa3IUSu8PDbSxt76SKZijJEBMoAEwFT6BQikrtRg1Ulmg23FUOLrxPi7sQOAlGYxaxUY9s68SK44vFOkOYIQDTwN3kUjLkRpZIMvR6C69wjrqQ12lxa0VMcLZJcFSjZohuMgDT4Fe4m+yPp5cMYznIKNgM36vFrQXqDt9R2pZ57s/BmCGZIe7ZCMA0WGvXuZuc3tIaTobxZ2fMe7S4c4W+sy4TLFSaQMENbAGYisHSGu4mcyrUsba2i41d1+69mM/ZDDkJlscEi22oQSUzRDIEYCr6MRmeTPZyPFLuzbu1uDNFTHB0TLBeI2TpmCGSYbu4iLpkr8iy7JX82iStrKxc0e/3f0m3s1PI0hrvE7ufoYtLaygZklG8SKb1Li3uTJjDEplJNfhuJMOW0DO9q3LnT1ICOd2z7lSj5P13qeH8M23mRXFruwWdDNZz7xNbdK1mGK9AOR8y+5da3KlYcBIcVxzSQDe5PeTGvFEOXhy/aZQ4DZEhPnHt0rWdNEJm06LrNMYM1Qzl/Qtkhn+hxZ2IPPPjJli8X7RkW2I3GWbYaPrOvT43/mfjz+ZtgmRw3br/7LIRMjyBwmOGnAzZCDUdVu6zFqlcjheDc3+uxd0TnAS3+MwmiLdlkAyxtKbBwAjbQbxrjT+R1pihJkPpjYQXQ7Y3M8yz2tYJTiftJmMCpcHACNuDLq2hbnKai65JL+TGvUOLuy20H24vfUbz90NpzDDHs6GbB4ywXcjSmsQmUNjQJRnGOniW6uOfaXEroW707Q0dE9xJXE55T136pJ8N3TpghO0jJsPh0ppSomq3uBzSTfa/oPT0p1rcESgJ3qaTLKw2llvMkMtAZohk2BSaboRUaWCEFcjSGmuf1H2URDIkUfdxYOpne9aOmGEw7jb+PzYS+d3Rv22L5FiVzBDJsAnACNsLL62hbvJ/xOSchBGyqBwxGebO/zxk7k/W19dfLo/c5P+P42wplFXKIHfnyWCGC6cVRngtjHArgnX3iRFW7L8WK44ZxuN/Llj7R/T6DRkKiBNESRghl41UJMMP6CEFiwCJsL1QV/FW2k8/Jw3XqrVfYhD8no8/meBjzrlfluVD1j9VmGPxOwloUA50kxcIJkvaSXDulmI/JWQKg7Jo+nvk6gMHXqZFXsqz7DX0/08XZki/l0K5pRxUHvmZzB5muAhghO0jOMNJUPZRkibIRkcmmGXZZVrkAXmWkxmmlwy1LPK+j2RYPzDCdhEMmaCuoUvFBEgDQxMTNO6R/ev7X65F3kTPmKvo90+lbIY5JlDqBUbYHoJxtxRr6LTxJ2UAYmzGPeycu1SLvCUhC6+lujHoJuv+qPz8linuC3pPZogJlLqAEbYDNsFinyTW6KUsgyS4f+skOE5cS5nmBAqbIb/HbHJNwAibD3WHyQTj8UmosbOkwbMJBusf3VhefqkWedeE1dWry8mQP3PsO9qqoRkiGc4fGGGz0SQ4WFM3vo9aqkF643IFY/9x//71XSfBcYwxV/VSXVoz7Ca/X4sL5gGMsLlULJFJKu3wEpmetY+Wl8hMCo8Z0meeLp0wUthX53LdV3wFCrrJcwRG2Exy526ifUBJMCkTHE2C1j52YAYmWMDrDKm+JDebTNJyUHsw7lYtLpglMMLmkRtzo5Sd9kFCjXlQFk6CwfrH1qfoDm9FWA1X00kkuWTIovLEn427RYsLZkXTjZAO/jd0UztB35ibej423iRNUE5u/rHlCSZGdkvIstfSdyW9tAZmOGOaboTBuuNLR5f26eYmTd/4G1NcJ8ji8kjKJRM8fMXhy7XIc2N8nSFtQwr7UkydzZB/5mvNtbhgWppshKoXgrWfok29MG5xmlASJBMMsbEmZoIkMcFg7L+eXzp/gRZ57ox3k9UQq7avVaIylc0QyXAWNNoIteJKRfb+E7rJySFjgmp8qTTWccmsp/M/oJPab2mxayHlCZSSGd6sxQWT0vREqJVXzNBb+0na5KSSoZpgLG+iJijip7hxKnTup5Ro/kCLXwve+9clOIHCknWG/J7a8I1U1E4MIc2FFnSNWdEMOVXYdJJhkQS5gSZtgoX4nol8wwjrz+SZ+33dDbUgydAleKMGfZJhbtzzWZatanHBXmmLEbJSSoblJTJqgukbIYmPIZshndDO5Ks1J8NVSoaJLboeGKF1P8qXl60WFeyVlhhhoXjJkVRk+3EtQuvg2WEqy1l5YluHTLAsTvfBup/2suz3dLfUwvi1yWqIldvYGsVF9z/srawYLSbYK20zwsElR1yRnfsYFaFVybBv7bFBeVJohBOKj2HsJtszvczVaoaaDJ9NJhnCCKenZUZYaGiGLUqGtK3H+qNJsKps3ZGMGYoZ/bTuMUNeWkPH4JkkkiGMcHpabIRihlwJfDTD2tanTQKbYLH92uhghKTiGPace77GZCh1RWaTUxgzhBFOT0uNUMSVlxtSKRk20gzJqG/o62VzXR0T3E7xGNJ7a39SdzKUbrLz7V50DSOcnjYbIUsrr5ghpYp7tViNgU2wvK3lbYdU1EWOx1B+fr5n/O/q7qsFvjY5tLmbDCOcnrYboWpohkbMsBHJECa4N8VjSO+t+0nds8nOuWsoGQ4mUFp1vGCE05OIEbKiGfJ7YxaeDNUEzxYNa2xboS0kx5DN0HAyNDUnQ71RA7UFPmatOW4wwulJyQhZ0pDo57DAZEgmeH2xP7UxwQj3ID6G8t76Mz1X79IaSYZ2mAxpO5p/7GCE0xON0JIRVuzgdmqw6JrM8B4tZm3km5MgTHBC8QmNr0Dxxv+O7t5a4Nlk+v72jBnCCKcnZNmbih1KlS6FRivmQxUjmqF1H6Vi1pIMKb28r9iOxjeeNoiTITdy539c9wRKDAjuubac0MQIezDCiQkhHCAD/LY8V5YqXkINWMrB4z29GpJhT7rDlAR1fKm0HdA00rvWUNL+CSXDWs1QkqFtQTJEIpwNzrkjfCdoPeDVO7t9oopbjBnO1wzVBOV7G9tYWiypk5oM6+4muxUeMxy5HK9yGxcq3jcGRjgTKBkeoq7I44UZJtSg2RDnNmYYJ0Y4CQ5MEEY4B3GdjHVTxgxrTYY8gUJtQ5Jh1bYtXEiEMyNecrTiD9NZ90Spm1y941ummAzVDOOY4UxQExTjUxOs/H5oBoqLrs8tIBlK2+ituLfxLHYjzRBGOHu894fp7FfuJqeXDK29W4s7MSGTiRGYYM3iOil109ebDA9fccXldBKVS/GqtmuhghHOh3w1XyMzfKIwQzXEFHQudzxm6KcyQ+piX0efhcXSC5LUR02GdBzfrodlrvQPHtxfzCJXbdNCBSOcH27ZHUkwGXIZdAJlMjPUJCifpyYII1yA5BjW2E2GEXaYPOdk6NOcQKFXqdR7MEM1wRd1f8AEFy0Z6hAzfD6smN/WwzQXYIQdZ825K6k7eaIwQ9rxKTR+MTEuT1z3Z+/S4m6Jdofl7xM6IbRfXCc1GQYT5maGMEKwFFZkaU15zDARI4jliOXa2gyDMWyC5SRY8VnQwqSTYLnxZ4INcxkzhBECwcVkeLIww8oD0j4NkyGXK9tshpoExfxggg3WMBn+7zzMEEYIBvA6Q9rxySVDLgeXJy6KHpqhmmByY4Ll45ZYueIJjccMYzd5ZteYwwhBgVQqvhyPuiAn1+I1tVzpqg9Ou8RGWDJD/0Gq9O/hf+f/5/8r/W6rVZSFyzn+b62XLroWMzT+W9baV0jNnQEwQrAJNkM6AMdlosGxGabRkPgKlB6VJ74vJlLSM0G+cojS7qe9te+kE9mL0fzl/5IpKy/9yg8ceLVW2amBEYJK5Npk544Pk2Ea44ZsCEV51Bwqf69lksTL79dCTmnJPrixtHExH8eK5Nv6MksitO47bF5SWWcAjBBsSVxa408UyZAOSirGkZTY4Ehqgu5zdOj2xSMYUTNMZiwURghqJ6ysUDL0T2g3svpAQYvSMAmyOVAS7Pf7l+ihG0HNUP6u7WYIIwQLQZbWWCTDBipOAHlKgs4/QIdqJAmOE4x7L/1N65MhjBAsDFlaY0tLaxKZQGmpdp0Ex1EzlM9pqxnCCMFC6Vu7TsnjZCkZQovRiAmur6+/RA/Rrmh7MoQRgoUjS2tKd61BMqxXaly6RMY+tNskOI6OGcpntc0MYYRg0ciia5lNNpoMxQwrDh40cw1MkGeHLSXBpb0lwXE0GZ4tf3YbBCMEjUGuQCktrUEynK/YqEixO+zcAxsbS7JOcFrIDK+jxl82w8YfRxghaBTRDN2J1BZdN0zDiRFdLD1pd3grNBnKd7TBDGGEoHHYzRMojU8UbRIbE0mToCyRmUkSHIeTIX1fKyZQYISgkcSlNS5em4wxw5lJDUkaPk+MUAK/VHf5XFAzlO9sshnCCEFjGS6toYMWD2BjE0WLxPvwBWqgnzl69Oi2i6VnRRuSIYwQNBp5VKjTpTV0AEkww2ll/c98lv2a7uJaaPoDrGCEoPHImKFx8U7XVQcV2pO00Z/urdhf0V1cC01OhjBC0Apk0fUgGWLMcGLFmfh4I1LnfpBb+6u6i2tBzVC2pUlmCCMEbUAWXSMZzkbUAMSEeNaYjPG/eivubbKXa0LNsFGLrmGEoFVQMrySDmB8VCgdUIwZTi42IWmk1n2f0na9Zpi59/VdkGOnZrjQ4wgjBK1DzJCfgcIHkw4q0uFk4i5yYYa59d+j/fpW3cW1oBMojTBDGCFoJX3b56U15WRYfcChnURm6DUZBjbD2pMhbcNZNaKFmSGMELQWXlojN3eNlRhmOLkkGRZjhn519S26i2vBZ/b6YlsWZYYwQtBqZALF2ielIseDvLDuVcslyTDehcZ/j04ytZqhJsOFLa2BEYLWw0trBsmQDjIJZjiZBmOGwbrvhyx7s+7iWljkomsYIUiCnuldRWZYTobQZNJusjyz5Lm6zdBbfwNtQ+1jhjBCkAwym1xMoFg62KyqSgDtpEEylG7yar3d5EWMGcIIQVLkWfaaYswQRji52IBYeqsuSobhTbqLa0HNsLZF1zBCkBycDAPftaYwQ4sxwwk1kgzr7ib3ohnKsVMznNtxhBGC1JDL8YwxV1EyfGpghlWVAdpRbEAsSYbUqHNj3ih7uSZ6dpMZVm7ntIIRgmTpRTNEN3l6RTMM+fkeNWxKhvV2k63lCZRzcl/KOSVDGCFIGnk6nnPlbnJ1xYB20rCb7Nxz1toN3cW1QCc0NkPZlnmYIYwQJE9FMpxbFytxDZJh7vyz1G2t1wwzMcO5LK2BEYJOcMgt89PxMIEyvYbJ0Njv1T5mOKelNTBC0Bl0aQ0mUKZXKRm609RNfoPu4lqgZHiMtmGmyRBGCDqFjhnKomtNhtUVBdpJpWTonqu/m+xv4Ccc8rbMwgxhhKBzIBnOSGRAbEJy1xrnn+k793rdxbVAx5CToa5zFDPcvI27FIwQdJK+PbgexwzzIhlO3b3qqIbJ0DqeQKm1m+yjGcq2qBlOdBxhhKCLyKLrOJvsTklFRTKcXJoM4350z7gVd43s5ZrIrR83w83buINghKDTlO9aQ42YKkdFpYF2o8EEipphrd1kn9ljfU2DaoZ7MkQYIeg8/cHNXbURkSFWVh5oW/G+y8mA9KTyjHM1J0NjbixvC73u2gxhhAAQ3E2m7rFOoMAIp9BIMlxb9a/TXVwLaoaFGe/aDGGEAChu2R2hihufm8xmOF9DpPQUx7OKhiLfOfo7bdXIBMpa3WOGxg+S4W7NsJNGaGCEYAvi0ppiAmXuRijvqVt+irqU+j6aYwIqJ8NTa6urtSbDnnE38zbocdzRDDtphEiEYDvkgVCOn5s8l2RYJEFZfxes/Xx/dTXLjb2/kQ1mOpWSoT3ta+4m9425abBPdzDDzhkhSYywByME2xCy7LWcZKQSz94Iz8dngrgvZll2GX/f+tL6S6jRfI5vNcW/JwY8+ndt1SAZ5tY/FVbD1bKDa6JnzM0ymxyPI4ywEBIh2C3cTe6VltZMa4jFmCCboHfu4cIEC/r9/iXUcB5I1QzVbJ72C+gmF/tUzXCTIcIIAahGFl2HLHAyfHpghlWVahcqmyAnQefcpfItY6yvSzJ8oGg8qZghGyFrLbDh+Kf4JKNFrgVNhoNtGd8+GCEAO6DJcLi0Zo/mxCZIiknQuIc5+elHVxLN0D6YmhmSSt1kdyqE1Zq7yZwM1ZTGkiGMEIBdEM3QndIJlN0uuh4skZHGT93h5eXll+pHbgubpWcz1M+i7xz/7FaK9x0r7sdFJEN3y1gylOMDIwRgl2g3edcTKOUkyCbISU8/aldsbCxdLGaoDYkq7qbvaKnKEyhP5nleuxmSEcQ0qGYIIwRgD8QbNew4gUIGGBuaJJ89JMFxeCyxPGaYkEYmUBYwZnjLYJ8OtwNGCMBu4SUg1Hi2m0BhI6TusJjgF3caE9wF+2TMUD+fKvD497VV2k3mxOxP5lnNydBJNzkureHtgRECsDc0GT5VLLpWc5KGza+6WPrRSZPgODEZDrvJCUnGUfsym+xO1Z4MoxnqGKH/dv9gH0YIwF7gGwpQipAxQx4LVBMsJkYeGV8nOC2D2WStzGq+KUjMUPab9yf4bkBa5FpgM4zHzJ88tLz8Kv3nqYERgs6gS2ue1GUZ0s0Lxs8sCY4jydCmO4ESk6F/su5kSN95J33/qbUsW9V/mppGGyEJRghmyqHVVR4zPM4VPlj/6KyT4DhFMixV6E2VvI1iI2Rpoj7h3MErtch1cJE35o/pRHNQf54aJELQOYINb+9Z+0/n9YqUeRMvx0s1GcYxVjLDk8aYq7TIrQNGCDrFEWuXg7H/ximGb9ag/zx3uJtM3/tQ6bGWmyt8C8VGKMlQzNBTMnRHtMitAkYIOgN3pYJzX+XKHq+jdc/mxrxR/3vucDdZzFAbWypmSIrJMC66PuEOujq7yTMBRgg6geUk6NzXeICfKxenGK70lGKepf+r7YHnkgytHyTDVKTJ8KxMQDl/ksrZKjOEEYLk6ff7+3tqgtQlHlxlEhdSy2D/6V6NZnh0aWlfMP6hYnFwesmQy+We4McpaJEbD4wQJA0nQTFBTn/jj/9kMyySITWCOpMhz1YHO+wmJyQxQ9mnLUqGMEKQLPmBA69mE9RZzerkVUqG9PMzveX6zLAbY4bhO35l5bAWubHACEGS8MRIz2h3eKcHwZeTYc0TKJwMe5n9fJpmyPtUTjDH6Xg0upsMIwTJEUI4QCb4VV3SsStz4d+RZMgNwTpOhm/Qj5s7vM4wWP/58raUt63FGiTDHiXDfDVf0yI3DhghSAoxQV4iE5fH7M1U9PclGRr/XM/26p1NTjYZxkXXtH+P+xXfyG4yjBAkQ9EdlkZHFWgSM+G/IUk3mZNh37nX68fPHTbDHiXD1MyQjZD3aUyG7vFelvW1yI0BRgiSIM9znhj5MldkNbPqSrUb8d/Taxzsr3dpDXeT6fu/kNoVKCQ2wzgpZR11k1cb1U2GEYLWw0tkyLi+IiZIFWcW5qGfUUygnLY1jhnq0hoyw+pta6tkDSe9ys1drX2KEnBjltaIEVr3g8YaofPPwwjBlvDNOamBfWWiMcGdxJ9Hr/2YYp4hw63NDDc2Ni7mpTX0/b8gU2T9vO2iY1O8/kJPMI83xQz53obUhf92z4YztF0/bpb8GaoH36XeQqabC8AQHhOUa4f5SoadlshMqmiu8aYC1HWqezbZG/8bPvO/GUz49TRkVPTe2j9sUBd5Hz/wy6/6t4Qse1OzFN5Mdf2avT5QDHQAOYObOSXBcWky1PGtp+tMhgAAUAkvkSFj+nJMgnM0wLI0GXKXLlj3bA9mCABYFDw7HMcEKZ1tddncvFQkQ75awvqnqbtS29IaAAAQxAStkyQ49+7wViolw9x6XlqDZAgAqAfpDrMJ6vKGhZigSk24uFrilFtx1+hmAgDAfOD7CebW/ksxJrhIExyIt4Ne2QxDzdcmAwA6hibBLw0WujbBBFWSDIeLrp9GMgQAzJxDy4deFU0wXpXQiCQ4riIZ6qLrOq9NBgAkTng1J0ErSZCNptKEmiI2w9LSGl78qsUAAIDJWFlZuYLHBOVJc01NguMaTYansLQGADAxcYkMJUFZIlNhOE1WKRlKN3kFZggA2CPLy4deRV3LL8l1vWQsrUiC4xpPhphAAQDsFrmVlnWyREaSYNvSYFljyRDXJgMAdsQ5dymbIKeo3Dm5gWelwbRIXAY2w8Gia7eCZAgA2Bq+vVBu7TEykHNqIvwq71utopsczZDXGWLMEACwPb3MvpMM5CybiJphtcG0SOPJcG3Vv06LCwAA1fhV+y4ykLIZppMMueuPZAgA2A3eek6GYoC5ldfWm2GRDIsJFI9kCADYCW8lGb7Yi8aRXDLkbnLIMr4F+6X79+9/OQRtp8NXHL5cmwboGt74dxcmklQ3mRQvHXT/HZz7Gr1+HYK2lHVfp7rz7xQOrtemAbqGN4bNsJwMqw2mTSIjlFdPCuE8r52EoC3FdZ9FdYZOnLdo0wBdI49mKBUhmWQIQXtTrPNkiMHADDuLjhmeTSoZQtDuFQOA9ibIDG/VpgG6BiXD92iFQDKEuqpBnc+tfb82DdA18lXpJie16BqC9qBzsqRMkyGZ4Qe0aYCuoWOGSIZQZ8X1nnRe7t5u7Qe1aYCukcelNTBDqLMSM3RkhvIeZthZ1Aypm5zQomsI2pukm6zJ8EPaNEDXyI3jCRSpFEiGUBeVU52XbjIFguDch7VpgK6hs8lpXY4HQbtXrPM8gULJMBiYYWehg//eomIgGUIdlXaTZdH1R7RpgK6hyRCLrqGuSgKAdJO5DRh3uzYN0DWccdcVFQPJEOqoYjKk93lm79CmAbqGdpPFANUMqyoLBKUqToU6gQIz7DQ6m1w2Qxgi1C1xvdduMpnhndo0QNeomEDZXFkgKFmJEUoy5J9za+/SpgG6hpqhXJusEygwRKhTGnSTeTbZ+ru1aYCuQWaICRSo22IzpFeZTYYZdhc1w/LSGpgh1CVRfY/DQ3GdobmHmsUFsXWAToFkCEGxzosZOnevNg3QNSqSYVVlgaBURXVe71oTzfBj1CwujK0DdAokQwgadpNzYz+uTQN0DToTshmeQzKEOqpzPbnTtZqhtZ+gZoFk2EXKyRATKFAnxWZIr2qGn9SmAbpGNENKhVQZtJu8ubJAULqKyZDey5ihtZ+iZoFk2EW8tdeTGUYTRDKEOigOAcU6w2DdfdQsYIZdxFt/vYwXaqWgV5gh1CmVzZACAcywq0QzVAOEGULdU7w2md6v8ZihcZ+mZnFRbB2gU8RucqwYSIZQJ1WeQIlmiCtQugiZ4Q0yZhi7CDBCqFuKD5AfdJNzYz6ztHR0nzYP0CVy62/AmCHUcQ2SoTeOzBDJsJOIGerSGiRDqIMaS4bus0tLGxdr8wBdIrf2GJIh1GmxGRZ3unZshkiGnYSS4bGiUqgZbq4sEJSqohHGZBhyHkO8/+hRjBl2EjZDPiMWFYNeYYhQp1Q2Q+op3U/NAktrukgcMxxWCnqFGUJdk9T5fpDL8f76KGaTu0lu/I24HA/qtCQZ8phhzpfj/S0mUDpK0U2GoK7rUN7j2eRHDh8+fLk2D9Alcll07b9JZ0cI6qQoDX4zd/5b1A6ecMa9Q5sG6Br9fv8SCOq6siy7LMuyV/4/2penlXH/HWcAAAAASUVORK5CYII=;" vertex="1" parent="1">
          <mxGeometry x="225.03" y="460" width="53" height="40" as="geometry" />
        </mxCell>
        <mxCell id="lgLzInrkZJbj5XazXorP-65" value="Client N&lt;span style=&quot;color: rgba(0, 0, 0, 0); font-family: monospace; font-size: 0px; text-align: start; text-wrap: nowrap; background-color: initial;&quot;&gt;%3CmxGraphModel%3E%3Croot%3E%3CmxCell%20id%3D%220%22%2F%3E%3CmxCell%20id%3D%221%22%20parent%3D%220%22%2F%3E%3CmxCell%20id%3D%222%22%20value%3D%22%22%20style%3D%22rounded%3D1%3BwhiteSpace%3Dwrap%3Bhtml%3D1%3B%22%20vertex%3D%221%22%20parent%3D%221%22%3E%3CmxGeometry%20x%3D%22240%22%20y%3D%22350%22%20width%3D%22120%22%20height%3D%2260%22%20as%3D%22geometry%22%2F%3E%3C%2FmxCell%3E%3C%2Froot%3E%3C%2FmxGraphModel%3E&lt;/span&gt;" style="rounded=1;whiteSpace=wrap;html=1;" vertex="1" parent="1">
          <mxGeometry x="355" y="610" width="120" height="40" as="geometry" />
        </mxCell>
        <mxCell id="lgLzInrkZJbj5XazXorP-66" value="" style="endArrow=classic;startArrow=classic;html=1;rounded=0;exitX=0.5;exitY=0;exitDx=0;exitDy=0;entryX=0.5;entryY=1;entryDx=0;entryDy=0;" edge="1" parent="1" source="lgLzInrkZJbj5XazXorP-61">
          <mxGeometry width="50" height="50" relative="1" as="geometry">
            <mxPoint x="414.7" y="550" as="sourcePoint" />
            <mxPoint x="414.7" y="510" as="targetPoint" />
          </mxGeometry>
        </mxCell>
        <mxCell id="lgLzInrkZJbj5XazXorP-67" value="" style="endArrow=classic;startArrow=classic;html=1;rounded=0;exitX=0.5;exitY=0;exitDx=0;exitDy=0;entryX=0.5;entryY=1;entryDx=0;entryDy=0;" edge="1" parent="1">
          <mxGeometry width="50" height="50" relative="1" as="geometry">
            <mxPoint x="415" y="610" as="sourcePoint" />
            <mxPoint x="414.7" y="580" as="targetPoint" />
          </mxGeometry>
        </mxCell>
      </root>
    </mxGraphModel>
  </diagram>
</mxfile>
